<svg width="184" height="552" viewBox="0 0 184 552" fill="none" xmlns="http://www.w3.org/2000/svg">
<g clip-path="url(#clip0_652_7658)">
<path d="M38.0926 -71.9812C34.9719 -71.8111 34.0416 -69.4402 33.175 -66.7556C31.1913 -60.3224 29.6391 -53.7639 28.5286 -47.124C26.3888 -34.8706 25.2933 -22.4577 25.2539 -10.0189C25.0518 15.6463 28.6137 41.1999 33.09 66.4186C41.5216 113.874 50.5965 162.137 67.8052 207.317C76.0826 229.059 86.412 250.11 99.7027 269.263C111.436 286.21 126.284 302.222 145.087 311.296C157.012 317.043 188.835 326.33 192.7 305.773C194.359 296.959 187.846 288.321 182.03 282.468C173.588 273.963 163.423 266.749 153.944 259.423C110.062 225.507 62.8423 196.141 13.0158 171.78C11.8356 171.206 10.2355 172.168 10.6714 173.582C33.1273 246.346 62.4411 321.986 125.348 369.362C139.221 379.904 154.487 388.473 170.712 394.825C178.964 398.023 187.467 400.531 196.134 402.321C204.199 403.979 213.763 405.866 221.392 401.656C227.032 398.546 231.328 391.678 229.143 385.177C226.713 377.942 217.495 373.912 211.264 370.702C195.315 362.472 177.873 357.688 160.228 354.653C118.506 347.476 75.2797 349.337 34.6264 336.276C33.2016 335.818 32.2554 337.445 32.8242 338.62C56.423 387.287 104.551 416.961 153.838 434.785C169.973 440.632 186.459 445.417 203.035 449.792V446.719C151.281 466.254 97.4789 479.856 42.6593 487.264C40.9634 487.492 41.3355 489.89 42.6593 490.341C70.8097 499.879 100.935 502.042 130.16 496.625L128.931 493.712C97.2359 515.128 65.5156 536.505 33.7705 557.843C17.8891 568.528 2.01117 579.215 -13.8632 589.903L-37.6481 605.936L-49.5298 613.952C-52.8684 616.206 -56.4409 619.508 -60.1623 621.07L-58.5674 623.824C10.8416 589.65 80.2505 555.47 149.659 521.285C182.62 505.098 216.235 490.081 253.576 489.353C289.546 488.651 325.197 496.205 360.927 488.821C392.233 482.287 421.121 467.219 444.392 445.284C467.38 423.595 484.472 396.723 502.632 371.095C521.356 344.675 542.121 320.344 568.341 301.058C592.95 282.952 620.616 269.582 649.095 258.764C707.164 236.698 768.407 225.614 827.88 208.263C833.59 206.599 839.268 204.845 844.892 202.947C845.284 202.822 845.612 202.549 845.808 202.188C846.004 201.826 846.052 201.402 845.943 201.006C845.834 200.609 845.576 200.27 845.222 200.059C844.869 199.848 844.448 199.782 844.047 199.875C797.067 208.003 750.024 215.748 703.081 224.094C683.326 227.608 663.566 231.106 643.773 234.407C633.523 236.119 622.832 238.814 612.407 238.66C601.775 238.479 591.424 235.47 581.36 232.28C572.896 229.598 564.301 227.345 555.609 225.529C548.453 224.014 541.175 222.286 533.812 223.158C519.458 224.865 506.385 234.184 499.022 246.49C489.426 262.533 488.889 282.324 484.254 300.016C480.15 315.666 472.234 329.487 460.331 340.491C438.071 361.048 406.009 369.963 376.164 367.188C341.608 363.998 310.024 345.302 284.724 322.486C256.447 296.97 233.991 265.399 215.012 232.578C177.458 167.634 148.203 87.4537 178.144 13.6848C181.606 5.2113 185.849 -2.92172 190.818 -10.609L187.841 -11.4117C190.605 43.0339 203.221 96.7353 224.432 146.933C245.676 197.221 275.303 243.537 312.05 283.909C332.642 306.478 355.428 326.944 380.071 345.004L381.299 342.086C313.533 329.248 253.598 291.016 205.99 242.056C153.652 188.233 117.055 121.816 87.6613 53.2777C70.2293 12.6429 55.1471 -28.9489 39.9905 -70.4715C39.2941 -72.3852 36.2106 -71.5347 36.9177 -69.6209C64.0306 4.65833 91.0691 79.6871 131.361 148.066C167.214 208.922 214.38 264.139 274.368 302.296C306.797 322.917 342.655 338.003 380.454 345.164C380.827 345.265 381.224 345.228 381.571 345.059C381.918 344.89 382.193 344.601 382.343 344.245C382.493 343.889 382.508 343.49 382.387 343.124C382.265 342.757 382.015 342.447 381.682 342.251C337.935 310.18 300.178 270.22 270.131 225.088C240.302 180.335 218.218 130.882 204.805 78.7994C197.222 49.2511 192.618 19.0173 191.062 -11.4489C191.063 -11.7995 190.948 -12.1405 190.736 -12.4193C190.523 -12.6981 190.224 -12.899 189.886 -12.991C189.548 -13.083 189.188 -13.061 188.864 -12.9283C188.539 -12.7956 188.268 -12.5596 188.091 -12.2569C168.304 18.4957 160.919 55.6539 163.051 91.8659C165.326 130.481 178.245 167.665 195.172 202.166C212.609 237.708 233.848 272.065 260.03 301.86C282.667 327.611 310.141 350.363 342.581 362.435C371.629 373.242 403.574 373.774 432.372 361.803C445.631 356.295 457.938 348.242 467.683 337.637C478.347 326.037 484.817 312.12 488.363 296.832C492.722 278.05 493.531 256.043 507.039 241.015C512.652 234.667 519.921 230.008 528.033 227.56C536.422 225.136 544.349 226.449 552.711 228.155C561.832 229.984 570.85 232.291 579.728 235.066C589.037 238.016 598.452 240.828 608.229 241.636C618.191 242.455 627.995 240.244 637.771 238.633C648.17 236.925 658.558 235.165 668.935 233.354C725.741 223.499 782.549 213.689 839.358 203.925L844.903 202.963L844.058 199.891C817.402 208.864 789.864 215.206 762.607 222.058C731.332 229.92 699.993 237.825 669.403 248.106C640.631 257.781 612.237 269.428 586.251 285.243C560.355 301.004 537.392 321.14 518.384 344.755C498.182 369.835 481.766 397.744 461.187 422.542C439.73 448.404 413.25 468.865 381.267 479.912C365.111 485.491 348.204 488.594 331.119 489.113C312.693 489.688 294.331 487.683 275.958 486.679C257.585 485.674 239.392 485.935 221.413 489.868C204.603 493.536 188.452 499.761 172.796 506.794C138.134 522.349 104.349 540.066 70.2719 556.849L-34.4051 608.413L-60.1676 621.102C-62.0496 622.027 -60.4015 624.637 -58.5728 623.856C-54.8514 622.293 -51.2842 618.997 -47.9403 616.738L-36.0213 608.711L-12.2364 592.678C3.63798 581.99 19.5159 571.303 35.3973 560.618C67.1353 539.258 98.8557 517.881 130.558 496.487C130.891 496.291 131.142 495.981 131.263 495.614C131.385 495.247 131.369 494.849 131.219 494.493C131.069 494.137 130.795 493.847 130.447 493.678C130.1 493.509 129.703 493.472 129.33 493.573C100.659 498.842 71.1167 496.677 43.5206 487.285V490.363C98.3387 482.937 152.137 469.317 203.885 449.765C205.283 449.234 205.517 447.107 203.885 446.693C151.345 432.759 97.2679 413.734 59.7085 372.456C50.0069 361.85 41.8819 349.903 35.5833 336.983L33.7812 339.327C66.5346 349.837 101.149 350.772 135.077 354.413C152.286 356.258 169.51 358.831 186.086 363.934C194.203 366.393 202.085 369.57 209.637 373.429C217.139 377.293 231.312 383.72 224.778 394.235C218.999 403.538 205.863 401.055 196.969 399.227C188.758 397.529 180.693 395.188 172.849 392.226C157.485 386.437 143.035 378.325 129.787 368.681C101.765 348.306 79.4212 321.189 62.0742 291.372C40.4956 254.299 26.3491 213.542 13.7496 172.716L11.405 174.512C52.3325 194.512 91.5152 217.901 128.543 244.433C138.113 251.301 147.538 258.376 156.82 265.659C165.071 272.145 174.098 278.486 181.233 286.226C187.793 293.35 195.48 307.49 182.902 313.295C173.827 317.489 161.456 314.332 152.599 311.036C133.301 303.859 117.746 288.48 105.731 272.192C92.8181 254.682 82.5844 235.156 74.3282 215.062C57.9223 175.193 49.0919 132.666 40.8889 90.4785C35.7268 63.9308 30.7455 37.2396 29.0656 10.2082C28.198 -2.67146 28.2797 -15.5975 29.3101 -28.4651C29.9049 -35.5558 30.8899 -42.6082 32.2607 -49.5905C32.9092 -52.8864 33.6501 -56.1628 34.4829 -59.4197C34.887 -60.9772 36.0246 -68.6906 38.1298 -68.8076C40.2351 -68.9245 40.1872 -72.1088 38.1298 -71.9971L38.0926 -71.9812Z" fill="#A2CAE5"/>
</g>
<defs>
<clipPath id="clip0_652_7658">
<rect width="186" height="552" fill="white"/>
</clipPath>
</defs>
</svg>
