<svg width="1216" height="914" viewBox="0 0 1216 914" fill="none" xmlns="http://www.w3.org/2000/svg">
<path opacity="0.3" d="M132.852 0.0247291C128.668 0.24812 127.421 3.3616 126.259 6.88698C123.599 15.3353 121.518 23.948 120.03 32.6677C117.161 48.7591 115.692 65.0599 115.639 81.3947C115.368 115.099 120.144 148.656 126.145 181.774C137.449 244.093 149.616 307.473 172.687 366.804C183.784 395.356 197.633 423.001 215.451 448.153C231.182 470.408 251.088 491.435 276.298 503.352C292.285 510.898 334.95 523.094 340.131 496.098C342.355 484.524 333.624 473.18 325.826 465.494C314.508 454.324 300.881 444.851 288.172 435.231C229.339 390.691 166.033 352.128 99.2318 320.136C97.6495 319.382 95.5043 320.646 96.0887 322.503C126.195 418.058 165.495 517.39 249.834 579.605C268.433 593.449 288.9 604.702 310.652 613.043C321.715 617.244 333.116 620.536 344.735 622.887C355.548 625.065 368.37 627.543 378.598 622.014C386.16 617.93 391.919 608.911 388.99 600.373C385.732 590.872 373.373 585.58 365.02 581.364C343.638 570.557 320.253 564.274 296.597 560.288C240.661 550.864 182.708 553.307 128.205 536.155C126.295 535.555 125.026 537.691 125.789 539.234C157.427 603.144 221.952 642.112 288.03 665.519C309.661 673.198 331.764 679.481 353.987 685.227V681.192C284.602 706.845 212.47 724.707 138.974 734.435C136.701 734.735 137.2 737.884 138.974 738.477C176.715 751.002 217.104 753.842 256.284 746.729L254.638 742.903C212.144 771.027 169.617 799.1 127.057 827.121C105.765 841.153 84.478 855.187 63.1956 869.224L31.3076 890.278L15.3779 900.805C10.9019 903.765 6.11226 908.1 1.12308 910.153L3.2613 913.769C96.3168 868.891 189.372 824.006 282.428 779.113C326.618 757.856 371.684 738.135 421.747 737.179C469.971 736.257 517.768 746.177 565.671 736.481C607.642 727.9 646.371 708.112 677.571 679.307C708.39 650.824 731.305 615.536 755.652 581.88C780.755 547.185 808.595 515.233 843.747 489.906C876.74 466.129 913.831 448.572 952.012 434.366C1029.87 405.388 1111.97 390.833 1191.71 368.047C1199.36 365.862 1206.97 363.558 1214.51 361.066C1215.04 360.901 1215.48 360.543 1215.74 360.068C1216 359.593 1216.07 359.037 1215.92 358.516C1215.78 357.995 1215.43 357.55 1214.96 357.273C1214.48 356.996 1213.92 356.91 1213.38 357.031C1150.4 367.705 1087.33 377.876 1024.39 388.836C997.906 393.45 971.413 398.044 944.878 402.379C931.136 404.627 916.803 408.166 902.826 407.964C888.571 407.726 874.694 403.775 861.202 399.587C849.853 396.064 838.33 393.105 826.677 390.721C817.083 388.731 807.326 386.462 797.455 387.607C778.211 389.848 760.684 402.086 750.813 418.247C737.948 439.315 737.228 465.305 731.013 488.538C725.51 509.09 714.898 527.24 698.939 541.691C669.097 568.686 626.112 580.393 586.098 576.749C539.77 572.561 497.426 548.009 463.507 518.047C425.596 484.538 395.49 443.078 370.045 399.978C319.697 314.691 280.475 209.398 320.616 112.523C325.258 101.395 330.946 90.7149 337.608 80.6198L333.617 79.5657C337.323 151.065 354.236 221.586 382.675 287.507C411.156 353.545 450.876 414.369 500.142 467.386C527.75 497.024 558.299 523.9 591.337 547.618L592.983 543.785C502.13 526.926 421.776 476.719 357.95 412.425C287.78 341.742 238.715 254.522 199.308 164.517C175.937 111.155 155.717 56.5355 135.396 2.0073C134.463 -0.505847 130.329 0.611089 131.277 3.12423C167.626 100.669 203.877 199.198 257.895 288.994C305.962 368.912 369.197 441.424 449.623 491.533C493.1 518.612 541.174 538.424 591.85 547.827C592.35 547.961 592.882 547.912 593.348 547.69C593.813 547.468 594.181 547.088 594.382 546.62C594.583 546.153 594.605 545.629 594.442 545.148C594.279 544.666 593.943 544.259 593.496 544.002C534.845 501.886 484.226 449.41 443.942 390.141C403.95 331.371 374.343 266.428 356.36 198.033C346.193 159.229 340.021 119.526 337.936 79.5169C337.937 79.0564 337.783 78.6085 337.498 78.2425C337.213 77.8764 336.812 77.6125 336.359 77.4917C335.905 77.3709 335.423 77.3998 334.988 77.5741C334.553 77.7484 334.189 78.0582 333.952 78.4558C307.424 118.841 297.524 167.637 300.382 215.192C303.432 265.901 320.752 314.733 343.445 360.04C366.823 406.714 395.297 451.832 430.4 490.96C460.748 524.776 497.583 554.655 541.074 570.508C580.018 584.701 622.847 585.399 661.456 569.678C679.232 562.445 695.732 551.869 708.797 537.942C723.094 522.71 731.768 504.434 736.522 484.356C742.367 459.693 743.45 430.792 761.561 411.056C769.086 402.721 778.832 396.603 789.707 393.388C800.954 390.204 811.581 391.929 822.792 394.169C835.02 396.571 847.111 399.6 859.014 403.245C871.494 407.119 884.117 410.812 897.224 411.873C910.581 412.948 923.724 410.044 936.831 407.929C950.772 405.686 964.699 403.375 978.612 400.997C1054.77 388.054 1130.93 375.172 1207.1 362.35L1214.53 361.087L1213.4 357.052C1177.66 368.836 1140.74 377.164 1104.2 386.162C1062.27 396.487 1020.25 406.868 979.239 420.369C940.666 433.074 902.598 448.37 867.759 469.138C833.041 489.835 802.255 516.278 776.771 547.29C749.687 580.226 727.677 616.876 700.087 649.442C671.321 683.404 635.819 710.274 592.94 724.781C571.28 732.108 548.613 736.182 525.708 736.865C501.004 737.619 476.386 734.987 451.754 733.667C427.121 732.348 402.731 732.69 378.626 737.856C356.089 742.673 334.436 750.847 313.446 760.083C266.975 780.51 221.681 803.777 175.994 825.816L35.6554 893.531L1.11594 910.195C-1.40716 911.409 0.802334 914.837 3.25416 913.811C8.24335 911.758 13.0258 907.43 17.509 904.463L33.4886 893.922L65.3766 872.868C86.6591 858.831 107.946 844.797 129.238 830.765C171.789 802.716 214.316 774.643 256.819 746.547C257.265 746.29 257.601 745.883 257.764 745.401C257.927 744.919 257.906 744.396 257.705 743.929C257.503 743.461 257.136 743.081 256.67 742.859C256.204 742.637 255.672 742.588 255.173 742.722C216.734 749.641 177.127 746.798 140.129 734.463V738.505C213.623 728.753 285.75 710.868 355.127 685.192C357.002 684.493 357.315 681.701 355.127 681.157C284.687 662.859 212.187 637.875 161.832 583.668C148.825 569.739 137.932 554.051 129.488 537.084L127.072 540.162C170.984 553.964 217.39 555.192 262.877 559.974C285.949 562.396 309.041 565.775 331.265 572.477C342.147 575.706 352.714 579.878 362.839 584.945C372.896 590.02 391.898 598.46 383.138 612.269C375.391 624.485 357.779 621.225 345.855 618.824C334.846 616.594 324.034 613.52 313.517 609.63C292.919 602.027 273.547 591.374 255.785 578.711C218.217 551.953 188.26 516.343 165.004 477.187C136.073 428.502 117.107 374.979 100.216 321.365L97.0722 323.725C151.943 349.989 204.475 380.703 254.118 415.545C266.947 424.565 279.584 433.856 292.028 443.42C303.09 451.937 315.192 460.265 324.757 470.43C333.553 479.784 343.859 498.353 326.995 505.976C314.829 511.484 298.243 507.338 286.369 503.01C260.497 493.585 239.642 473.389 223.534 452C206.221 429.004 192.501 403.363 181.432 376.975C159.437 324.618 147.598 268.771 136.601 213.37C129.68 178.507 123.002 143.455 120.749 107.957C119.586 91.0435 119.696 74.0688 121.077 57.1708C121.875 47.8593 123.195 38.5978 125.033 29.4285C125.903 25.1003 126.896 20.7977 128.012 16.5207C128.554 14.4753 130.079 4.34592 132.902 4.19234C135.724 4.03876 135.66 -0.142834 132.902 0.00376573L132.852 0.0247291Z" fill="#A2CAE5"/>
</svg>
