<svg width="1707" height="1310" viewBox="0 0 1707 1310" fill="none" xmlns="http://www.w3.org/2000/svg">
<path d="M186.396 0.0354236C180.526 0.355424 178.776 4.81538 177.146 9.86538C173.414 21.9673 170.494 34.3048 168.406 46.7954C164.38 69.8458 162.32 93.1963 162.246 116.595C161.866 164.875 168.566 212.945 176.986 260.385C192.846 349.655 209.916 440.445 242.286 525.435C257.856 566.335 277.286 605.935 302.286 641.965C324.356 673.845 352.286 703.965 387.656 721.035C410.086 731.845 469.946 749.315 477.216 710.645C480.336 694.065 468.086 677.815 457.146 666.805C441.266 650.805 422.146 637.235 404.316 623.455C321.771 559.653 232.95 504.412 139.226 458.585C137.006 457.505 133.996 459.315 134.816 461.975C177.056 598.855 232.196 741.145 350.526 830.265C376.62 850.096 405.337 866.216 435.856 878.165C451.378 884.182 467.372 888.898 483.676 892.265C498.846 895.385 516.836 898.935 531.186 891.015C541.796 885.165 549.876 872.245 545.766 860.015C541.196 846.405 523.855 838.825 512.135 832.785C482.135 817.305 449.326 808.305 416.136 802.595C337.656 789.095 256.346 792.595 179.876 768.025C177.196 767.165 175.416 770.225 176.486 772.435C220.876 863.985 311.406 919.805 404.116 953.335C434.466 964.335 465.476 973.335 496.656 981.565V975.785C399.306 1012.53 298.103 1038.12 194.986 1052.06C191.796 1052.49 192.496 1057 194.986 1057.85C247.937 1075.79 304.604 1079.86 359.576 1069.67L357.266 1064.19C297.646 1104.47 237.979 1144.69 178.266 1184.83C148.392 1204.93 118.526 1225.03 88.6656 1245.14L43.9256 1275.3L21.5757 1290.38C15.2957 1294.62 8.57571 1300.83 1.57571 1303.77L4.57571 1308.95C135.136 1244.66 265.696 1180.36 396.256 1116.06C458.256 1085.61 521.486 1057.36 591.726 1055.99C659.386 1054.67 726.445 1068.88 793.656 1054.99C852.543 1042.69 906.881 1014.35 950.656 973.085C993.896 932.285 1026.05 881.735 1060.21 833.525C1095.43 783.825 1134.49 738.055 1183.81 701.775C1230.1 667.715 1282.14 642.565 1335.71 622.215C1444.94 580.705 1560.14 559.855 1672.01 527.215C1682.75 524.085 1693.43 520.785 1704.01 517.215C1704.74 516.979 1705.36 516.467 1705.73 515.786C1706.1 515.106 1706.19 514.309 1705.98 513.563C1705.78 512.817 1705.29 512.179 1704.63 511.783C1703.96 511.386 1703.17 511.262 1702.42 511.435C1614.05 526.725 1525.56 541.295 1437.26 556.995C1400.1 563.605 1362.93 570.185 1325.7 576.395C1306.42 579.615 1286.31 584.685 1266.7 584.395C1246.7 584.055 1227.23 578.395 1208.3 572.395C1192.37 567.349 1176.21 563.111 1159.86 559.695C1146.4 556.845 1132.71 553.595 1118.86 555.235C1091.86 558.445 1067.27 575.975 1053.42 599.125C1035.37 629.305 1034.36 666.535 1025.64 699.815C1017.92 729.255 1003.03 755.255 980.635 775.955C938.766 814.625 878.456 831.395 822.316 826.175C757.316 820.175 697.906 785.005 650.316 742.085C597.126 694.085 554.886 634.695 519.186 572.955C448.546 450.785 393.516 299.955 449.836 161.185C456.348 145.246 464.328 129.946 473.676 115.485L468.076 113.975C473.276 216.395 497.006 317.415 536.906 411.845C576.866 506.443 632.594 593.57 701.716 669.515C740.451 711.971 783.312 750.471 829.666 784.445L831.976 778.955C704.506 754.805 591.766 682.885 502.216 590.785C403.766 489.535 334.926 364.595 279.636 235.665C246.846 159.225 218.476 80.9854 189.966 2.87539C188.656 -0.724611 182.856 0.875365 184.186 4.47537C235.186 144.205 286.046 285.345 361.836 413.975C429.276 528.455 517.996 632.325 630.836 704.105C691.836 742.895 759.286 771.275 830.385 784.745C831.087 784.936 831.833 784.866 832.487 784.548C833.14 784.23 833.656 783.686 833.938 783.016C834.221 782.346 834.25 781.597 834.022 780.907C833.793 780.217 833.322 779.634 832.696 779.265C750.406 718.935 679.385 643.765 622.865 558.865C566.756 474.679 525.216 381.65 499.986 283.675C485.721 228.091 477.061 171.217 474.136 113.905C474.137 113.246 473.921 112.604 473.521 112.08C473.121 111.555 472.559 111.177 471.923 111.004C471.286 110.831 470.611 110.873 470 111.122C469.39 111.372 468.879 111.816 468.546 112.385C431.326 170.235 417.436 240.135 421.446 308.255C425.726 380.895 450.026 450.845 481.866 515.745C514.666 582.605 554.615 647.235 603.865 703.285C646.445 751.725 698.125 794.525 759.146 817.235C813.786 837.565 873.876 838.565 928.046 816.045C952.986 805.685 976.136 790.535 994.466 770.585C1014.53 748.765 1026.7 722.585 1033.37 693.825C1041.57 658.495 1043.09 617.095 1068.5 588.825C1079.05 576.885 1092.73 568.121 1107.99 563.515C1123.77 558.955 1138.68 561.425 1154.41 564.635C1171.56 568.075 1188.53 572.415 1205.23 577.635C1222.74 583.185 1240.45 588.475 1258.84 589.995C1277.58 591.535 1296.02 587.375 1314.41 584.345C1333.97 581.132 1353.51 577.822 1373.03 574.415C1479.88 555.875 1586.74 537.422 1693.6 519.055L1704.03 517.245L1702.44 511.465C1652.3 528.345 1600.5 540.275 1549.23 553.165C1490.4 567.955 1431.45 582.825 1373.91 602.165C1319.79 620.365 1266.38 642.275 1217.5 672.025C1168.78 701.674 1125.59 739.553 1089.84 783.975C1051.84 831.155 1020.96 883.655 982.246 930.305C941.886 978.955 892.076 1017.45 831.916 1038.23C801.526 1048.72 769.722 1054.56 737.586 1055.54C702.926 1056.62 668.386 1052.85 633.826 1050.96C599.266 1049.07 565.046 1049.56 531.226 1056.96C499.606 1063.86 469.226 1075.57 439.776 1088.8C374.576 1118.06 311.026 1151.39 246.926 1182.96L50.0257 1279.96L1.5657 1303.83C-1.9743 1305.57 1.1257 1310.48 4.5657 1309.01C11.5657 1306.07 18.2757 1299.87 24.5657 1295.62L46.9856 1280.52L91.7256 1250.36C121.586 1230.25 151.452 1210.15 181.326 1190.05C241.026 1149.87 300.692 1109.65 360.326 1069.41C360.952 1069.04 361.423 1068.45 361.652 1067.76C361.88 1067.07 361.851 1066.32 361.568 1065.65C361.286 1064.99 360.77 1064.44 360.117 1064.12C359.464 1063.8 358.717 1063.73 358.016 1063.93C304.085 1073.84 248.515 1069.76 196.606 1052.1V1057.89C299.72 1043.92 400.917 1018.3 498.256 981.515C500.886 980.515 501.326 976.515 498.256 975.735C399.426 949.525 297.706 913.735 227.056 836.085C208.807 816.134 193.523 793.66 181.676 769.355L178.286 773.765C239.896 793.535 305.006 795.295 368.826 802.145C401.196 805.615 433.596 810.455 464.776 820.055C480.044 824.68 494.869 830.657 509.076 837.915C523.186 845.185 549.846 857.275 537.556 877.055C526.686 894.555 501.976 889.885 485.246 886.445C469.8 883.252 454.63 878.849 439.876 873.275C410.976 862.385 383.796 847.125 358.876 828.985C306.166 790.655 264.136 739.645 231.506 683.555C190.916 613.815 164.306 537.145 140.606 460.345L136.196 463.725C213.181 501.348 286.885 545.345 356.536 595.255C374.536 608.175 392.266 621.485 409.726 635.185C425.246 647.385 442.226 659.315 455.646 673.875C467.986 687.276 482.446 713.875 458.786 724.795C441.716 732.685 418.446 726.745 401.786 720.545C365.486 707.045 336.226 678.115 313.626 647.475C289.336 614.535 270.086 577.805 254.556 540.005C223.696 465.005 207.086 385.005 191.656 305.645C181.946 255.705 172.576 205.495 169.416 154.645C167.784 130.417 167.937 106.101 169.876 81.8954C170.994 68.5569 172.847 55.2901 175.426 42.1554C176.646 35.9554 178.039 29.7921 179.606 23.6654C180.366 20.7354 182.506 6.22539 186.466 6.00539C190.426 5.78539 190.336 -0.204606 186.466 0.00539429L186.396 0.0354236Z" fill="white" fill-opacity="0.6"/>
</svg>
