<svg width="537" height="552" viewBox="0 0 537 552" fill="none" xmlns="http://www.w3.org/2000/svg">
<mask id="mask0_237_695" style="mask-type:alpha" maskUnits="userSpaceOnUse" x="0" y="0" width="537" height="552">
<rect width="537" height="552" fill="#D9D9D9"/>
</mask>
<g mask="url(#mask0_237_695)">
<path d="M131.639 30.0189C128.501 30.19 127.566 32.5745 126.694 35.2745C124.7 41.7447 123.139 48.3409 122.022 55.019C119.871 67.3428 118.769 79.8271 118.729 92.3373C118.526 118.15 122.108 143.851 126.609 169.214C135.087 216.942 144.212 265.483 161.515 310.922C169.838 332.789 180.225 353.961 193.589 373.224C205.386 390.269 220.316 406.373 239.224 415.499C251.214 421.279 283.212 430.619 287.098 409.944C288.766 401.08 282.218 392.392 276.37 386.505C267.881 377.951 257.66 370.696 248.129 363.328C204.005 329.216 156.525 299.682 106.424 275.181C105.237 274.604 103.628 275.571 104.067 276.993C126.646 350.176 156.122 426.251 219.376 473.898C233.325 484.501 248.675 493.119 264.989 499.508C273.287 502.725 281.837 505.246 290.552 507.047C298.661 508.715 308.277 510.613 315.948 506.378C321.62 503.251 325.939 496.343 323.742 489.804C321.299 482.528 312.03 478.475 305.765 475.246C289.728 466.969 272.19 462.158 254.448 459.105C212.496 451.887 169.031 453.758 128.154 440.622C126.721 440.162 125.769 441.798 126.341 442.98C150.07 491.927 198.464 521.771 248.022 539.697C264.246 545.579 280.823 550.39 297.49 554.79V551.7C245.451 571.347 191.353 585.027 136.231 592.478C134.525 592.708 134.9 595.119 136.231 595.573C164.536 605.165 194.828 607.341 224.213 601.893L222.978 598.963C191.108 620.502 159.213 642.002 127.293 663.463C111.324 674.209 95.3585 684.957 79.3967 695.707L55.4807 711.832L43.5334 719.895C40.1764 722.162 36.5842 725.482 32.8423 727.054L34.446 729.823C104.238 695.452 174.029 661.076 243.821 626.695C276.963 610.415 310.763 595.311 348.31 594.579C384.478 593.873 420.326 601.47 456.253 594.044C487.732 587.473 516.779 572.318 540.179 550.257C563.293 528.443 580.479 501.417 598.739 475.641C617.566 449.069 638.446 424.599 664.81 405.202C689.555 386.992 717.373 373.545 746.009 362.665C804.399 340.472 865.98 329.325 925.78 311.874C931.522 310.2 937.231 308.436 942.886 306.527C943.28 306.401 943.61 306.127 943.807 305.763C944.004 305.399 944.052 304.974 943.943 304.575C943.833 304.176 943.573 303.835 943.218 303.623C942.863 303.411 942.439 303.344 942.036 303.437C894.798 311.612 847.495 319.402 800.293 327.796C780.429 331.33 760.56 334.848 740.658 338.168C730.352 339.889 719.602 342.6 709.12 342.445C698.428 342.263 688.021 339.237 677.902 336.029C669.39 333.331 660.748 331.065 652.008 329.239C644.813 327.715 637.495 325.978 630.091 326.855C615.658 328.571 602.513 337.943 595.109 350.32C585.461 366.456 584.921 386.361 580.26 404.154C576.133 419.894 568.173 433.795 556.205 444.862C533.823 465.537 501.584 474.503 471.574 471.712C436.828 468.504 405.07 449.7 379.63 426.753C351.197 401.09 328.617 369.338 309.534 336.329C271.773 271.011 242.356 190.37 272.462 116.177C275.943 107.655 280.21 99.4753 285.206 91.7438L282.213 90.9365C284.992 145.695 297.677 199.705 319.006 250.192C340.367 300.768 370.157 347.35 407.106 387.954C427.812 410.653 450.724 431.237 475.503 449.401L476.737 446.466C408.598 433.554 348.332 395.102 300.462 345.861C247.835 291.728 211.036 224.93 181.481 155.998C163.953 115.129 148.787 73.2985 133.547 31.5373C132.847 29.6126 129.747 30.468 130.457 32.3927C157.72 107.099 184.907 182.559 225.421 251.33C261.472 312.537 308.898 368.071 369.217 406.447C401.825 427.186 437.881 442.36 475.887 449.561C476.262 449.663 476.661 449.626 477.011 449.456C477.36 449.286 477.636 448.995 477.787 448.637C477.938 448.279 477.953 447.878 477.831 447.509C477.709 447.14 477.457 446.829 477.122 446.631C433.134 414.376 395.17 374.187 364.956 328.795C334.963 283.786 312.757 234.048 299.27 181.666C291.645 151.948 287.016 121.54 285.452 90.8991C285.453 90.5465 285.337 90.2035 285.123 89.9231C284.91 89.6427 284.609 89.4406 284.269 89.3481C283.929 89.2556 283.568 89.2778 283.241 89.4112C282.915 89.5447 282.642 89.782 282.464 90.0865C262.568 121.016 255.143 158.388 257.286 194.808C259.574 233.644 272.564 271.043 289.584 305.741C307.117 341.488 328.473 376.042 354.8 406.009C377.561 431.907 405.187 454.79 437.806 466.932C467.014 477.801 499.135 478.336 528.092 466.296C541.424 460.757 553.799 452.657 563.597 441.991C574.321 430.325 580.826 416.328 584.392 400.951C588.775 382.062 589.588 359.928 603.171 344.813C608.814 338.43 616.124 333.744 624.28 331.281C632.716 328.844 640.686 330.164 649.094 331.88C658.265 333.719 667.333 336.039 676.26 338.831C685.621 341.798 695.088 344.626 704.918 345.439C714.936 346.262 724.793 344.038 734.623 342.418C745.079 340.7 755.524 338.931 765.959 337.109C823.078 327.197 880.199 317.331 937.322 307.511L942.897 306.543L942.047 303.453C915.244 312.478 887.554 318.856 860.148 325.748C828.7 333.655 797.188 341.606 766.429 351.946C737.499 361.676 708.949 373.39 682.819 389.296C656.781 405.147 633.691 425.399 614.578 449.15C594.265 474.374 577.758 502.443 557.065 527.384C535.491 553.395 508.864 573.974 476.705 585.083C460.46 590.695 443.46 593.816 426.281 594.338C407.753 594.916 389.29 592.9 370.815 591.89C352.341 590.879 334.048 591.141 315.97 595.097C299.067 598.786 282.827 605.047 267.085 612.121C232.232 627.764 198.261 645.584 163.996 662.463L58.7415 714.324L32.837 727.086C30.9446 728.016 32.6018 730.641 34.4406 729.855C38.1825 728.283 41.7694 724.968 45.1317 722.696L57.1164 714.623L81.0325 698.498C96.9943 687.748 112.96 677 128.929 666.254C160.842 644.771 192.737 623.271 224.614 601.754C224.949 601.557 225.201 601.245 225.323 600.876C225.445 600.507 225.429 600.107 225.279 599.749C225.128 599.391 224.852 599.099 224.503 598.929C224.153 598.759 223.754 598.722 223.379 598.824C194.551 604.123 164.845 601.946 137.097 592.499V595.595C192.217 588.126 246.312 574.428 298.345 554.764C299.751 554.229 299.987 552.09 298.345 551.673C245.515 537.66 191.14 518.525 153.374 477.01C143.619 466.343 135.449 454.328 129.116 441.333L127.304 443.691C160.238 454.261 195.043 455.202 229.158 458.864C246.462 460.719 263.781 463.307 280.449 468.44C288.61 470.912 296.535 474.108 304.129 477.988C311.672 481.875 325.923 488.339 319.354 498.915C313.543 508.271 300.334 505.774 291.391 503.935C283.135 502.228 275.025 499.873 267.138 496.894C251.689 491.071 237.16 482.913 223.839 473.214C195.663 452.721 173.195 425.449 155.753 395.46C134.055 358.174 119.831 317.183 107.162 276.122L104.804 277.929C145.957 298.044 185.356 321.567 222.588 348.251C232.21 355.159 241.688 362.275 251.021 369.6C259.318 376.122 268.394 382.501 275.568 390.285C282.164 397.449 289.894 411.671 277.247 417.509C268.122 421.728 255.683 418.552 246.777 415.237C227.373 408.019 211.731 392.552 199.65 376.17C186.666 358.559 176.376 338.922 168.074 318.712C151.578 278.613 142.699 235.842 134.451 193.412C129.26 166.712 124.251 139.867 122.562 112.681C121.69 99.727 121.772 86.7267 122.808 73.7851C123.406 66.6537 124.397 59.5607 125.775 52.5382C126.427 49.2234 127.172 45.9282 128.009 42.6526C128.416 41.0861 129.559 33.3284 131.676 33.2108C133.793 33.0931 133.745 29.8906 131.676 30.0029L131.639 30.0189Z" fill="#A2CAE5"/>
</g>
</svg>
