<svg width="338" height="256" viewBox="0 0 338 256" fill="none" xmlns="http://www.w3.org/2000/svg">
<path opacity="0.3" d="M157.291 74.3812C155.247 74.9692 154.776 72.9113 154.07 71.4414C153.216 69.7216 152.319 68.0461 151.363 66.3851C149.448 63.0848 147.321 59.9129 144.993 56.8896C140.329 50.8044 134.945 45.3059 128.957 40.5148C116.931 30.8414 102.835 24.0665 87.765 20.7153C72.3179 17.3492 55.3997 17.5846 40.497 23.082C32.0128 26.0859 24.5652 31.4512 19.0328 38.5453C13.833 45.6225 9.7727 53.4683 6.99888 61.7988C-4.47608 93.7838 -1.10717 129.723 11.7654 160.752C25.0057 192.723 48.3087 218.975 76.2458 239.068C90.4396 249.174 105.58 257.882 121.454 265.071C129.3 268.657 137.274 271.95 145.375 274.949C154.084 278.168 163.029 281.578 172.18 283.21C180.842 284.86 189.799 283.914 197.925 280.49C205.532 277.066 212.498 272.368 218.521 266.6C224.853 260.575 230.868 254.226 236.542 247.579C243.015 240.23 249.474 232.998 255.8 225.531C268.554 210.881 280.408 195.472 291.298 179.391C302.163 162.989 311.326 145.525 318.647 127.268C322.369 118.037 325.664 108.63 328.621 99.1344C331.798 89.4672 334.401 79.6214 336.419 69.6482C339.921 52.1538 337.569 33.9941 329.725 17.9668C322.15 2.66082 309.487 -9.53971 293.902 -16.5467C278.392 -23.5175 260.941 -24.889 244.531 -20.4271C208.693 -10.1378 188.112 23.8756 171.326 54.5376C169.061 58.668 166.81 62.7983 164.515 66.914C163.308 69.0601 162.102 71.221 160.866 73.3524C160.513 73.955 160.219 74.8223 159.631 75.2486C159.454 75.3662 159.233 75.3513 159.042 75.4542H158.733C159.094 75.6724 159.385 75.9887 159.573 76.3661C159.76 76.7435 159.837 77.1664 159.792 77.5855C160.004 77.2067 160.1 76.7744 160.069 76.3417C160.037 75.909 159.879 75.495 159.615 75.151C159.35 74.8069 158.991 74.5476 158.58 74.4056C158.17 74.2636 157.727 74.245 157.306 74.3518C154.643 75.2925 155.835 79.5554 158.468 78.6L155.982 75.3659C155.751 75.6661 155.585 76.0109 155.494 76.3786C155.403 76.7464 155.39 77.1291 155.455 77.5022C155.52 77.8754 155.662 78.2311 155.872 78.5465C156.081 78.862 156.354 79.1305 156.674 79.3349C157.285 79.6502 157.956 79.8327 158.643 79.8707C159.33 79.9087 160.018 79.8012 160.66 79.5553C162.098 79.0746 163.294 78.0585 164 76.7185C165.339 74.5136 166.574 72.3087 167.825 70.001C172.591 61.4903 177.167 52.8768 182.021 44.4102C190.951 28.844 200.999 13.7334 214.504 1.70964C226.995 -9.37338 242.456 -17.399 259.316 -18.4426C276.107 -19.4421 292.698 -14.3823 306.069 -4.18466C319.177 6.18501 328.297 20.7603 331.887 37.0754C333.802 45.6726 334.18 54.5399 333.005 63.2687C331.441 73.2889 329.08 83.1687 325.944 92.8138C320.522 111.541 313.483 129.763 304.906 147.274C296.2 164.346 285.943 180.583 274.263 195.78C262.685 211.082 250.106 225.59 237.395 239.877C226.303 252.401 215.24 266.335 200.234 274.434C192.909 278.477 184.516 280.165 176.196 279.27C166.824 278.182 157.645 274.596 148.832 271.391C132.745 265.629 117.162 258.55 102.241 250.225C72.8181 233.659 45.749 211.199 27.8009 182.242C10.3531 154.108 1.1878 120.022 5.48355 86.9489C6.54598 78.7326 8.49424 70.6549 11.2945 62.8571C14.2368 54.8462 17.8706 46.7765 23.2991 40.1473C34.1856 26.9182 52.119 22.6996 68.64 22.8171C83.7187 23.095 98.51 26.9877 111.769 34.1679C125.028 41.3481 136.367 51.6058 144.831 64.0772C146.838 67.1229 148.656 70.2891 150.274 73.558C150.858 75.1861 151.875 76.6244 153.216 77.7179C153.991 78.2278 154.869 78.5594 155.787 78.689C156.706 78.8186 157.642 78.7431 158.527 78.4676C161.175 77.8502 160.028 73.5875 157.291 74.3812Z" fill="white"/>
</svg>
