<svg width="230" height="209" viewBox="0 0 230 209" fill="none" xmlns="http://www.w3.org/2000/svg">
<g clip-path="url(#clip0_238_699)">
<path d="M106.9 66.2099C105.51 66.6099 105.19 65.2099 104.71 64.2099C104.13 63.0399 103.52 61.8999 102.87 60.7699C101.569 58.5247 100.122 56.3668 98.5401 54.31C95.37 50.1701 91.71 46.4294 87.6401 43.1698C79.4652 36.5889 69.8841 31.9797 59.6401 29.6999C49.1401 27.4099 37.6401 27.57 27.5101 31.31C21.7431 33.3536 16.6806 37.0037 12.92 41.83C9.3855 46.6448 6.62557 51.9824 4.74009 57.6498C-3.05991 79.4098 -0.76992 103.86 7.98008 124.97C16.9801 146.72 32.82 164.58 51.81 178.25C61.4582 185.125 71.7497 191.049 82.5401 195.94C87.8735 198.38 93.2935 200.62 98.8001 202.66C104.72 204.85 110.8 207.17 117.02 208.28C122.908 209.403 128.997 208.759 134.52 206.43C139.691 204.101 144.426 200.905 148.52 196.98C152.824 192.881 156.913 188.562 160.77 184.04C165.17 179.04 169.56 174.12 173.86 169.04C182.53 159.073 190.588 148.591 197.99 137.65C205.375 126.492 211.604 114.611 216.58 102.19C219.11 95.9099 221.35 89.51 223.36 83.05C225.519 76.4732 227.289 69.7748 228.66 62.9899C231.041 51.0881 229.442 38.7337 224.11 27.83C218.961 17.417 210.353 9.11678 199.76 4.34977C189.217 -0.392599 177.355 -1.32567 166.2 1.70988C141.84 8.70988 127.85 31.8499 116.44 52.7099C114.9 55.5199 113.37 58.3298 111.81 61.1298C110.99 62.5898 110.17 64.0599 109.33 65.5099C109.09 65.9199 108.89 66.51 108.49 66.8C108.37 66.88 108.22 66.8699 108.09 66.9399H107.88C108.125 67.0883 108.323 67.3034 108.451 67.5602C108.578 67.817 108.63 68.1047 108.6 68.3898C108.744 68.1321 108.809 67.838 108.788 67.5436C108.766 67.2492 108.659 66.9676 108.479 66.7336C108.3 66.4995 108.055 66.3231 107.776 66.2265C107.497 66.1299 107.196 66.1172 106.91 66.1899C105.1 66.8299 105.91 69.73 107.7 69.08L106.01 66.8798C105.853 67.084 105.74 67.3186 105.678 67.5688C105.617 67.8189 105.608 68.0793 105.652 68.3332C105.696 68.587 105.792 68.829 105.935 69.0436C106.078 69.2582 106.263 69.4409 106.48 69.58C106.896 69.7945 107.352 69.9186 107.819 69.9445C108.286 69.9703 108.753 69.8972 109.19 69.7299C110.167 69.4029 110.98 68.7116 111.46 67.8C112.37 66.3 113.21 64.7999 114.06 63.2299C117.3 57.4399 120.41 51.58 123.71 45.82C129.78 35.23 136.61 24.9499 145.79 16.7699C154.28 9.22994 164.79 3.76998 176.25 3.05998C187.664 2.37995 198.942 5.82224 208.03 12.7599C216.94 19.8146 223.14 29.7305 225.58 40.83C226.882 46.6788 227.139 52.7114 226.34 58.6498C225.277 65.4668 223.672 72.1882 221.54 78.7499C217.855 91.4905 213.07 103.887 207.24 115.8C201.322 127.415 194.35 138.461 186.41 148.8C178.54 159.21 169.99 169.08 161.35 178.8C153.81 187.32 146.29 196.8 136.09 202.31C131.111 205.06 125.405 206.209 119.75 205.6C113.38 204.86 107.14 202.42 101.15 200.24C90.2151 196.32 79.6224 191.503 69.4801 185.84C49.4801 174.57 31.0801 159.29 18.8801 139.59C7.0201 120.45 0.790061 97.2599 3.71006 74.7599C4.43224 69.1702 5.75655 63.6748 7.66001 58.3698C9.66001 52.9198 12.13 47.4298 15.82 42.9198C23.22 33.9198 35.4101 31.0498 46.6401 31.1298C56.8897 31.3188 66.944 33.9671 75.9566 38.852C84.9693 43.7368 92.6766 50.7153 98.43 59.1999C99.7945 61.2719 101.03 63.4259 102.13 65.6498C102.527 66.7575 103.219 67.736 104.13 68.4799C104.657 68.8267 105.254 69.0523 105.878 69.1405C106.502 69.2287 107.138 69.1773 107.74 68.9899C109.54 68.5699 108.76 65.6699 106.9 66.2099Z" fill="#A2CAE5"/>
</g>
<defs>
<clipPath id="clip0_238_699">
<rect width="229.68" height="208.84" fill="white"/>
</clipPath>
</defs>
</svg>
