<svg width="48" height="48" viewBox="0 0 48 48" fill="none" xmlns="http://www.w3.org/2000/svg">
<g clip-path="url(#clip0_506_3892)">
<g clip-path="url(#clip1_506_3892)">
<path d="M38.183 35.748L28.254 31.3V30.62H29.139C30.0743 30.62 30.9996 30.4282 31.8579 30.0565C32.7161 29.6848 33.489 29.1411 34.1288 28.4589C34.7687 27.7767 35.2618 26.9706 35.5778 26.0903C35.8938 25.2101 36.0259 24.2744 35.966 23.341C35.585 17.392 35.505 15.776 35.505 15.468C35.6328 13.2933 35.0206 11.1394 33.768 9.357L35.45 6.413C35.5421 6.25174 35.5711 6.06205 35.5314 5.88065C35.4917 5.69924 35.3861 5.53902 35.235 5.431C34.982 5.25 28.981 1 23.824 1C18.667 1 12.666 5.25 12.413 5.431C12.2624 5.53931 12.157 5.69951 12.1173 5.8808C12.0777 6.06208 12.1064 6.25163 12.198 6.413L13.88 9.357C12.6275 11.1394 12.0153 13.2933 12.143 15.468C12.143 15.726 12.083 17.091 11.683 23.341C11.623 24.2743 11.755 25.21 12.0709 26.0903C12.3868 26.9705 12.8798 27.7767 13.5196 28.4589C14.1593 29.1411 14.9321 29.6848 15.7903 30.0565C16.6485 30.4282 17.5738 30.62 18.509 30.62H19.409V31.305L9.76704 35.736C8.76759 36.1974 7.92096 36.9351 7.32704 37.8619C6.73311 38.7888 6.41667 39.8662 6.41504 40.967V48.25C6.41504 48.4489 6.49406 48.6397 6.63471 48.7803C6.77536 48.921 6.96613 49 7.16504 49C7.36395 49 7.55472 48.921 7.69537 48.7803C7.83602 48.6397 7.91504 48.4489 7.91504 48.25V40.967C7.91644 40.1531 8.15056 39.3566 8.5898 38.6715C9.02904 37.9863 9.65507 37.441 10.394 37.1L19.877 32.741L23.2 37.984C23.2677 38.091 23.3613 38.1791 23.4721 38.2402C23.583 38.3013 23.7075 38.3333 23.834 38.3333C23.9606 38.3333 24.0851 38.3013 24.196 38.2402C24.3068 38.1791 24.4004 38.091 24.468 37.984L27.792 32.736L37.571 37.117C38.3196 37.4532 38.9552 37.9986 39.4011 38.6874C39.8471 39.3763 40.0846 40.1794 40.085 41V48.25C40.085 48.4489 40.1641 48.6397 40.3047 48.7803C40.4454 48.921 40.6361 49 40.835 49C41.034 49 41.2247 48.921 41.3654 48.7803C41.506 48.6397 41.585 48.4489 41.585 48.25V41C41.584 39.8899 41.2625 38.8037 40.659 37.872C40.0554 36.9403 39.1957 36.2028 38.183 35.748ZM17.842 23.548C19.105 22.969 22.001 21.74 23.842 21.74C25.683 21.74 28.563 22.967 29.824 23.546C29.295 24.689 28.4499 25.6568 27.3886 26.335C26.3273 27.0133 25.0941 27.3737 23.8345 27.3737C22.575 27.3737 21.3418 27.0133 20.2805 26.335C19.2192 25.6568 18.3741 24.689 17.845 23.546L17.842 23.548ZM17.223 20.775V16.475C17.235 15.987 17.444 14.483 18.206 13.988C19.0099 13.4599 19.7679 12.8651 20.472 12.21C21.4518 13.3807 22.7244 14.2709 24.16 14.79C26.1808 15.4967 28.365 15.5927 30.44 15.066V20.774C30.4403 21.2242 30.3944 21.6732 30.303 22.114C28.875 21.466 25.903 20.239 23.839 20.239C21.775 20.239 18.789 21.469 17.361 22.117C17.2693 21.6752 17.2231 21.2262 17.223 20.775ZM18.509 29.121C17.7788 29.1211 17.0563 28.9715 16.3862 28.6813C15.7161 28.3912 15.1126 27.9667 14.613 27.434C14.1135 26.9014 13.7285 26.272 13.4818 25.5847C13.2352 24.8973 13.1321 24.1667 13.179 23.438C13.486 18.638 13.643 15.959 13.643 15.469C13.643 12.045 14.87 10.474 15.205 10.109C15.485 10.015 16.149 9.809 17.086 9.577C17.2794 9.53006 17.4462 9.40823 17.5497 9.23832C17.6532 9.06842 17.685 8.86434 17.638 8.671C17.5911 8.47766 17.4693 8.31088 17.2994 8.20736C17.1295 8.10384 16.9254 8.07206 16.732 8.119C16.061 8.282 15.522 8.437 15.147 8.552L13.847 6.275C15.417 5.25 20 2.5 23.824 2.5C27.648 2.5 32.224 5.25 33.802 6.274L32.5 8.55C29.6879 7.69918 26.7671 7.26128 23.829 7.25C22.211 7.25308 20.5959 7.38887 19 7.656C18.8038 7.68862 18.6285 7.79787 18.5128 7.95971C18.3971 8.12156 18.3504 8.32274 18.383 8.519C18.4157 8.71526 18.5249 8.89052 18.6868 9.00623C18.8486 9.12194 19.0498 9.16862 19.246 9.136C20.7605 8.88102 22.2933 8.75092 23.829 8.747C26.752 8.76254 29.6557 9.22142 32.441 10.108C32.774 10.47 34.004 12.039 34.004 15.468C34.004 15.954 34.156 18.561 34.469 23.437C34.5155 24.1657 34.4121 24.8962 34.1652 25.5834C33.9184 26.2706 33.5333 26.8999 33.0337 27.4325C32.5341 27.965 31.9307 28.3895 31.2607 28.6798C30.5906 28.97 29.8682 29.1198 29.138 29.12H28.253V27.553C29.7291 26.5897 30.8521 25.1729 31.453 23.516V23.51C31.453 23.5 31.453 23.489 31.461 23.479C31.7729 22.6129 31.9336 21.6996 31.936 20.779V14.058C31.9365 13.9354 31.9069 13.8147 31.8498 13.7062C31.7927 13.5977 31.71 13.5049 31.6087 13.4358C31.5075 13.3668 31.3909 13.3235 31.2691 13.31C31.1473 13.2964 31.024 13.3129 30.91 13.358C28.893 14.0578 26.7004 14.0663 24.678 13.382C23.2666 12.8902 22.056 11.9477 21.233 10.7C21.1764 10.5949 21.0954 10.5049 20.997 10.4374C20.8985 10.3699 20.7854 10.3269 20.6669 10.3119C20.5485 10.2969 20.4282 10.3104 20.316 10.3513C20.2038 10.3922 20.1031 10.4593 20.022 10.547C19.2275 11.3684 18.3448 12.0999 17.39 12.728C15.839 13.734 15.73 16.16 15.723 16.453V20.773C15.7229 21.7028 15.8843 22.6255 16.2 23.5V23.51C16.8 25.1672 17.9233 26.584 19.4 27.546V29.12L18.509 29.121ZM23.832 36.183L20.909 31.569V28.313C21.8456 28.678 22.8418 28.8659 23.847 28.867C24.8417 28.8656 25.8274 28.6795 26.754 28.318V31.568L23.832 36.183Z" fill="#348AC2" stroke="#348AC2" stroke-width="0.5"/>
<path d="M20.3525 16.1367H19.8125C19.6136 16.1367 19.4228 16.2157 19.2822 16.3564C19.1415 16.497 19.0625 16.6878 19.0625 16.8867C19.0625 17.0856 19.1415 17.2764 19.2822 17.417C19.4228 17.5577 19.6136 17.6367 19.8125 17.6367H20.3525C20.5514 17.6367 20.7422 17.5577 20.8828 17.417C21.0235 17.2764 21.1025 17.0856 21.1025 16.8867C21.1025 16.6878 21.0235 16.497 20.8828 16.3564C20.7422 16.2157 20.5514 16.1367 20.3525 16.1367Z" fill="#348AC2"/>
<path d="M27.0576 17.6367H27.5976C27.7965 17.6367 27.9873 17.5577 28.1279 17.417C28.2686 17.2764 28.3476 17.0856 28.3476 16.8867C28.3476 16.6878 28.2686 16.497 28.1279 16.3564C27.9873 16.2157 27.7965 16.1367 27.5976 16.1367H27.0576C26.8587 16.1367 26.6679 16.2157 26.5273 16.3564C26.3866 16.497 26.3076 16.6878 26.3076 16.8867C26.3076 17.0856 26.3866 17.2764 26.5273 17.417C26.6679 17.5577 26.8587 17.6367 27.0576 17.6367Z" fill="#348AC2"/>
<path d="M22.6914 5.59394H23.0744V5.97594C23.0744 6.17485 23.1534 6.36562 23.2941 6.50627C23.4347 6.64692 23.6255 6.72594 23.8244 6.72594C24.0233 6.72594 24.2141 6.64692 24.3547 6.50627C24.4954 6.36562 24.5744 6.17485 24.5744 5.97594V5.59394H24.9564C25.1553 5.59394 25.3461 5.51492 25.4867 5.37427C25.6274 5.23362 25.7064 5.04285 25.7064 4.84394C25.7064 4.64503 25.6274 4.45426 25.4867 4.31361C25.3461 4.17296 25.1553 4.09394 24.9564 4.09394H24.5744V3.71094C24.5744 3.51203 24.4954 3.32126 24.3547 3.18061C24.2141 3.03996 24.0233 2.96094 23.8244 2.96094C23.6255 2.96094 23.4347 3.03996 23.2941 3.18061C23.1534 3.32126 23.0744 3.51203 23.0744 3.71094V4.09394H22.6914C22.5929 4.09394 22.4954 4.11334 22.4044 4.15103C22.3134 4.18872 22.2307 4.24396 22.1611 4.31361C22.0914 4.38325 22.0362 4.46593 21.9985 4.55693C21.9608 4.64792 21.9414 4.74545 21.9414 4.84394C21.9414 4.94243 21.9608 5.03996 21.9985 5.13095C22.0362 5.22194 22.0914 5.30462 22.1611 5.37427C22.2307 5.44391 22.3134 5.49916 22.4044 5.53685C22.4954 5.57454 22.5929 5.59394 22.6914 5.59394Z" fill="#348AC2"/>
<path d="M13.7373 44.0195C13.5384 44.0195 13.3476 44.0985 13.207 44.2392C13.0663 44.3799 12.9873 44.5706 12.9873 44.7695V48.2495C12.9873 48.4484 13.0663 48.6392 13.207 48.7799C13.3476 48.9205 13.5384 48.9995 13.7373 48.9995C13.9362 48.9995 14.127 48.9205 14.2676 48.7799C14.4083 48.6392 14.4873 48.4484 14.4873 48.2495V44.7695C14.4873 44.5706 14.4083 44.3799 14.2676 44.2392C14.127 44.0985 13.9362 44.0195 13.7373 44.0195Z" fill="#348AC2"/>
<path d="M33.9268 44.0195C33.7278 44.0195 33.5371 44.0985 33.3964 44.2392C33.2558 44.3799 33.1768 44.5706 33.1768 44.7695V48.2495C33.1768 48.4484 33.2558 48.6392 33.3964 48.7799C33.5371 48.9205 33.7278 48.9995 33.9268 48.9995C34.1257 48.9995 34.3164 48.9205 34.4571 48.7799C34.5977 48.6392 34.6768 48.4484 34.6768 48.2495V44.7695C34.6768 44.5706 34.5977 44.3799 34.4571 44.2392C34.3164 44.0985 34.1257 44.0195 33.9268 44.0195Z" fill="#348AC2"/>
<path d="M30.56 34.7144C30.4627 34.6989 30.3632 34.7027 30.2673 34.7257C30.1714 34.7487 30.0809 34.7903 30.0011 34.8483C29.9213 34.9062 29.8538 34.9794 29.8023 35.0635C29.7508 35.1476 29.7164 35.241 29.701 35.3384L29.039 39.5184L26.979 38.0554C26.8631 37.9731 26.7261 37.9255 26.584 37.9181C26.442 37.9108 26.3008 37.9439 26.1769 38.0137C26.053 38.0835 25.9515 38.1871 25.8843 38.3124C25.817 38.4377 25.7868 38.5796 25.797 38.7214L25.997 41.4824L24.577 42.9404V39.6144C24.577 39.4155 24.498 39.2248 24.3574 39.0841C24.2167 38.9435 24.026 38.8644 23.827 38.8644C23.6281 38.8644 23.4374 38.9435 23.2967 39.0841C23.1561 39.2248 23.077 39.4155 23.077 39.6144V42.9234L21.657 41.4804L21.857 38.7214C21.8673 38.5796 21.8371 38.4377 21.7698 38.3124C21.7026 38.1871 21.6011 38.0835 21.4772 38.0137C21.3533 37.9439 21.2121 37.9108 21.0701 37.9181C20.928 37.9255 20.791 37.9731 20.675 38.0554L18.615 39.5184L18 35.5474C17.9846 35.4501 17.9502 35.3568 17.8987 35.2728C17.8472 35.1888 17.7796 35.1158 17.6999 35.0579C17.6202 35 17.5299 34.9584 17.4341 34.9354C17.3383 34.9124 17.2389 34.9085 17.1415 34.9239C17.0442 34.9394 16.9509 34.9738 16.8669 35.0253C16.7829 35.0768 16.7099 35.1443 16.652 35.2241C16.5941 35.3038 16.5525 35.3941 16.5295 35.4899C16.5065 35.5857 16.5026 35.6851 16.518 35.7824L17.336 40.9464C17.3557 41.0728 17.4074 41.192 17.4861 41.2928C17.5649 41.3935 17.6682 41.4724 17.7861 41.5219C17.904 41.5714 18.0326 41.5899 18.1597 41.5757C18.2867 41.5614 18.4081 41.5149 18.512 41.4404L20.252 40.2004L20.141 41.7074C20.133 41.814 20.1478 41.9211 20.1845 42.0215C20.2213 42.1219 20.2791 42.2132 20.354 42.2894L23.082 45.0604V48.2504C23.082 48.4494 23.1611 48.6401 23.3017 48.7808C23.4424 48.9214 23.6331 49.0004 23.832 49.0004C24.031 49.0004 24.2217 48.9214 24.3624 48.7808C24.503 48.6401 24.582 48.4494 24.582 48.2504V45.0894L27.312 42.2894C27.3861 42.2133 27.4431 42.1223 27.4793 42.0225C27.5155 41.9227 27.5301 41.8163 27.522 41.7104L27.411 40.2004L29.156 41.4394C29.26 41.5139 29.3814 41.5604 29.5084 41.5747C29.6355 41.5889 29.7641 41.5704 29.882 41.5209C29.9999 41.4714 30.1032 41.3925 30.1819 41.2918C30.2607 41.191 30.3124 41.0718 30.332 40.9454L31.184 35.5714C31.2143 35.3751 31.1657 35.1748 31.0487 35.0143C30.9318 34.8537 30.7562 34.7459 30.56 34.7144Z" fill="#348AC2"/>
</g>
</g>
<defs>
<clipPath id="clip0_506_3892">
<rect width="48" height="48" fill="white"/>
</clipPath>
<clipPath id="clip1_506_3892">
<rect width="48" height="48" fill="white" transform="translate(0 1)"/>
</clipPath>
</defs>
</svg>
