<svg width="48" height="48" viewBox="0 0 48 48" fill="none" xmlns="http://www.w3.org/2000/svg">
<path fill-rule="evenodd" clip-rule="evenodd" d="M14 11C14 10.4477 14.3805 10 14.85 10H30.15C30.6195 10 31 10.4477 31 11C31 11.5523 30.6195 12 30.15 12H14.85C14.3805 12 14 11.5523 14 11Z" fill="#348AC2"/>
<path fill-rule="evenodd" clip-rule="evenodd" d="M26 24C26 23.4477 26.2239 23 26.5 23H35.5C35.7761 23 36 23.4477 36 24C36 24.5523 35.7761 25 35.5 25H26.5C26.2239 25 26 24.5523 26 24Z" fill="#348AC2"/>
<path fill-rule="evenodd" clip-rule="evenodd" d="M14 15C14 14.4477 14.3805 14 14.85 14H30.15C30.6195 14 31 14.4477 31 15C31 15.5523 30.6195 16 30.15 16H14.85C14.3805 16 14 15.5523 14 15Z" fill="#348AC2"/>
<path fill-rule="evenodd" clip-rule="evenodd" d="M26 28C26 27.4477 26.2239 27 26.5 27H35.5C35.7761 27 36 27.4477 36 28C36 28.5523 35.7761 29 35.5 29H26.5C26.2239 29 26 28.5523 26 28Z" fill="#348AC2"/>
<path fill-rule="evenodd" clip-rule="evenodd" d="M16.8998 4H28.4638C29.7079 3.99998 30.7346 3.99996 31.571 4.0683C32.4397 4.13928 33.2383 4.2916 33.9883 4.67378C35.1515 5.26645 36.0972 6.21215 36.6899 7.37533C37.072 8.1254 37.2244 8.92394 37.2953 9.79263C37.3637 10.629 37.3637 11.6557 37.3636 12.8998V17.9363C37.4676 17.9418 37.568 17.9484 37.665 17.9563C38.276 18.0063 38.8837 18.1165 39.4685 18.4144C40.3409 18.8589 41.0502 19.5682 41.4947 20.4406C41.7926 21.0254 41.9028 21.6331 41.9528 22.244C42.0001 22.8229 42 23.5257 42 24.3404V28.6442C42 29.3222 42 29.9071 41.967 30.3912C41.9322 30.9009 41.8557 31.4108 41.6471 31.9145C41.1765 33.0506 40.2739 33.9531 39.1379 34.4237C38.6342 34.6323 38.1243 34.7088 37.6146 34.7436C37.5337 34.7491 37.4501 34.7537 37.3636 34.7576V36.4545C37.3636 37.0299 37.044 37.5577 36.5341 37.8242C36.0242 38.0907 35.4084 38.0519 34.936 37.7235L31.5725 35.385C31.0544 35.0248 30.9496 34.9591 30.8505 34.9143C30.7364 34.8626 30.6163 34.8249 30.4931 34.8022C30.3861 34.7825 30.2626 34.7766 29.6316 34.7766H26.795C25.9803 34.7766 25.2775 34.7767 24.6986 34.7294C24.0876 34.6795 23.4799 34.5692 22.8952 34.2713C22.0228 33.8268 21.3135 33.1175 20.869 32.2451C20.571 31.6604 20.4608 31.0527 20.4109 30.4417C20.3853 30.1287 20.3736 29.7794 20.3682 29.3958L18.2155 31.5755C17.9195 31.8753 17.6291 32.1693 17.3747 32.3852C17.1486 32.5768 16.6703 32.9638 16.0051 33.0191C15.2636 33.0807 14.5375 32.7826 14.0532 32.2177C13.6188 31.7109 13.5504 31.0995 13.5243 30.8043C13.4949 30.4719 13.4949 30.0587 13.495 29.6373L13.495 27.199C13.4653 27.1742 13.3964 27.1327 13.2859 27.1165C10.5835 26.7207 8.46116 24.5983 8.06532 21.8959C7.99966 21.4477 7.99982 20.942 8.00002 20.2595C8.00003 20.2207 8.00005 20.1814 8.00005 20.1414L8.00005 12.8998C8.00003 11.6558 8.00001 10.629 8.06835 9.79263C8.13932 8.92394 8.29165 8.1254 8.67382 7.37533C9.26649 6.21215 10.2122 5.26645 11.3754 4.67378C12.1254 4.2916 12.924 4.13928 13.7927 4.0683C14.6291 3.99996 15.6558 3.99998 16.8998 4ZM13.7339 24.0583C15.1065 24.2593 16.5859 25.3492 16.5859 27.1689V28.8268L20.3637 25.0018L20.3637 24.3404C20.3636 23.5257 20.3636 22.8229 20.4109 22.244C20.4608 21.6331 20.571 21.0254 20.869 20.4406C21.3135 19.5682 22.0228 18.8589 22.8952 18.4144C23.4799 18.1165 24.0876 18.0063 24.6986 17.9563C25.2775 17.909 25.9803 17.9091 26.795 17.9091L34.2727 17.9091V12.9636C34.2727 11.6398 34.2715 10.7399 34.2147 10.0443C34.1593 9.36678 34.059 9.02028 33.9358 8.77858C33.6395 8.19698 33.1667 7.72413 32.5851 7.4278C32.3434 7.30464 31.9969 7.2043 31.3193 7.14894C30.6237 7.09211 29.7238 7.09091 28.4 7.09091H16.9637C15.6399 7.09091 14.74 7.09211 14.0444 7.14894C13.3668 7.2043 13.0203 7.30464 12.7786 7.4278C12.197 7.72413 11.7242 8.19698 11.4278 8.77858C11.3047 9.02028 11.2043 9.36678 11.149 10.0443C11.0922 10.7399 11.091 11.6398 11.091 12.9636V20.1414C11.091 20.9936 11.0951 21.2533 11.1236 21.448C11.3215 22.7992 12.3827 23.8604 13.7339 24.0583ZM23.4546 25.6354C23.4546 25.6361 23.4546 25.6368 23.4546 25.6374V28.2857C23.4546 29.1768 23.4558 29.7521 23.4915 30.19C23.5259 30.6098 23.5841 30.7655 23.623 30.8419C23.7712 31.1327 24.0076 31.3691 24.2984 31.5173C24.3748 31.5562 24.5305 31.6144 24.9503 31.6487C25.3882 31.6845 25.9635 31.6857 26.8546 31.6857H29.6316C29.6644 31.6857 29.6968 31.6857 29.729 31.6857C30.2092 31.6853 30.6329 31.685 31.0533 31.7625C31.4231 31.8307 31.7832 31.9435 32.1257 32.0987C32.5152 32.2751 32.8629 32.5172 33.2569 32.7916C33.2834 32.8099 33.31 32.8285 33.3369 32.8472L34.2727 33.4978V33.2312C34.2727 32.3776 34.9647 31.6857 35.8182 31.6857C36.5594 31.6857 37.038 31.6849 37.4042 31.6599C37.7566 31.6358 37.8907 31.5947 37.9551 31.5681C38.3337 31.4112 38.6346 31.1104 38.7915 30.7317C38.8181 30.6674 38.8592 30.5332 38.8833 30.1808C38.9083 29.8146 38.9091 29.336 38.9091 28.5948V24.4C38.9091 23.509 38.9079 22.9336 38.8721 22.4957C38.8378 22.0759 38.7796 21.9202 38.7407 21.8438C38.5925 21.553 38.3561 21.3166 38.0653 21.1684C37.9888 21.1295 37.8332 21.0713 37.4133 21.037C36.9755 21.0012 36.4001 21 35.5091 21H26.8546C25.9635 21 25.3882 21.0012 24.9503 21.037C24.5305 21.0713 24.3748 21.1295 24.2984 21.1684C24.0076 21.3166 23.7712 21.553 23.623 21.8438C23.5841 21.9202 23.5259 22.0759 23.4915 22.4957C23.4558 22.9336 23.4546 23.509 23.4546 24.4V25.6354Z" fill="#348AC2"/>
</svg>
