<svg width="48" height="48" viewBox="0 0 48 48" fill="none" xmlns="http://www.w3.org/2000/svg">
<path d="M39.7614 22.3648C38.396 20.9913 38.7617 21.4058 38.7617 3.81766C38.7617 3.60211 38.6761 3.39538 38.5237 3.24296C38.3712 3.09053 38.1645 3.00491 37.949 3.00491C37.7334 3.00491 37.5267 3.09053 37.3743 3.24296C37.2218 3.39538 37.1362 3.60211 37.1362 3.81766V11.3438C37.1374 12.2586 36.8299 13.1469 36.2635 13.8652C35.6971 14.5835 34.905 15.0897 34.0152 15.302L22.0108 18.1547C21.8617 18.1843 21.7071 18.1626 21.5719 18.0933C21.4367 18.024 21.3288 17.911 21.2658 17.7728C21.2028 17.6345 21.1883 17.4791 21.2247 17.3315C21.2611 17.184 21.3462 17.0531 21.4662 16.96L32.1784 12.0834C32.4347 11.9669 32.6563 11.7858 32.8216 11.5578C32.9869 11.3298 33.0901 11.0629 33.1212 10.783L33.8852 3.90707C33.9089 3.69151 33.846 3.47536 33.7103 3.30617C33.5747 3.13699 33.3774 3.02862 33.1618 3.00491C32.9463 2.98119 32.7301 3.04408 32.5609 3.17974C32.3917 3.31539 32.2834 3.5127 32.2596 3.72826L31.9102 6.88177C31.1173 7.33389 30.2355 7.60806 29.326 7.68525C28.4166 7.76245 27.5012 7.64081 26.6435 7.32878C27.5294 5.58948 27.375 5.70327 27.375 3.81766C27.375 3.60211 27.2893 3.39538 27.1369 3.24296C26.9845 3.09053 26.7778 3.00491 26.5622 3.00491C26.3466 3.00491 26.1399 3.09053 25.9875 3.24296C25.8351 3.39538 25.7494 3.60211 25.7494 3.81766V5.31314C25.1742 6.95592 24.1928 8.42654 22.8967 9.58826C22.2753 10.2153 21.9266 11.0624 21.9266 11.9453C21.9266 12.8281 22.2753 13.6752 22.8967 14.3023C23.1161 14.5136 23.4006 14.3023 20.7347 15.5133C20.3503 15.7293 20.0364 16.0517 19.8306 16.4417C19.6248 16.8316 19.5359 17.2727 19.5745 17.712C19.6131 18.1512 19.7776 18.57 20.0483 18.9182C20.3189 19.2663 20.6843 19.5289 21.1005 19.6746C19.9712 22.0216 19.7596 24.7058 20.5071 27.2008L19.2961 28.0135C14.3058 20.78 3.00031 24.3561 3.00031 33.077C2.98914 34.416 3.27889 35.7404 3.84814 36.9524C4.4174 38.1644 5.25163 39.233 6.28923 40.0794C7.32683 40.9258 8.5413 41.5283 9.84296 41.8424C11.1446 42.1565 12.5002 42.1743 13.8096 41.8943C15.1191 41.6143 16.3489 41.0438 17.4083 40.2249C18.4677 39.4059 19.3296 38.3595 19.9303 37.1628C20.5311 35.9661 20.8554 34.6498 20.8793 33.3109C20.9032 31.9721 20.626 30.6451 20.0683 29.4277L21.0842 28.7531C22.0675 30.8293 23.7109 32.5213 25.7576 33.5647V41.2046C25.7576 41.4202 25.8432 41.6269 25.9956 41.7793C26.148 41.9317 26.3548 42.0174 26.5703 42.0174C26.7859 42.0174 26.9926 41.9317 27.145 41.7793C27.2975 41.6269 27.3831 41.4202 27.3831 41.2046C27.3831 33.4265 27.2937 34.223 27.5782 34.3124C28.0391 34.4948 28.5189 34.6256 29.0086 34.7025C29.2242 34.7338 29.4433 34.6781 29.6178 34.5478C29.7924 34.4175 29.908 34.2232 29.9392 34.0076C29.9705 33.7921 29.9148 33.5729 29.7845 33.3984C29.6542 33.2239 29.4599 33.1083 29.2443 33.077C26.4809 32.2642 24.0264 31.2808 22.474 27.8103L24.5791 26.4042C24.7368 26.2772 24.8414 26.0959 24.8724 25.8958C24.9034 25.6956 24.8586 25.4911 24.7467 25.3223C24.6349 25.1535 24.464 25.0326 24.2676 24.9831C24.0713 24.9337 23.8635 24.9593 23.685 25.0551L21.9295 26.2498C21.6616 25.1243 21.6185 23.9569 21.8026 22.8147C21.9867 21.6724 22.3944 20.5777 23.0023 19.5933C35.2425 16.6755 35.5838 16.9031 37.1362 15.3101V19.9428C37.1362 23.5433 40.3872 23.7303 40.3872 27.7941C40.3872 31.8579 37.1362 31.931 37.1362 35.6453V41.2046C37.1362 41.4202 37.2218 41.6269 37.3743 41.7793C37.5267 41.9317 37.7334 42.0174 37.949 42.0174C38.1645 42.0174 38.3712 41.9317 38.5237 41.7793C38.6761 41.6269 38.7617 41.4202 38.7617 41.2046C38.7617 35.7185 38.4447 34.5481 39.7614 33.2233C40.4751 32.5107 41.0412 31.6644 41.4275 30.7328C41.8138 29.8012 42.0126 28.8026 42.0126 27.7941C42.0126 26.7856 41.8138 25.7869 41.4275 24.8553C41.0412 23.9237 40.4751 23.0774 39.7614 22.3648ZM24.5953 13.6195C24.3362 13.4985 24.1096 13.3175 23.9341 13.0917C23.7587 12.8658 23.6395 12.6014 23.5863 12.3204C23.5331 12.0394 23.5475 11.7497 23.6282 11.4754C23.709 11.201 23.8538 10.9498 24.0508 10.7424C24.6846 10.1372 25.2564 9.47008 25.7576 8.75111C27.6576 9.49009 29.7625 9.50744 31.6745 8.79988L31.4794 10.5879C23.8395 14.0909 24.7741 13.7252 24.5953 13.6195ZM11.9407 40.3918C10.4939 40.3918 9.07968 39.9628 7.87676 39.1591C6.67384 38.3553 5.73628 37.2129 5.18264 35.8763C4.629 34.5397 4.48414 33.0689 4.76638 31.6499C5.04863 30.231 5.7453 28.9276 6.76829 27.9046C7.79129 26.8816 9.09467 26.185 10.5136 25.9027C11.9325 25.6205 13.4033 25.7653 14.7399 26.319C16.0765 26.8726 17.219 27.8102 18.0227 29.0131C18.8265 30.216 19.2555 31.6303 19.2555 33.077C19.2555 34.0376 19.0663 34.9888 18.6987 35.8763C18.3311 36.7637 17.7923 37.5701 17.113 38.2494C16.4338 38.9286 15.6274 39.4674 14.7399 39.835C13.8525 40.2026 12.9013 40.3918 11.9407 40.3918Z" fill="#348AC2"/>
<path fill-rule="evenodd" clip-rule="evenodd" d="M11.9407 29.0137C12.2213 29.0137 12.4487 29.2411 12.4487 29.5216V32.5695H15.4966C15.7771 32.5695 16.0045 32.7969 16.0045 33.0775C16.0045 33.358 15.7771 33.5854 15.4966 33.5854H12.4487V36.6333C12.4487 36.9138 12.2213 37.1413 11.9407 37.1413C11.6602 37.1413 11.4328 36.9138 11.4328 36.6333V33.5854H8.38493C8.10438 33.5854 7.87695 33.358 7.87695 33.0775C7.87695 32.7969 8.10438 32.5695 8.38493 32.5695H11.4328V29.5216C11.4328 29.2411 11.6602 29.0137 11.9407 29.0137Z" fill="#348AC2" stroke="#348AC2" stroke-width="2" stroke-linecap="round" stroke-linejoin="round"/>
</svg>
