<svg width="48" height="49" viewBox="0 0 48 49" fill="none" xmlns="http://www.w3.org/2000/svg">
<path d="M37.4706 42C35.8936 42 34.4668 41.4783 33.3779 40.5094C31.8761 39.1307 31.3879 37.0812 31.9511 34.8453C32.5895 32.3486 32.5144 30.5227 31.7259 29.442C31.0876 28.585 29.9612 28.1378 28.2715 28.0633C23.428 27.877 22.6019 26.2373 22.5268 22.66C22.4893 21.4676 22.1138 20.6478 21.3629 20.1633C20.687 20.7223 20.3491 20.7968 20.1238 20.7968C19.6732 20.8341 19.2602 20.6478 18.9223 20.3124C17.4204 21.3185 16.1063 21.7284 14.9423 21.5421C14.0036 21.393 13.1776 20.8713 12.5393 19.9397C11.8635 19.0827 5.78082 11.1827 6.0061 7.90348C6.0812 6.59924 6.7195 5.55585 7.84591 4.84784C9.31025 3.91624 11.5255 3.72992 13.2151 4.40067C15.0925 5.14595 23.9912 10.1393 24.4793 12.077C24.8172 13.3068 23.9912 14.9464 23.2778 16.027C23.5031 16.2133 23.7659 16.4369 23.841 16.735C23.9161 16.9586 23.8785 17.2567 23.5031 17.853C24.4417 18.6728 25.4555 20.1261 25.6808 22.8091C25.8685 25.0449 26.3566 25.0822 28.2715 25.2685C28.9474 25.343 29.7734 25.4175 30.7496 25.6039C32.4393 25.9765 33.6783 26.8336 34.4293 28.1378C35.2553 29.5911 35.3304 31.4543 34.6545 33.392C33.6408 36.3731 33.9787 38.7953 35.5557 39.8014C36.607 40.4722 38.3342 40.3231 39.3479 40.2113C40.2115 40.1368 40.7747 40.0623 40.9625 40.6212C41.0375 40.8821 41 41.1429 40.8498 41.3292C40.6245 41.6274 40.2115 41.6646 39.9487 41.6646C39.1226 41.8509 38.2966 42 37.4706 42ZM32.9649 35.6651C32.8147 36.4849 32.8898 37.3047 33.1151 38.0128C32.9274 37.2675 32.8523 36.4849 32.9649 35.6651ZM21.2127 18.7846L21.5506 18.9336C22.4893 19.3808 23.6157 20.3869 23.6532 22.6227C23.6908 25.6784 24.1038 26.759 28.3091 26.9454C30.3366 27.0199 31.7634 27.6534 32.627 28.7713C33.453 29.8519 33.7159 31.3425 33.4155 33.3175C33.453 33.2057 33.4906 33.0566 33.5281 32.9449C34.0913 31.3052 34.0162 29.7402 33.3779 28.585C32.8147 27.5788 31.801 26.9081 30.4493 26.61C29.5481 26.4237 28.7972 26.3491 28.1213 26.2746C25.9812 26.0883 24.7797 25.8274 24.5168 22.8091C24.2915 20.1633 23.2402 18.9336 22.3766 18.3747L21.8885 18.0393L22.2264 17.5548C22.4517 17.2567 22.5644 17.0704 22.6395 16.9586C22.5644 16.8841 22.3766 16.7723 22.1514 16.6605L21.5506 16.3624L21.9261 15.8407C22.9774 14.4247 23.5031 13.0832 23.3153 12.3752C23.0149 11.22 15.2802 6.45019 12.727 5.44406C11.3753 4.92237 9.53553 5.07142 8.37157 5.8167C7.54553 6.3384 7.09497 7.08368 7.05742 8.01527C6.90723 10.4374 11.5631 16.9959 13.3653 19.3063C13.8534 19.977 14.4167 20.3496 15.055 20.4614C16.0312 20.6105 17.2327 20.1633 18.6219 19.1572L19.0725 18.8218L19.4104 19.269C19.5231 19.418 19.7859 19.7162 20.0487 19.7162C20.0487 19.7162 20.274 19.6416 20.8748 19.0827L21.2127 18.7846Z" fill="#348AC2" stroke="#348AC2" stroke-width="0.5"/>
</svg>
