<svg width="48" height="48" viewBox="0 0 48 48" fill="none" xmlns="http://www.w3.org/2000/svg">
<path fill-rule="evenodd" clip-rule="evenodd" d="M14 6C12.8954 6 12 6.89543 12 8V36C12 37.1046 12.8954 38 14 38H25V40H14C11.7909 40 10 38.2091 10 36V8C10 5.79086 11.7909 4 14 4H34C36.2091 4 38 5.79086 38 8V36C38 38.2091 36.2091 40 34 40H31V38H34C35.1046 38 36 37.1046 36 36V8C36 6.89543 35.1046 6 34 6H14Z" fill="#348AC2"/>
<path fill-rule="evenodd" clip-rule="evenodd" d="M18 11C18 10.4477 18.4477 10 19 10H29C29.5523 10 30 10.4477 30 11C30 11.5523 29.5523 12 29 12H19C18.4477 12 18 11.5523 18 11Z" fill="#348AC2"/>
<path fill-rule="evenodd" clip-rule="evenodd" d="M14 17C14 16.4477 14.4477 16 15 16H33C33.5523 16 34 16.4477 34 17C34 17.5523 33.5523 18 33 18H15C14.4477 18 14 17.5523 14 17Z" fill="#348AC2"/>
<path fill-rule="evenodd" clip-rule="evenodd" d="M14 21C14 20.4477 14.4477 20 15 20H33C33.5523 20 34 20.4477 34 21C34 21.5523 33.5523 22 33 22H15C14.4477 22 14 21.5523 14 21Z" fill="#348AC2"/>
<path fill-rule="evenodd" clip-rule="evenodd" d="M14 25C14 24.4477 14.4477 24 15 24H33C33.5523 24 34 24.4477 34 25C34 25.5523 33.5523 26 33 26H15C14.4477 26 14 25.5523 14 25Z" fill="#348AC2"/>
<path fill-rule="evenodd" clip-rule="evenodd" d="M14 29C14 28.4477 14.4477 28 15 28H33C33.5523 28 34 28.4477 34 29C34 29.5523 33.5523 30 33 30H15C14.4477 30 14 29.5523 14 29Z" fill="#348AC2"/>
<path fill-rule="evenodd" clip-rule="evenodd" d="M14 33C14 32.4477 14.4477 32 15 32H33C33.5523 32 34 32.4477 34 33C34 33.5523 33.5523 34 33 34H15C14.4477 34 14 33.5523 14 33Z" fill="#348AC2"/>
<path fill-rule="evenodd" clip-rule="evenodd" d="M14 39C14 38.4477 14.4477 38 15 38H33C33.5523 38 34 38.4477 34 39C34 39.5523 33.5523 40 33 40H15C14.4477 40 14 39.5523 14 39Z" fill="#348AC2"/>
</svg>
