<svg width="48" height="49" viewBox="0 0 48 49" fill="none" xmlns="http://www.w3.org/2000/svg">
<g clip-path="url(#clip0_506_3906)">
<path d="M27.2196 48C21.128 48 15.1743 44.8967 11.6343 39.9085C8.71488 35.7708 6.04836 28.5068 9.97918 17.358C9.28956 5.58846 14.8755 2.41621 19.6798 1.81854C22.944 1.40477 26.0703 2.53115 28.2541 4.87585C30.231 7.01367 31.1275 9.93306 30.6448 12.5076C31.0125 13.4731 32.9895 19.2199 28.0932 22.4611C28.5759 22.8289 29.1506 23.4266 29.2195 24.3001C29.2885 25.3116 28.6449 26.323 27.2656 27.3804C28.8747 28.047 31.955 30.0929 32.1389 35.7938L33.6561 34.1846C34.7135 33.0813 36.1847 32.5296 37.7018 32.6905C39.219 32.8514 40.5293 33.7019 41.3109 35.0122C42.2533 36.5753 42.2074 38.5292 41.2189 40.0694C39.3799 43.0347 35.0583 48 27.2196 48ZM20.9901 2.66907C20.5993 2.66907 20.1855 2.69206 19.7947 2.73804C13.3583 3.54259 10.37 8.46187 10.8987 17.4039V17.4959L10.8757 17.5878C7.03681 28.4148 9.5884 35.403 12.3928 39.3798C15.749 44.1381 21.4268 47.0805 27.2196 47.0805C34.6215 47.0805 38.7133 42.3911 40.4833 39.6096C41.2879 38.3453 41.3108 36.7822 40.5523 35.5179C39.9316 34.4605 38.8512 33.7709 37.6329 33.6329C36.3916 33.495 35.2192 33.9318 34.3687 34.8283L31.2194 38.1844L31.2654 36.9661C31.5413 29.0125 26.4381 28.047 26.2082 28.0011L25.0129 27.7712L26.0013 27.1275C27.5645 26.1161 28.369 25.1736 28.3 24.3691C28.2311 23.4496 27.0128 22.8979 27.0128 22.8979L26.1622 22.5301L26.9898 22.0703C32.4378 19.082 29.8632 13.0134 29.7482 12.7605L29.6793 12.6226L29.7023 12.4846C30.185 10.1399 29.3575 7.47342 27.5644 5.5195C25.8634 3.65753 23.5187 2.66907 20.9901 2.66907Z" fill="#348AC2" stroke="#348AC2"/>
<path d="M22.1852 23.7485C19.4268 23.7485 15.9097 23.0129 13.4041 19.8406C13.2662 19.6567 13.2892 19.4039 13.4731 19.243C13.657 19.105 13.9098 19.128 14.0707 19.3119C18.4153 24.7829 26.1161 22.3922 26.185 22.3692C26.4149 22.3003 26.6448 22.4152 26.7137 22.6451C26.7827 22.875 26.6678 23.1048 26.4379 23.1738C26.3919 23.1738 24.5759 23.7485 22.1852 23.7485Z" fill="#348AC2" stroke="#348AC2"/>
<path d="M22.8753 29.8621C22.7374 29.8621 22.5765 29.7931 22.5075 29.6552C22.3926 29.4483 22.4615 29.1954 22.6684 29.0805L26.0476 27.1726C26.2544 27.0576 26.5073 27.1266 26.6222 27.3335C26.7372 27.5403 26.6682 27.7932 26.4613 27.9081L23.0822 29.8161C23.0132 29.8391 22.9443 29.8621 22.8753 29.8621Z" fill="#348AC2" stroke="#348AC2"/>
<path d="M20.3465 26.2774C20.2086 26.2774 20.0707 26.2084 20.0017 26.0935C19.8638 25.9096 19.9097 25.6337 20.1166 25.5188L23.9785 22.8523C24.1624 22.7144 24.4382 22.7603 24.5532 22.9672C24.6911 23.1511 24.6451 23.427 24.4382 23.5419L20.5764 26.2084C20.5074 26.2544 20.4384 26.2774 20.3465 26.2774Z" fill="#348AC2" stroke="#348AC2"/>
<path d="M31.6797 37.3795H31.6567L24.9904 36.9428C24.7605 36.9198 24.5766 36.7359 24.5996 36.506C24.6226 36.2761 24.8065 36.1152 25.0364 36.1152L31.7027 36.552C31.9325 36.575 32.1164 36.7589 32.0935 36.9887C32.0935 37.2186 31.9096 37.3795 31.6797 37.3795Z" fill="#348AC2" stroke="#348AC2"/>
<path d="M23.7945 15.8624C24.4674 15.8624 25.0128 15.317 25.0128 14.6441C25.0128 13.9712 24.4674 13.4258 23.7945 13.4258C23.1216 13.4258 22.5762 13.9712 22.5762 14.6441C22.5762 15.317 23.1216 15.8624 23.7945 15.8624Z" fill="#348AC2" stroke="#348AC2"/>
</g>
<defs>
<clipPath id="clip0_506_3906">
<rect width="48" height="48" fill="white" transform="translate(0 0.5)"/>
</clipPath>
</defs>
</svg>
