<svg width="48" height="48" viewBox="0 0 48 48" fill="none" xmlns="http://www.w3.org/2000/svg">
<path d="M24.5 23.7188C22.5716 23.7188 20.6866 23.1469 19.0832 22.0756C17.4798 21.0042 16.2301 19.4815 15.4922 17.6999C14.7542 15.9183 14.5611 13.9579 14.9373 12.0666C15.3136 10.1753 16.2422 8.43803 17.6057 7.07446C18.9693 5.7109 20.7066 4.7823 22.5979 4.4061C24.4892 4.02989 26.4496 4.22297 28.2312 4.96093C30.0127 5.69888 31.5355 6.94857 32.6068 8.55194C33.6782 10.1553 34.25 12.0404 34.25 13.9688C34.25 16.5546 33.2228 19.0346 31.3943 20.863C29.5658 22.6915 27.0859 23.7188 24.5 23.7188ZM24.5 6.65625C23.0537 6.65625 21.6399 7.08513 20.4374 7.88863C19.2349 8.69214 18.2976 9.8342 17.7441 11.1704C17.1907 12.5066 17.0459 13.9769 17.328 15.3954C17.6102 16.8138 18.3066 18.1168 19.3293 19.1395C20.352 20.1621 21.6549 20.8586 23.0734 21.1407C24.4919 21.4229 25.9622 21.2781 27.2984 20.7246C28.6346 20.1712 29.7766 19.2339 30.5801 18.0314C31.3836 16.8288 31.8125 15.415 31.8125 13.9688C31.8125 12.0294 31.0421 10.1694 29.6707 8.79804C28.2994 7.42668 26.4394 6.65625 24.5 6.65625Z" fill="#348AC2"/>
<path d="M33.0312 40.7812H15.9688C14.3526 40.7812 12.8026 40.1392 11.6598 38.9964C10.517 37.8536 9.875 36.3036 9.875 34.6875V29.8125C9.87504 29.601 9.93012 29.3931 10.0348 29.2093C10.1395 29.0256 10.2903 28.8722 10.4722 28.7643L16.5659 25.1081C16.8409 24.9838 17.1521 24.966 17.4395 25.058C17.7268 25.15 17.9698 25.3453 18.1215 25.6061C18.2731 25.867 18.3226 26.1748 18.2604 26.47C18.1982 26.7652 18.0287 27.0269 17.7847 27.2043L12.3125 30.5072V34.6875C12.3125 35.6572 12.6977 36.5871 13.3834 37.2728C14.0691 37.9585 14.9991 38.3437 15.9688 38.3437H33.0312C34.0009 38.3437 34.9309 37.9585 35.6166 37.2728C36.3023 36.5871 36.6875 35.6572 36.6875 34.6875V30.5072L31.1909 27.2043C31.0355 27.1341 30.8966 27.0321 30.7831 26.9048C30.6697 26.7775 30.5841 26.6278 30.5322 26.4654C30.4802 26.303 30.4628 26.1314 30.4813 25.9619C30.4997 25.7924 30.5535 25.6286 30.6392 25.4812C30.725 25.3338 30.8407 25.206 30.9789 25.1061C31.1171 25.0061 31.2747 24.9364 31.4416 24.9012C31.6084 24.866 31.7808 24.8663 31.9476 24.9019C32.1143 24.9376 32.2718 25.0078 32.4097 25.1081L38.5034 28.7643C38.6899 28.8691 38.8455 29.0212 38.9546 29.2051C39.0637 29.3891 39.1225 29.5986 39.125 29.8125V34.6875C39.125 36.3036 38.483 37.8536 37.3402 38.9964C36.1974 40.1392 34.6474 40.7812 33.0312 40.7812Z" fill="#348AC2"/>
</svg>
