<svg width="48" height="48" viewBox="0 0 48 48" fill="none" xmlns="http://www.w3.org/2000/svg">
<rect x="9" y="11" width="30" height="30" rx="7" stroke="#348AC2" stroke-width="2"/>
<path fill-rule="evenodd" clip-rule="evenodd" d="M18.4863 13H29.5137C30.5602 13 31.4238 13 32.1274 13.0575C32.8581 13.1172 33.5298 13.2453 34.1607 13.5668C35.1392 14.0653 35.9347 14.8608 36.4332 15.8393C36.7547 16.4702 36.8828 17.1419 36.9425 17.8726C37 18.5762 37 19.4398 37 20.4863V31.5137C37 32.5602 37 33.4238 36.9425 34.1274C36.8828 34.8581 36.7547 35.5298 36.4332 36.1607C35.9347 37.1392 35.1392 37.9347 34.1607 38.4332C33.5298 38.7547 32.8581 38.8828 32.1274 38.9425C31.4238 39 30.5602 39 29.5137 39H18.4863C17.4398 39 16.5762 39 15.8726 38.9425C15.1419 38.8828 14.4702 38.7547 13.8393 38.4332C12.8608 37.9347 12.0653 37.1392 11.5668 36.1607C11.2453 35.5298 11.1172 34.8581 11.0575 34.1274C11 33.4238 11 32.5601 11 31.5137V20.4863C11 19.4398 11 18.5762 11.0575 17.8726C11.1172 17.1419 11.2453 16.4702 11.5668 15.8393C12.0653 14.8608 12.8608 14.0653 13.8393 13.5668C14.4702 13.2453 15.1419 13.1172 15.8726 13.0575C16.5762 13 17.4398 13 18.4863 13ZM16.0844 15.6488C15.5144 15.6954 15.2229 15.7798 15.0196 15.8834C14.5304 16.1327 14.1327 16.5304 13.8834 17.0196C13.7798 17.2229 13.6954 17.5144 13.6488 18.0843C13.601 18.6695 13.6 19.4264 13.6 20.54V31.46C13.6 32.5736 13.601 33.3305 13.6488 33.9156C13.6954 34.4856 13.7798 34.7771 13.8834 34.9804C14.1327 35.4696 14.5304 35.8673 15.0196 36.1166C15.2229 36.2202 15.5144 36.3046 16.0844 36.3512C16.6695 36.399 17.4264 36.4 18.54 36.4H29.46C30.5736 36.4 31.3305 36.399 31.9156 36.3512C32.4856 36.3046 32.7771 36.2202 32.9804 36.1166C33.4696 35.8673 33.8673 35.4696 34.1166 34.9804C34.2202 34.7771 34.3046 34.4856 34.3512 33.9156C34.399 33.3305 34.4 32.5736 34.4 31.46V20.54C34.4 19.4264 34.399 18.6695 34.3512 18.0844C34.3046 17.5144 34.2202 17.2229 34.1166 17.0196C33.8673 16.5304 33.4696 16.1327 32.9804 15.8834C32.7771 15.7798 32.4856 15.6954 31.9156 15.6488C31.3305 15.601 30.5736 15.6 29.46 15.6H18.54C17.4264 15.6 16.6695 15.601 16.0844 15.6488ZM22.6266 17.55C22.6367 17.55 22.6468 17.55 22.6567 17.55H25.3433C25.3532 17.55 25.3633 17.55 25.3734 17.55C25.5283 17.5499 25.7132 17.5499 25.8761 17.5632C26.0649 17.5786 26.3353 17.6182 26.6186 17.7625C26.9855 17.9495 27.2838 18.2478 27.4708 18.6147C27.6152 18.898 27.6547 19.1684 27.6702 19.3572C27.6835 19.5201 27.6834 19.7051 27.6833 19.8599C27.6833 19.8701 27.6833 19.8801 27.6833 19.89V22.3167H30.11C30.1199 22.3167 30.1299 22.3167 30.1401 22.3167C30.2949 22.3166 30.4799 22.3165 30.6428 22.3298C30.8316 22.3453 31.102 22.3848 31.3853 22.5292C31.7522 22.7162 32.0505 23.0145 32.2375 23.3814C32.3818 23.6647 32.4214 23.9351 32.4368 24.1239C32.4501 24.2868 32.4501 24.4717 32.45 24.6266C32.45 24.6368 32.45 24.6468 32.45 24.6567V27.3433C32.45 27.3532 32.45 27.3632 32.45 27.3734C32.4501 27.5283 32.4501 27.7132 32.4368 27.8761C32.4214 28.0649 32.3818 28.3353 32.2375 28.6186C32.0505 28.9855 31.7522 29.2838 31.3853 29.4708C31.102 29.6152 30.8316 29.6547 30.6428 29.6702C30.4799 29.6835 30.2949 29.6834 30.1401 29.6833C30.1299 29.6833 30.1199 29.6833 30.11 29.6833H27.6833V32.11C27.6833 32.1199 27.6833 32.1299 27.6833 32.1401C27.6834 32.2949 27.6835 32.4799 27.6702 32.6428C27.6547 32.8316 27.6152 33.102 27.4708 33.3853C27.2838 33.7522 26.9855 34.0505 26.6186 34.2375C26.3353 34.3818 26.0649 34.4214 25.8761 34.4368C25.7132 34.4501 25.5283 34.4501 25.3734 34.45C25.3632 34.45 25.3532 34.45 25.3433 34.45H22.6567C22.6468 34.45 22.6368 34.45 22.6266 34.45C22.4717 34.4501 22.2868 34.4501 22.1239 34.4368C21.9351 34.4214 21.6647 34.3818 21.3814 34.2375C21.0145 34.0505 20.7162 33.7522 20.5292 33.3853C20.3848 33.1019 20.3453 32.8316 20.3298 32.6428C20.3165 32.4799 20.3166 32.2949 20.3167 32.1401C20.3167 32.1299 20.3167 32.1199 20.3167 32.11V29.6833H17.89C17.8801 29.6833 17.8701 29.6833 17.8599 29.6833C17.7051 29.6834 17.5201 29.6835 17.3572 29.6702C17.1684 29.6547 16.898 29.6152 16.6147 29.4708C16.2478 29.2838 15.9495 28.9855 15.7625 28.6186C15.6182 28.3353 15.5786 28.0649 15.5632 27.8761C15.5499 27.7132 15.5499 27.5283 15.55 27.3734C15.55 27.3633 15.55 27.3532 15.55 27.3433V24.6567C15.55 24.6468 15.55 24.6367 15.55 24.6266C15.5499 24.4717 15.5499 24.2868 15.5632 24.1239C15.5786 23.9351 15.6182 23.6647 15.7625 23.3814C15.9495 23.0145 16.2478 22.7162 16.6147 22.5292C16.898 22.3848 17.1684 22.3453 17.3572 22.3298C17.5201 22.3165 17.7051 22.3166 17.8599 22.3167C17.8701 22.3167 17.8801 22.3167 17.89 22.3167H20.3167V19.89C20.3167 19.8801 20.3167 19.8701 20.3167 19.8599C20.3166 19.7051 20.3165 19.5201 20.3298 19.3572C20.3453 19.1684 20.3848 18.898 20.5292 18.6147C20.7162 18.2478 21.0145 17.9495 21.3814 17.7625C21.6647 17.6182 21.9351 17.5786 22.1239 17.5632C22.2868 17.5499 22.4717 17.5499 22.6266 17.55ZM22.9167 20.15V22.5767C22.9167 22.5865 22.9167 22.5966 22.9167 22.6067C22.9167 22.7616 22.9168 22.9465 22.9035 23.1094C22.8881 23.2982 22.8485 23.5686 22.7041 23.8519C22.5172 24.2189 22.2189 24.5172 21.8519 24.7041C21.5686 24.8485 21.2982 24.8881 21.1094 24.9035C20.9465 24.9168 20.7616 24.9167 20.6067 24.9167C20.5965 24.9167 20.5865 24.9167 20.5767 24.9167H18.15V27.0833H20.5767C20.5866 27.0833 20.5966 27.0833 20.6068 27.0833C20.7616 27.0833 20.9465 27.0832 21.1094 27.0965C21.2982 27.1119 21.5686 27.1515 21.8519 27.2959C22.2189 27.4828 22.5172 27.7811 22.7041 28.1481C22.8485 28.4314 22.8881 28.7018 22.9035 28.8906C22.9168 29.0535 22.9167 29.2384 22.9167 29.3933C22.9167 29.4034 22.9167 29.4135 22.9167 29.4233V31.85H25.0833V29.4233C25.0833 29.4134 25.0833 29.4034 25.0833 29.3932C25.0833 29.2384 25.0832 29.0535 25.0965 28.8906C25.1119 28.7018 25.1515 28.4314 25.2959 28.1481C25.4828 27.7811 25.7811 27.4828 26.1481 27.2959C26.4314 27.1515 26.7018 27.1119 26.8906 27.0965C27.0535 27.0832 27.2384 27.0833 27.3932 27.0833C27.4034 27.0833 27.4134 27.0833 27.4233 27.0833H29.85V24.9167H27.4233C27.4134 24.9167 27.4034 24.9167 27.3932 24.9167C27.2384 24.9167 27.0535 24.9168 26.8906 24.9035C26.7018 24.8881 26.4314 24.8485 26.1481 24.7041C25.7811 24.5172 25.4828 24.2189 25.2959 23.8519C25.1515 23.5686 25.1119 23.2982 25.0965 23.1094C25.0832 22.9465 25.0833 22.7616 25.0833 22.6068C25.0833 22.5966 25.0833 22.5866 25.0833 22.5767V20.15H22.9167Z" fill="#348AC2"/>
</svg>
