<svg width="48" height="48" viewBox="0 0 48 48" fill="none" xmlns="http://www.w3.org/2000/svg">
<g clip-path="url(#clip0_506_3987)">
<path d="M12.8664 36.6434H42.643V32.2496L39.2289 25.8074L37.2102 26.8762L40.357 32.8137V34.3574H35.3102L36.4977 20.1074H11.1445L12.8664 36.6434ZM34.0336 22.3934L33.0242 34.3574H14.9148L13.668 22.3934H34.0336Z" fill="#348AC2"/>
<path d="M31.9555 10.2805C31.9555 5.88672 28.393 2.32422 23.9992 2.32422C19.6055 2.32422 16.043 5.88672 16.043 10.2805C16.043 14.6742 19.6055 18.2367 23.9992 18.2367C28.393 18.2367 31.9555 14.6742 31.9555 10.2805ZM18.2992 10.2805C18.2992 7.13359 20.8523 4.58047 23.9992 4.58047C27.1461 4.58047 29.6992 7.13359 29.6992 10.2805C29.6992 13.4273 27.1461 15.9805 23.9992 15.9805C20.8523 15.9805 18.2992 13.4273 18.2992 10.2805Z" fill="#348AC2"/>
<path d="M10.759 26.9047L8.74023 25.8359L5.32617 32.2484V36.6422H10.3434V34.3859H7.61211V32.8422L10.759 26.9047Z" fill="#348AC2"/>
<path d="M23.7031 29.2812C24.359 29.2812 24.8906 28.7496 24.8906 28.0938C24.8906 27.4379 24.359 26.9062 23.7031 26.9062C23.0473 26.9062 22.5156 27.4379 22.5156 28.0938C22.5156 28.7496 23.0473 29.2812 23.7031 29.2812Z" fill="#348AC2"/>
</g>
<defs>
<clipPath id="clip0_506_3987">
<rect width="48" height="48" fill="white"/>
</clipPath>
</defs>
</svg>
