<svg width="48" height="48" viewBox="0 0 48 48" fill="none" xmlns="http://www.w3.org/2000/svg">
<path d="M11.0644 4C9.73474 4 8.64062 5.09408 8.64062 6.42377C8.64062 7.46801 9.3193 8.36147 10.2528 8.7007V36.493C9.31947 36.8307 8.64062 37.7195 8.64062 38.7636C8.64062 40.0933 9.73474 41.1875 11.0644 41.1875H36.9351C38.2647 41.1875 39.3588 40.0933 39.3588 38.7636C39.3588 37.7171 38.6771 36.8258 37.7404 36.4899V8.70229C38.677 8.36479 39.3588 7.47029 39.3588 6.42377C39.3588 5.09408 38.2647 4 36.9351 4H11.0644ZM11.0644 5.61847H36.9351C37.3969 5.61847 37.7404 5.96191 37.7404 6.42377C37.7404 6.88563 37.3969 7.23535 36.9351 7.23535H11.0644C10.6025 7.23535 10.2528 6.88563 10.2528 6.42377C10.2528 5.96191 10.6026 5.61847 11.0644 5.61847ZM11.8697 8.85231H15.7841C15.8885 11.2979 16.3785 13.7995 17.1689 16.0321C17.1832 16.1374 17.218 16.2389 17.2715 16.3307C17.2786 16.3424 17.286 16.3539 17.2936 16.3653C17.5228 16.9813 17.768 17.5817 18.0405 18.1449C18.7426 19.5959 19.5814 20.8546 20.5654 21.7798C20.8603 22.0569 21.1734 22.3002 21.4986 22.5125C21.171 22.7303 20.8555 22.9813 20.5591 23.2657C19.5763 24.2084 18.7417 25.4865 18.0405 26.959C16.7443 29.6811 15.9222 33.0811 15.7841 36.3415H11.8697L11.8697 8.85231ZM17.5573 8.85231L30.4421 8.88282C30.339 10.946 30.0017 13.0923 29.4221 15.0189C27.9792 15.6234 26.1633 15.3282 24.1703 14.9462C23.0892 14.7391 21.956 14.5095 20.8338 14.4804C20.0473 14.4581 19.2682 14.5488 18.5142 14.8057C17.9712 12.9251 17.6544 10.8488 17.5573 8.85231ZM32.2154 8.85231H36.1234V36.3414H32.2154C32.0771 33.0709 31.251 29.662 29.9463 26.9352C29.2432 25.4657 28.4011 24.1918 27.4167 23.2529C27.1241 22.9737 26.8131 22.7273 26.4898 22.5124C26.8107 22.303 27.1193 22.0629 27.4104 21.7908C28.396 20.8695 29.2375 19.6229 29.9416 18.1748C30.2684 17.5026 30.5612 16.7831 30.8258 16.0368C30.9253 15.9021 30.9804 15.7399 30.9837 15.5726C31.6836 13.4582 32.1178 11.1309 32.2154 8.85231ZM20.837 16.1158C21.763 16.1433 22.7838 16.3254 23.8655 16.5327C25.431 16.8327 27.1185 17.1706 28.7431 16.8895C28.6597 17.0827 28.5802 17.2798 28.4905 17.4643C27.8492 18.7833 27.0893 19.8781 26.3067 20.6097C25.5241 21.3412 24.7519 21.6977 23.9903 21.696C23.2286 21.6943 22.4576 21.3341 21.6754 20.5986C20.8932 19.8631 20.1361 18.7627 19.4964 17.4406C19.3268 17.0902 19.1727 16.7198 19.0258 16.34C19.5755 16.1595 20.181 16.0959 20.837 16.1158ZM23.9855 23.313C23.9871 23.313 23.9887 23.313 23.9903 23.313C24.746 23.3113 25.5166 23.6755 26.3004 24.423C27.0842 25.1706 27.8419 26.2845 28.4842 27.6268C29.658 30.0802 30.2928 33.3035 30.4422 36.3051L30.0427 36.3068C29.845 36.0759 29.6161 35.8301 29.3084 35.5172C28.8556 35.0567 28.3166 34.5478 27.8052 34.1214C27.8037 34.1198 27.8004 34.1229 27.7989 34.1214C26.7118 33.0355 25.6707 32.4348 24.6361 32.2881C23.6001 32.1411 22.6501 32.4715 21.8602 32.9687C20.3468 33.9215 19.1746 35.4525 18.02 36.3399L17.5574 36.3415C17.7012 33.3375 18.3263 30.1128 19.498 27.6522C20.1386 26.3068 20.8984 25.1856 21.6818 24.4341C22.4636 23.6842 23.2313 23.3161 23.9855 23.313ZM23.9966 24.9599C23.7833 24.9607 23.5789 25.0458 23.4281 25.1967C23.2772 25.3475 23.1921 25.5519 23.1913 25.7652V26.5768C23.1921 26.7901 23.2772 26.9945 23.4281 27.1453C23.5789 27.2962 23.7833 27.3813 23.9966 27.3821C24.211 27.3829 24.417 27.2985 24.5692 27.1475C24.7214 26.9965 24.8074 26.7912 24.8082 26.5768V25.7652C24.8078 25.659 24.7865 25.5539 24.7455 25.456C24.7044 25.3581 24.6445 25.2692 24.5692 25.1944C24.4938 25.1196 24.4045 25.0605 24.3062 25.0202C24.208 24.98 24.1028 24.9595 23.9966 24.9599ZM23.9966 28.6359C23.7822 28.6367 23.5769 28.7226 23.4259 28.8748C23.2748 29.027 23.1905 29.233 23.1913 29.4475V30.2528C23.1909 30.3589 23.2114 30.4641 23.2516 30.5623C23.2919 30.6606 23.3511 30.75 23.4258 30.8254C23.5006 30.9007 23.5895 30.9606 23.6874 31.0016C23.7854 31.0426 23.8904 31.0639 23.9966 31.0643C24.1033 31.0648 24.209 31.044 24.3077 31.0034C24.4063 30.9628 24.496 30.903 24.5714 30.8276C24.6469 30.7521 24.7066 30.6625 24.7473 30.5638C24.7879 30.4652 24.8086 30.3595 24.8082 30.2528V29.4475C24.8086 29.3408 24.7879 29.235 24.7473 29.1364C24.7066 29.0377 24.6469 28.9481 24.5714 28.8726C24.496 28.7972 24.4063 28.7374 24.3077 28.6968C24.209 28.6562 24.1033 28.6355 23.9966 28.6359ZM23.9824 33.8766C24.1217 33.8666 24.2626 33.8741 24.4087 33.894C24.9933 33.9768 25.7265 34.3338 26.6588 35.2661C26.6781 35.2829 26.6981 35.2987 26.7188 35.3135C27.0619 35.5962 27.4353 35.9631 27.7925 36.3115H20.4817C21.2323 35.5786 22.0516 34.7651 22.7255 34.3409C23.1661 34.0634 23.5645 33.9041 23.9824 33.8766ZM11.0644 37.9583H36.9351C37.3969 37.9583 37.7404 38.3017 37.7404 38.7636C37.7404 39.2255 37.3969 39.5689 36.9351 39.5689H11.0644C10.6025 39.5689 10.2528 39.2255 10.2528 38.7636C10.2528 38.3017 10.6025 37.9583 11.0644 37.9583Z" fill="#348AC2"/>
</svg>
