<svg width="48" height="48" viewBox="0 0 48 48" fill="none" xmlns="http://www.w3.org/2000/svg">
<path fill-rule="evenodd" clip-rule="evenodd" d="M24 7.90909C19.9834 7.90909 16.7273 11.1652 16.7273 15.1818C16.7273 17.5409 18.0089 19.3644 19.8674 21.3001C20.3113 21.7625 20.7724 22.2159 21.2479 22.6835L21.2998 22.7346C21.7878 23.2146 22.291 23.7105 22.771 24.2164C23.1924 24.6604 23.6099 25.1263 24 25.6186C24.3901 25.1263 24.8076 24.6604 25.229 24.2164C25.709 23.7105 26.2122 23.2146 26.7002 22.7346L26.7521 22.6835C27.2276 22.2159 27.6887 21.7624 28.1326 21.3001C29.9911 19.3644 31.2727 17.5409 31.2727 15.1818C31.2727 11.1652 28.0166 7.90909 24 7.90909ZM13.8182 15.1818C13.8182 9.55856 18.3767 5 24 5C29.6233 5 34.1818 9.55856 34.1818 15.1818C34.1818 18.7335 32.1907 21.2737 30.2311 23.3149C29.7575 23.8081 29.2696 24.2879 28.802 24.7477L28.7401 24.8086C28.248 25.2926 27.7796 25.7547 27.3392 26.2188C26.4524 27.1534 25.7504 28.0244 25.301 28.9232C25.0546 29.416 24.5509 29.7273 24 29.7273C23.4491 29.7273 22.9454 29.416 22.699 28.9232C22.2496 28.0244 21.5476 27.1534 20.6608 26.2188C20.2204 25.7547 19.752 25.2926 19.2599 24.8086L19.1979 24.7477C18.7304 24.2879 18.2425 23.8081 17.7689 23.3149C15.8093 21.2737 13.8182 18.7335 13.8182 15.1818ZM21.0909 15.1818C21.0909 13.5752 22.3934 12.2727 24 12.2727C25.6066 12.2727 26.9091 13.5752 26.9091 15.1818C26.9091 16.7885 25.6066 18.0909 24 18.0909C22.3934 18.0909 21.0909 16.7885 21.0909 15.1818ZM15.149 23.7385C15.4732 24.4735 15.1402 25.3322 14.4053 25.6564C13.1711 26.2008 12.2611 26.8151 11.6793 27.4253C11.1047 28.0281 10.9091 28.558 10.9091 29C10.9091 29.8786 11.7705 31.1584 14.3117 32.3019C16.7163 33.384 20.1404 34.0909 24 34.0909C27.8596 34.0909 31.2837 33.384 33.6883 32.3019C36.2295 31.1584 37.0909 29.8786 37.0909 29C37.0909 28.558 36.8953 28.0281 36.3207 27.4253C35.7389 26.8151 34.8289 26.2008 33.5947 25.6564C32.8598 25.3322 32.5268 24.4735 32.851 23.7385C33.1752 23.0035 34.0339 22.6706 34.7689 22.9948C36.2277 23.6383 37.4994 24.4458 38.4263 25.418C39.3602 26.3977 40 27.611 40 29C40 31.7364 37.6053 33.7293 34.8821 34.9548C32.0223 36.2417 28.1736 37 24 37C19.8264 37 15.9777 36.2417 13.1179 34.9548C10.3947 33.7293 8 31.7364 8 29C8 27.611 8.63976 26.3977 9.57374 25.418C10.5006 24.4458 11.7723 23.6383 13.2311 22.9948C13.9661 22.6706 14.8248 23.0035 15.149 23.7385Z" fill="#348AC2"/>
</svg>
