<svg width="48" height="48" viewBox="0 0 48 48" fill="none" xmlns="http://www.w3.org/2000/svg">
<g clip-path="url(#clip0_506_3926)">
<path d="M36.8965 3.89417H28.85V3.27521C28.85 3.11105 28.7848 2.95362 28.6687 2.83754C28.5527 2.72146 28.3952 2.65625 28.2311 2.65625H19.5656C19.4015 2.65625 19.244 2.72146 19.128 2.83754C19.0119 2.95362 18.9467 3.11105 18.9467 3.27521V3.89417H10.9002C10.7361 3.89417 10.5786 3.95938 10.4625 4.07546C10.3465 4.19154 10.2812 4.34897 10.2812 4.51313V39.1749C10.2812 39.339 10.3465 39.4964 10.4625 39.6125C10.5786 39.7286 10.7361 39.7938 10.9002 39.7938H36.8965C37.0607 39.7938 37.2181 39.7286 37.3342 39.6125C37.4503 39.4964 37.5155 39.339 37.5155 39.1749V4.51313C37.5155 4.34897 37.4503 4.19154 37.3342 4.07546C37.2181 3.95938 37.0607 3.89417 36.8965 3.89417ZM20.1846 3.89417H27.6121V5.75105C27.6121 5.91521 27.5469 6.07264 27.4308 6.18872C27.3147 6.30479 27.1573 6.37001 26.9932 6.37001H20.8036C20.6394 6.37001 20.482 6.30479 20.3659 6.18872C20.2498 6.07264 20.1846 5.91521 20.1846 5.75105V3.89417ZM20.8036 7.60792H33.8017V36.0801H13.995V7.60792H20.8036ZM36.2775 38.5559H11.5192V5.13209H18.9467V5.75105C18.9487 5.96238 18.9873 6.17178 19.0606 6.37001H13.376C13.2119 6.37001 13.0545 6.43522 12.9384 6.5513C12.8223 6.66737 12.7571 6.82481 12.7571 6.98897V36.699C12.7571 36.8632 12.8223 37.0206 12.9384 37.1367C13.0545 37.2528 13.2119 37.318 13.376 37.318H34.4207C34.5848 37.318 34.7423 37.2528 34.8583 37.1367C34.9744 37.0206 35.0396 36.8632 35.0396 36.699V6.98897C35.0396 6.82481 34.9744 6.66737 34.8583 6.5513C34.7423 6.43522 34.5848 6.37001 34.4207 6.37001H28.7361C28.8095 6.17178 28.848 5.96238 28.85 5.75105V5.13209H36.2775V38.5559Z" fill="#348AC2"/>
<path d="M24.0125 34C25.3344 33.9989 26.6289 33.626 27.7459 32.9246C28.863 32.2232 29.7569 31.222 30.3239 30.0371C30.8909 28.8522 31.1079 27.532 30.9497 26.2297C30.7915 24.9274 30.2646 23.6963 29.4301 22.679L30.7879 20.7925C30.9536 20.5427 31.0154 20.2389 30.9602 19.9449C30.9051 19.6509 30.7373 19.3895 30.492 19.2156C30.2468 19.0417 29.9433 18.9688 29.6451 19.0123C29.3469 19.0557 29.0772 19.2121 28.8927 19.4485L27.6642 21.1534C26.7432 20.5898 25.7029 20.246 24.6253 20.149C23.5476 20.0519 22.462 20.2044 21.4538 20.5943C20.4456 20.9843 19.5423 21.601 18.8151 22.3961C18.0878 23.1912 17.5564 24.1429 17.2626 25.1763C16.9689 26.2097 16.9208 27.2967 17.1222 28.3517C17.3235 29.4067 17.7688 30.4009 18.4231 31.2562C19.0773 32.1115 19.9227 32.8044 20.8925 33.2805C21.8624 33.7566 22.9304 34.0029 24.0125 34ZM24.0125 22.4338C24.8157 22.4387 25.6037 22.652 26.2982 23.0526L23.8633 26.4334L22.5054 25.0859C22.2856 24.8752 21.9911 24.7586 21.6855 24.7613C21.3799 24.7639 21.0876 24.8856 20.8715 25.1C20.6554 25.3144 20.5328 25.6045 20.5301 25.9078C20.5275 26.2111 20.645 26.5032 20.8573 26.7214L23.1884 29.0346C23.4069 29.2515 23.7034 29.3734 24.0125 29.3735C24.0439 29.3735 24.0766 29.3735 24.1081 29.3735C24.2768 29.3595 24.4404 29.3092 24.5875 29.2261C24.7347 29.143 24.8618 29.0291 24.9601 28.8923L27.9906 24.6834C28.4342 25.3983 28.6709 26.2207 28.6748 27.0603C28.6748 27.9753 28.4013 28.8698 27.889 29.6306C27.3767 30.3914 26.6486 30.9844 25.7967 31.3346C24.9447 31.6847 24.0073 31.7764 23.1029 31.5978C22.1985 31.4193 21.3678 30.9787 20.7157 30.3317C20.0637 29.6846 19.6197 28.8603 19.4398 27.9628C19.2599 27.0654 19.3522 26.1352 19.7051 25.2898C20.058 24.4444 20.6555 23.7218 21.4222 23.2135C22.189 22.7051 23.0904 22.4338 24.0125 22.4338Z" fill="#348AC2"/>
<path d="M19.0909 12H28.9091C29.1984 12 29.4759 11.8946 29.6805 11.7071C29.8851 11.5196 30 11.2652 30 11C30 10.7348 29.8851 10.4804 29.6805 10.2929C29.4759 10.1054 29.1984 10 28.9091 10H19.0909C18.8016 10 18.5241 10.1054 18.3195 10.2929C18.1149 10.4804 18 10.7348 18 11C18 11.2652 18.1149 11.5196 18.3195 11.7071C18.5241 11.8946 18.8016 12 19.0909 12Z" fill="#348AC2"/>
<path d="M19.0909 16H28.9091C29.1984 16 29.4759 15.8946 29.6805 15.7071C29.8851 15.5196 30 15.2652 30 15C30 14.7348 29.8851 14.4804 29.6805 14.2929C29.4759 14.1054 29.1984 14 28.9091 14H19.0909C18.8016 14 18.5241 14.1054 18.3195 14.2929C18.1149 14.4804 18 14.7348 18 15C18 15.2652 18.1149 15.5196 18.3195 15.7071C18.5241 15.8946 18.8016 16 19.0909 16Z" fill="#348AC2"/>
</g>
<defs>
<clipPath id="clip0_506_3926">
<rect width="48" height="48" fill="white"/>
</clipPath>
</defs>
</svg>
