<svg width="48" height="49" viewBox="0 0 48 49" fill="none" xmlns="http://www.w3.org/2000/svg">
<path d="M23.9996 18.0774C23.5128 18.0774 23.0369 17.933 22.6321 17.6625C22.2273 17.3921 21.9118 17.0076 21.7255 16.5578C21.5392 16.108 21.4904 15.6131 21.5854 15.1356C21.6804 14.6581 21.9148 14.2195 22.2591 13.8753C22.6033 13.531 23.0419 13.2966 23.5194 13.2016C23.9969 13.1066 24.4918 13.1554 24.9416 13.3417C25.3914 13.528 25.7758 13.8435 26.0463 14.2483C26.3168 14.6531 26.4612 15.129 26.4612 15.6158C26.4612 16.2687 26.2018 16.8948 25.7402 17.3564C25.2786 17.818 24.6525 18.0774 23.9996 18.0774Z" fill="#348AC2"/>
<circle cx="24" cy="23" r="21" stroke="#348AC2" stroke-width="2"/>
<path d="M24 39C20.8355 39 17.7421 38.0616 15.1109 36.3035C12.4797 34.5454 10.4289 32.0466 9.21793 29.1229C8.00693 26.1993 7.69008 22.9823 8.30744 19.8786C8.92481 16.7749 10.4487 13.9239 12.6863 11.6863C14.9239 9.44866 17.7749 7.92481 20.8786 7.30744C23.9823 6.69008 27.1993 7.00693 30.1229 8.21793C33.0466 9.42894 35.5454 11.4797 37.3035 14.1109C39.0616 16.7421 40 19.8355 40 23C40 27.2435 38.3143 31.3131 35.3137 34.3137C32.3131 37.3143 28.2435 39 24 39ZM24 9.46155C21.3224 9.46155 18.7048 10.2556 16.4784 11.7432C14.2521 13.2308 12.5168 15.3452 11.4921 17.8191C10.4674 20.2929 10.1993 23.015 10.7217 25.6412C11.2441 28.2674 12.5335 30.6798 14.4269 32.5731C16.3203 34.4665 18.7326 35.7559 21.3588 36.2783C23.985 36.8007 26.7071 36.5326 29.181 35.5079C31.6548 34.4832 33.7692 32.748 35.2568 30.5216C36.7445 28.2952 37.5385 25.6777 37.5385 23C37.5385 19.4094 36.1121 15.9658 33.5731 13.4269C31.0342 10.8879 27.5906 9.46155 24 9.46155Z" fill="#348AC2"/>
<path d="M23.9996 32.8468C23.3468 32.8468 22.7207 32.5874 22.2591 32.1258C21.7974 31.6642 21.5381 31.0381 21.5381 30.3852V23.0006C21.5381 22.3478 21.7974 21.7217 22.2591 21.26C22.7207 20.7984 23.3468 20.5391 23.9996 20.5391C24.6525 20.5391 25.2786 20.7984 25.7402 21.26C26.2018 21.7217 26.4612 22.3478 26.4612 23.0006V30.3852C26.4612 31.0381 26.2018 31.6642 25.7402 32.1258C25.2786 32.5874 24.6525 32.8468 23.9996 32.8468Z" fill="#348AC2"/>
</svg>
