<svg width="102" height="33" viewBox="0 0 102 33" fill="none" xmlns="http://www.w3.org/2000/svg">
<path d="M29.2267 16.4529C29.2516 16.4351 29.2888 16.4391 29.3366 16.4561L29.3684 16.4315L29.396 16.4083L29.4516 16.3636C29.4884 16.3328 29.5233 16.3007 29.5588 16.2689C29.6287 16.2055 29.6967 16.1399 29.7602 16.0738C29.8844 15.9443 30.0014 15.8085 30.1106 15.6669C30.307 15.408 30.4878 15.1383 30.6519 14.859C30.9738 14.3195 31.1577 13.7809 31.2097 13.3159C31.2617 12.851 31.1844 12.4723 31.0887 12.2378C31.0754 12.2088 31.0625 12.1816 31.051 12.1561L31.0129 12.0748C30.9955 12.0542 30.9762 12.035 30.9554 12.0176C30.9393 12.0042 30.9255 11.9931 30.9117 11.9833C30.8583 11.944 30.8225 11.9288 30.8064 11.9386C30.7903 11.9484 30.7953 12.002 30.8289 12.0837C30.8313 12.0888 30.8335 12.0941 30.8354 12.0994L30.8404 12.1123C30.8436 12.1213 30.8469 12.1302 30.8505 12.1396C30.8542 12.1489 30.8505 12.161 30.8505 12.1726V12.1896L30.8528 12.2115C30.8556 12.2418 30.8606 12.2735 30.8629 12.3079C30.8652 12.3423 30.8671 12.379 30.8694 12.4174C30.8779 12.6025 30.8679 12.7879 30.8395 12.9712C30.8001 13.2124 30.7336 13.4487 30.6413 13.6759C30.5869 13.8089 30.5255 13.939 30.4573 14.0658C30.3842 14.2037 30.3038 14.3379 30.2164 14.4678C30.1938 14.5017 30.1704 14.5356 30.1474 14.57L30.0724 14.6768C30.0223 14.7478 29.9708 14.8197 29.9179 14.8911C29.8121 15.0345 29.7009 15.1779 29.5813 15.3163C29.4603 15.4568 29.3308 15.5903 29.1936 15.716C29.1233 15.7786 29.0515 15.8411 28.9756 15.8996C28.9418 15.9271 28.9065 15.9529 28.8699 15.9769C28.834 16.0005 28.7972 16.0215 28.7586 16.0438C28.6836 16.0857 28.6046 16.1203 28.5227 16.147C28.4524 16.1714 28.3787 16.1849 28.3042 16.1872C28.29 16.1879 28.2757 16.1879 28.2615 16.1872C28.2486 16.1836 28.2357 16.1845 28.2228 16.1801C28.1957 16.1736 28.1695 16.164 28.1446 16.1515C28.0857 16.1201 28.0337 16.0777 27.9915 16.0269L27.9699 16.001C27.9239 16.0175 27.8862 16.0179 27.8752 16.001C27.8641 15.984 27.8752 15.9532 27.9152 15.9166C27.8973 15.8848 27.8819 15.8518 27.8692 15.8179C27.8637 15.8004 27.8591 15.7853 27.8536 15.7661C27.848 15.7469 27.8425 15.7245 27.8384 15.7031C27.82 15.6182 27.8093 15.532 27.8062 15.4454C27.8003 15.269 27.8188 15.0926 27.8614 14.9211C27.9481 14.5618 28.0688 14.211 28.2219 13.8733C28.4739 13.3026 28.8405 12.7864 29.3003 12.3548C29.4006 12.2655 29.498 12.1802 29.5928 12.1114C29.6792 12.0466 29.7716 11.9897 29.8687 11.9413C29.9498 11.9016 30.0355 11.8716 30.1239 11.852C30.3061 11.8133 30.4963 11.8322 30.6666 11.906C30.7388 11.9364 30.782 11.9582 30.8013 11.9431C30.8206 11.9279 30.8119 11.8868 30.7664 11.8211C30.6938 11.7269 30.5955 11.6542 30.4826 11.6112C30.4011 11.578 30.3152 11.5562 30.2274 11.5465C30.122 11.5349 30.0154 11.5384 29.911 11.5567C29.6669 11.6047 29.4351 11.6998 29.2295 11.8363C28.9874 11.9898 28.763 12.168 28.5599 12.3678C28.326 12.5991 28.1176 12.8536 27.9382 13.127C27.7397 13.4308 27.572 13.7525 27.4374 14.0877C27.401 14.1743 27.3702 14.2663 27.3371 14.3557C27.304 14.445 27.2746 14.5379 27.2493 14.6321L27.2088 14.7732C27.1955 14.8237 27.1831 14.876 27.1725 14.9282C27.15 15.0345 27.1347 15.142 27.1265 15.2502C27.1417 15.2641 27.1507 15.2831 27.1518 15.3034C27.1491 15.3241 27.1382 15.343 27.1214 15.3561C27.1163 15.5389 27.1349 15.7217 27.1766 15.9C27.1883 15.9495 27.2026 15.9984 27.2194 16.0465C27.2371 16.0963 27.2577 16.145 27.281 16.1926C27.3286 16.2886 27.388 16.3786 27.4581 16.4605C27.5115 16.5238 27.5716 16.5814 27.6374 16.6325C27.6711 16.6589 27.7063 16.6835 27.7427 16.7062C27.7802 16.7288 27.8191 16.7492 27.8591 16.7674C27.9411 16.8052 28.0281 16.832 28.1175 16.8473C28.2047 16.8616 28.2934 16.8652 28.3815 16.858C28.5332 16.8442 28.6819 16.8082 28.8225 16.7513C28.9512 16.7005 29.0744 16.6375 29.1904 16.5633C29.1918 16.5056 29.201 16.4704 29.2267 16.4529Z" fill="black"/>
<path d="M33.6089 15.0433C33.6291 15.0362 33.6549 15.0518 33.6885 15.0849C33.9575 14.9786 34.2104 14.8616 34.4473 14.7401C34.6841 14.6186 34.9071 14.494 35.1085 14.369C35.4637 14.151 35.8049 13.9123 36.1304 13.6544C36.6753 13.2194 36.9581 12.9126 36.9094 12.8505C36.8804 12.813 36.7397 12.8625 36.5075 12.9778C36.2752 13.093 35.9519 13.2756 35.5532 13.4936C35.1545 13.7115 34.6795 13.9634 34.1373 14.1997C33.5575 14.4589 32.9517 14.6593 32.3296 14.7977L32.2918 14.8062C32.2854 14.8571 32.2721 14.8875 32.2509 14.8915C32.2298 14.8955 32.2049 14.8723 32.1787 14.8281C31.5801 14.9483 30.967 14.9854 30.3576 14.9384C30.2197 14.9281 30.0817 14.9098 29.9525 14.8906L29.7598 14.8575C29.6986 14.8433 29.637 14.833 29.5781 14.8174C29.3588 14.7653 29.1452 14.6928 28.9403 14.6007C28.6441 14.471 28.3781 14.2841 28.1585 14.0514C28.0031 13.883 27.9286 13.766 27.8794 13.7834C27.8592 13.7903 27.85 13.8233 27.8518 13.8826C27.8524 13.9191 27.8575 13.9554 27.867 13.9907C27.872 14.0112 27.878 14.0353 27.8849 14.0577C27.8916 14.0833 27.9003 14.1084 27.9111 14.1327C27.9341 14.1912 27.9616 14.2479 27.9934 14.3024C28.0114 14.3319 28.0275 14.3649 28.05 14.3953C28.0725 14.4257 28.096 14.4578 28.1185 14.4913C28.234 14.6364 28.3681 14.7666 28.5177 14.8785C28.6983 15.014 28.8945 15.1288 29.1022 15.2206C29.2175 15.2726 29.3355 15.3185 29.4558 15.3582C29.5179 15.3778 29.5818 15.3979 29.6462 15.4154L29.8421 15.4649C30.4262 15.5971 31.0284 15.6366 31.6255 15.5819C31.6356 15.5641 31.6471 15.5529 31.6604 15.5516C31.6687 15.5521 31.6767 15.5545 31.6839 15.5585C31.6911 15.5626 31.6972 15.5681 31.7018 15.5748C31.9631 15.5488 32.2226 15.5082 32.479 15.4533C32.8535 15.372 33.2211 15.263 33.5786 15.1273C33.5795 15.0804 33.5887 15.0505 33.6089 15.0433Z" fill="black"/>
<path d="M39.5639 16.2246C39.585 16.2231 39.6061 16.2266 39.6254 16.2349C39.6447 16.2432 39.6617 16.2559 39.6748 16.272C40.5708 16.098 41.446 15.8352 42.2868 15.4877C42.3829 15.4498 42.4758 15.4087 42.5669 15.368C42.6579 15.3274 42.7508 15.2881 42.8364 15.247L43.0934 15.1224L43.2181 15.0612L43.339 14.9978L43.5735 14.8736C43.6494 14.8321 43.7225 14.7888 43.7947 14.7477C43.8669 14.7066 43.9378 14.6668 44.0054 14.6253L44.2026 14.5025C44.6039 14.2537 44.9848 13.9754 45.3422 13.67C45.5882 13.4507 45.7055 13.3127 45.6811 13.2832C45.6664 13.2649 45.6029 13.2832 45.4972 13.3346C45.4438 13.3601 45.3794 13.3936 45.3049 13.4351C45.2304 13.4766 45.1431 13.5217 45.047 13.5762C44.662 13.7906 44.1074 14.0996 43.3979 14.4248C43.0415 14.5851 42.6487 14.753 42.2183 14.9111C41.7879 15.0692 41.3211 15.2184 40.8231 15.3506C40.303 15.4889 39.7757 15.5998 39.2434 15.6829C38.6915 15.7673 38.1241 15.8169 37.5649 15.7615L37.5005 15.7539C37.466 15.7986 37.4297 15.8222 37.3938 15.8173C37.3579 15.8124 37.3308 15.7793 37.3115 15.728C37.2443 15.7186 37.1795 15.7025 37.1142 15.6891C37.0489 15.6757 36.9859 15.657 36.922 15.64C36.7987 15.6031 36.6777 15.5595 36.5596 15.5091C36.4598 15.4668 36.3669 15.4107 36.2837 15.3426C36.2505 15.3149 36.221 15.2834 36.1958 15.2488C36.172 15.2155 36.1529 15.1793 36.1388 15.1411C36.1058 15.048 36.0888 14.9502 36.0887 14.8517C36.0859 14.7981 36.0924 14.7405 36.0937 14.6852C36.0951 14.6298 36.1066 14.5744 36.1135 14.519C36.1542 14.2988 36.2273 14.0853 36.3306 13.8853C36.5352 13.4833 36.83 13.1336 37.1317 12.8304C37.4333 12.5271 37.7396 12.2699 38.0445 12.1158C38.1854 12.0412 38.3372 11.988 38.4947 11.9581C38.5641 11.9444 38.6346 11.9372 38.7053 11.9367C38.7385 11.9367 38.7711 11.9407 38.8038 11.9416C38.8364 11.9425 38.8686 11.9519 38.9003 11.9564C39.0202 11.9813 39.135 12.0252 39.2402 12.0863C39.3305 12.1374 39.4125 12.2012 39.4834 12.2757C39.5833 12.3804 39.6541 12.5082 39.689 12.6468C39.6941 12.6714 39.7033 12.6937 39.7056 12.7134C39.7079 12.733 39.7125 12.75 39.7161 12.7638C39.724 12.792 39.7336 12.8085 39.7451 12.8107C39.7566 12.813 39.7676 12.8031 39.781 12.7799C39.7893 12.7656 39.7966 12.7506 39.8026 12.7352C39.8063 12.7263 39.8104 12.716 39.8136 12.7053C39.8169 12.6946 39.8182 12.6825 39.8205 12.67C39.8482 12.5177 39.8235 12.3608 39.7502 12.2234C39.7387 12.2007 39.7263 12.1788 39.7138 12.1538C39.7014 12.1288 39.6844 12.1091 39.6679 12.085C39.6339 12.0361 39.5963 11.9899 39.5552 11.9465C39.4599 11.8496 39.3503 11.767 39.2301 11.7013C39.0879 11.623 38.9319 11.5712 38.7702 11.5486C38.7242 11.5428 38.6814 11.5406 38.6354 11.537C38.5895 11.5334 38.5471 11.537 38.5016 11.537C38.4561 11.537 38.4096 11.5441 38.3637 11.5486C38.3177 11.5531 38.2717 11.562 38.2257 11.5718C38.0357 11.6126 37.8521 11.6773 37.6794 11.7643C37.4984 11.8559 37.326 11.9627 37.1643 12.0836C36.9956 12.2093 36.8339 12.3435 36.6796 12.4856C36.5132 12.6373 36.3565 12.7988 36.2106 12.9693C36.0523 13.1533 35.9117 13.3511 35.7907 13.5601C35.6589 13.787 35.5593 14.03 35.4945 14.2828C35.4794 14.3489 35.4614 14.4167 35.4527 14.4833L35.4375 14.5856C35.4325 14.6199 35.4315 14.6548 35.4283 14.6896C35.4143 14.8361 35.4189 14.9837 35.4421 15.1291C35.4678 15.2973 35.5295 15.4584 35.6233 15.602C35.7201 15.7438 35.8452 15.8653 35.9912 15.9593C36.0189 15.9576 36.0465 15.9637 36.0707 15.9767C36.094 15.9916 36.1121 16.0129 36.1227 16.0379C36.2288 16.0955 36.3392 16.1452 36.4529 16.1867L36.5357 16.2188L36.6194 16.2461C36.6759 16.2644 36.732 16.2836 36.7891 16.2974C37.0175 16.3605 37.2513 16.404 37.4876 16.4274C38.1894 16.4962 38.8571 16.4184 39.4738 16.3077C39.4995 16.2617 39.5276 16.2313 39.5639 16.2246Z" fill="black"/>
<path d="M50.8174 3.2983C50.8174 3.29473 50.8174 3.2916 50.8174 3.28848C50.8174 3.28535 50.8174 3.2849 50.8174 3.28356C50.8119 3.27418 50.8064 3.26525 50.8004 3.25632C50.7944 3.24738 50.7903 3.23756 50.7852 3.22774C50.7802 3.21791 50.7696 3.20809 50.7632 3.1996L50.6712 3.13841L50.6073 3.09375L50.6036 3.08973L50.473 3.01291C50.4395 2.99319 50.4013 2.98236 50.3621 2.9815C50.323 2.98064 50.2843 2.98978 50.2499 3.008C50.2211 3.0232 50.1962 3.0444 50.1768 3.07008C49.859 3.48945 49.5965 3.95303 49.3132 4.3916C49.2741 4.45145 49.2359 4.51174 49.1978 4.57025L49.1899 4.5841C49.0759 4.79579 48.9637 5.00838 48.845 5.21471C48.5939 5.6515 48.3852 6.11999 48.1226 6.55454C48.1176 6.56232 48.1135 6.57054 48.1102 6.5791C48.0255 6.77829 47.934 6.97837 47.8393 7.18114C47.8132 7.22914 47.8063 7.28482 47.82 7.33745C47.8211 7.33975 47.8217 7.34227 47.8217 7.34482C47.8217 7.34737 47.8211 7.34989 47.82 7.35219C47.8176 7.35689 47.8135 7.36055 47.8085 7.36246C47.7579 7.38695 47.7187 7.42905 47.6986 7.48037C47.3454 8.23112 46.9987 9.03056 46.6689 9.86483L46.4808 10.3521C46.4657 10.3993 46.4695 10.4504 46.4914 10.495C46.493 10.4996 46.493 10.5046 46.4914 10.5093C46.4894 10.5137 46.4858 10.5172 46.4813 10.5191C46.4349 10.5399 46.3982 10.5766 46.3783 10.6223C46.0518 11.5039 45.7533 12.3587 45.5317 13.189C45.3109 14.0085 45.1725 14.8021 45.1362 15.5341C45.1366 15.5848 45.1563 15.6336 45.1914 15.6712C45.1932 15.6729 45.1946 15.675 45.1956 15.6772C45.1966 15.6795 45.1971 15.6819 45.1971 15.6844C45.1971 15.6869 45.1966 15.6893 45.1956 15.6916C45.1946 15.6938 45.1932 15.6959 45.1914 15.6976C45.1537 15.7314 45.1309 15.7779 45.1274 15.8275C45.1274 15.9495 45.1274 16.0696 45.1274 16.1871C45.1362 16.3385 45.1399 16.4849 45.1546 16.6292C45.1773 16.9063 45.2305 17.1803 45.3132 17.4465C45.3877 17.6863 45.5022 17.9126 45.6522 18.1164C45.6848 18.1611 45.7234 18.2057 45.7598 18.2464C45.7598 18.2495 45.7648 18.2522 45.7676 18.2553C45.8062 18.2946 45.8435 18.3335 45.8835 18.3674C45.9608 18.4359 46.0445 18.4972 46.1336 18.5505C46.2827 18.6404 46.4467 18.7043 46.6183 18.7394C46.7439 18.7644 46.8729 18.7689 47 18.7528C47.045 18.7467 47.0893 18.7369 47.1325 18.7234C47.1643 18.7146 47.1951 18.7026 47.2244 18.6876C47.2704 18.6626 47.2916 18.643 47.2875 18.6323C47.2833 18.6215 47.2691 18.618 47.2415 18.6153C47.2139 18.6126 47.1775 18.6153 47.1283 18.6117C46.9905 18.6098 46.8537 18.5869 46.7232 18.5438C46.5196 18.4742 46.3346 18.3611 46.1819 18.2129C46.0873 18.122 46.0057 18.0191 45.9396 17.907C45.8631 17.7785 45.8025 17.6416 45.7593 17.4992C45.6623 17.1973 45.6213 16.8396 45.6213 16.4443C45.618 16.0189 45.6468 15.5937 45.7073 15.1724C45.7759 14.6978 45.8725 14.2275 45.9966 13.7637C46.1162 13.3171 46.2592 12.854 46.4215 12.3792C46.4328 12.35 46.4368 12.3187 46.4335 12.2877C46.4301 12.2567 46.4194 12.2269 46.4022 12.2006C46.3994 12.1977 46.3974 12.1942 46.3963 12.1904C46.3952 12.1866 46.395 12.1826 46.3958 12.1787C46.3958 12.172 46.4045 12.1676 46.4151 12.1644C46.4456 12.1532 46.473 12.1353 46.4951 12.1121C46.5172 12.0888 46.5334 12.0609 46.5425 12.0304C46.7655 11.4007 47.0078 10.7487 47.2695 10.0872C47.487 9.53701 47.7243 9.00823 47.9708 8.50177C47.9816 8.47623 47.9869 8.44878 47.9861 8.42118C47.9854 8.39357 47.9788 8.36642 47.9667 8.34144C47.9646 8.33642 47.9646 8.33082 47.9667 8.3258C47.9686 8.32235 47.9714 8.31941 47.9747 8.31723C47.9781 8.31505 47.982 8.3137 47.986 8.3133C48.0165 8.3046 48.0447 8.28948 48.0685 8.26903C48.0924 8.24857 48.1113 8.22329 48.124 8.19495C48.3631 7.72065 48.6137 7.26957 48.8598 6.83904C48.9977 6.60724 49.1274 6.37947 49.2626 6.16108L49.4608 5.83639C49.5068 5.76002 49.5555 5.68499 49.6029 5.61041L49.6112 5.59611C49.8074 5.21649 50.0162 4.84432 50.2375 4.47958C50.4675 4.11478 50.6633 3.73064 50.8225 3.3318C50.8225 3.32376 50.8225 3.31572 50.8225 3.30812L50.8183 3.28936L50.8174 3.2983Z" fill="black"/>
<path d="M50.1053 7.19988C50.1246 7.19631 50.1448 7.20881 50.166 7.23382C52.2404 6.84616 53.8114 6.70771 53.8054 6.59427C53.8022 6.53576 53.2535 6.50272 52.3687 6.54961L52.022 6.5715C51.9011 6.57954 51.776 6.59249 51.6463 6.6041C51.3869 6.62598 51.111 6.66082 50.8185 6.69655C50.2382 6.7747 49.6022 6.8801 48.9413 7.01989L48.9032 7.02838C48.8935 7.06366 48.8788 7.08599 48.8572 7.09046C48.8356 7.09493 48.8112 7.08153 48.7891 7.05384C47.6959 7.29052 46.6229 7.60764 45.5792 8.00244L45.4334 8.05782L45.2955 8.11409L45.0458 8.21904C44.8899 8.28425 44.7583 8.34678 44.6521 8.40037C44.4392 8.50711 44.3302 8.57902 44.3394 8.6076C44.3854 8.7197 46.0446 8.13598 48.281 7.62505C48.2838 7.61917 48.2879 7.61389 48.2928 7.60953C48.2978 7.60516 48.3036 7.60178 48.3099 7.59959C48.3166 7.59864 48.3235 7.59902 48.33 7.60071C48.3366 7.60239 48.3428 7.60536 48.3481 7.60942C48.5725 7.55717 48.8038 7.50938 49.0379 7.45623L49.5548 7.34994C49.7245 7.3151 49.8923 7.28474 50.057 7.25258C50.0712 7.22132 50.0855 7.20211 50.1053 7.19988Z" fill="black"/>
<path d="M53.1869 16.2982C53.2122 16.2803 53.2494 16.2843 53.2973 16.3013L53.329 16.2767L53.3566 16.2535L53.4122 16.2088C53.449 16.178 53.4835 16.1459 53.5194 16.1146C53.5893 16.0507 53.6573 15.9851 53.7203 15.919C53.8448 15.7897 53.962 15.6538 54.0712 15.5121C54.2676 15.2533 54.4484 14.9835 54.6125 14.7042C54.9344 14.1647 55.1183 13.6261 55.1703 13.1612C55.2223 12.6962 55.145 12.3175 55.0494 12.083L55.0112 12.0013L54.9735 11.9205C54.9561 11.8997 54.9368 11.8804 54.916 11.8629C54.8999 11.8495 54.8861 11.8383 54.8723 11.8285C54.819 11.7892 54.7831 11.774 54.7665 11.7838C54.75 11.7936 54.756 11.8472 54.7895 11.929C54.7918 11.9339 54.7937 11.9392 54.796 11.9446L54.801 11.958L54.8111 11.9852C54.8111 11.9951 54.8111 12.0062 54.8111 12.0178C54.8111 12.0294 54.8111 12.029 54.8111 12.0348C54.8111 12.0406 54.8111 12.0495 54.8111 12.0571C54.8111 12.0871 54.819 12.1188 54.8213 12.1532C54.8236 12.1876 54.8254 12.2242 54.8277 12.2626C54.8362 12.4477 54.8262 12.6332 54.7978 12.8164C54.7584 13.0578 54.6919 13.2942 54.5996 13.5216C54.5454 13.6545 54.484 13.7845 54.4157 13.911C54.3429 14.0491 54.2627 14.1833 54.1751 14.313C54.1526 14.3469 54.1292 14.3809 54.1062 14.4152L54.0367 14.5242C53.9867 14.5957 53.9352 14.6671 53.8822 14.7386C53.7764 14.882 53.6651 15.0253 53.5456 15.1638C53.4245 15.3044 53.2949 15.4379 53.1574 15.5635C53.0875 15.626 53.0158 15.6885 52.9399 15.747C52.9004 15.7792 52.8709 15.7997 52.8342 15.8248C52.7974 15.8498 52.7615 15.8694 52.7229 15.8913C52.6479 15.9332 52.5689 15.9677 52.487 15.9945C52.4168 16.019 52.3431 16.0327 52.2685 16.0351C52.2543 16.0358 52.24 16.0358 52.2258 16.0351C52.2129 16.0315 52.1995 16.0324 52.1871 16.028C52.1601 16.0215 52.1338 16.012 52.1089 15.9998C52.0501 15.9681 51.9981 15.9256 51.9558 15.8748L51.9342 15.8489C51.8882 15.8654 51.8505 15.8658 51.839 15.8489C51.8275 15.8319 51.8418 15.8011 51.8795 15.7645C51.8616 15.7327 51.8462 15.6997 51.8335 15.6658L51.8174 15.6139C51.8128 15.593 51.8068 15.5724 51.8027 15.551C51.7843 15.4661 51.7735 15.3799 51.7705 15.2933C51.7646 15.1169 51.7831 14.9405 51.8257 14.769C51.9124 14.4097 52.0331 14.0589 52.1862 13.7212C52.4382 13.1505 52.8048 12.6343 53.2646 12.2027C53.3648 12.1134 53.4619 12.0286 53.5566 11.9593C53.6431 11.8946 53.7355 11.8377 53.8325 11.7892C53.9136 11.7495 53.9993 11.7195 54.0878 11.6999C54.27 11.6612 54.4601 11.6801 54.6304 11.7539C54.7026 11.7843 54.7458 11.8061 54.7647 11.791C54.7835 11.7758 54.7757 11.7351 54.7297 11.669C54.6574 11.5747 54.5593 11.5019 54.4465 11.4591C54.3649 11.4261 54.279 11.4044 54.1912 11.3944C54.0858 11.3828 53.9792 11.3863 53.8748 11.4046C53.6307 11.4526 53.399 11.5477 53.1933 11.6842C52.9513 11.8377 52.7268 12.0159 52.5237 12.2157C52.2898 12.4471 52.0813 12.7016 51.9015 12.9749C51.7035 13.2789 51.5359 13.6006 51.4012 13.9356C51.3649 14.0249 51.3341 14.1142 51.3005 14.2036C51.2669 14.2929 51.2384 14.3858 51.2131 14.48C51.1993 14.5247 51.186 14.5738 51.1726 14.6211C51.1593 14.6685 51.1469 14.7238 51.1359 14.7761C51.1136 14.8824 51.0983 14.99 51.0899 15.0981C51.1051 15.1121 51.1142 15.1313 51.1152 15.1517C51.1123 15.1723 51.1015 15.191 51.0848 15.204C51.0797 15.3868 51.0982 15.5696 51.14 15.7479C51.1514 15.7975 51.1657 15.8464 51.1828 15.8944C51.2005 15.9442 51.2211 15.9929 51.2444 16.0405C51.2919 16.1365 51.3514 16.2264 51.4214 16.3084C51.4749 16.3717 51.535 16.4293 51.6008 16.4804C51.6345 16.5068 51.6696 16.5314 51.7061 16.5541C51.7436 16.5767 51.7825 16.5971 51.8224 16.6153C51.9044 16.6533 51.9914 16.6802 52.0809 16.6952C52.1681 16.7094 52.2567 16.7132 52.3449 16.7064C52.4966 16.6926 52.6453 16.6565 52.7859 16.5992C52.9137 16.5482 53.0362 16.4852 53.1515 16.4112C53.1524 16.3509 53.163 16.3156 53.1869 16.2982Z" fill="black"/>
<path d="M57.5702 14.8888C57.5904 14.8816 57.6162 14.8977 57.6497 14.9303C57.9188 14.824 58.1717 14.707 58.4085 14.5855C58.6453 14.4641 58.8684 14.3395 59.0698 14.2144C59.425 13.9966 59.7663 13.758 60.0916 13.4998C60.6366 13.0648 60.9194 12.758 60.8707 12.6959C60.8417 12.6584 60.701 12.708 60.4687 12.8237C60.2365 12.9393 59.9132 13.1211 59.5145 13.339C59.1158 13.557 58.6407 13.8089 58.0986 14.0451C57.5187 14.305 56.9127 14.506 56.2903 14.6449L56.2526 14.6534C56.2462 14.7043 56.2329 14.7347 56.2117 14.7387C56.1906 14.7428 56.1657 14.7195 56.1395 14.6753C55.5409 14.7955 54.9278 14.8327 54.3184 14.7856C54.1805 14.7754 54.0425 14.757 53.9133 14.7378L53.7206 14.7048C53.659 14.6905 53.5978 14.6807 53.5366 14.6646C53.3172 14.6129 53.1036 14.5403 52.8988 14.448C52.6025 14.3184 52.3365 14.1315 52.117 13.8987C51.9616 13.7303 51.8871 13.6133 51.8379 13.6307C51.8177 13.6375 51.8084 13.6706 51.8103 13.7298C51.8109 13.7663 51.816 13.8026 51.8255 13.8379C51.8304 13.8588 51.8364 13.8811 51.8434 13.9049C51.85 13.9306 51.8588 13.9557 51.8696 13.9799C51.8926 14.0385 51.9201 14.0952 51.9519 14.1497C51.9691 14.1816 51.988 14.2126 52.0085 14.2425L52.077 14.3386C52.1925 14.4836 52.3265 14.6139 52.4757 14.7262C52.6568 14.8614 52.853 14.9761 53.0607 15.0683C53.176 15.1199 53.2941 15.1657 53.4143 15.2054C53.4764 15.2251 53.5403 15.2452 53.6047 15.2626L53.8006 15.3126C54.3847 15.4444 54.9869 15.4838 55.584 15.4292C55.5941 15.4113 55.6056 15.4002 55.6189 15.3988C55.6272 15.3994 55.6353 15.4019 55.6425 15.406C55.6497 15.4101 55.6558 15.4157 55.6603 15.4225C55.9215 15.3961 56.181 15.3554 56.4375 15.3006C56.812 15.2192 57.1796 15.1103 57.5371 14.9745C57.5407 14.9263 57.5499 14.8959 57.5702 14.8888Z" fill="black"/>
<path d="M59.8555 14.286C59.6743 15.0658 59.5717 15.7344 59.5552 16.1448C59.6665 16.1728 59.7778 16.2026 59.889 16.2341C60.1093 15.7629 60.4055 14.8545 60.6906 13.8001L60.6966 13.7773C60.6506 13.7523 60.6276 13.7326 60.6308 13.7206C60.634 13.7085 60.6639 13.705 60.715 13.7094C60.9647 12.7715 61.1468 11.9368 61.2107 11.4134C61.0985 11.3477 60.9863 11.2825 60.8722 11.2205C60.6667 11.6224 60.4027 12.3102 60.1585 13.1387C60.1732 13.1503 60.1815 13.1601 60.1797 13.1672C60.1778 13.1744 60.1654 13.1784 60.1466 13.1797C60.1061 13.316 60.067 13.4566 60.0284 13.5996C59.9709 13.8126 59.918 14.0207 59.8706 14.2221C59.9111 14.2445 59.9332 14.2623 59.93 14.2744C59.9268 14.2864 59.9001 14.2887 59.8555 14.286Z" fill="black"/>
<path d="M63.0667 12.6088C63.0782 12.6017 63.1017 12.6173 63.133 12.6486L63.3629 12.5146L63.5873 12.3931C63.7172 12.3206 63.8523 12.2573 63.9915 12.2037C64.0991 12.1619 64.2129 12.1373 64.3286 12.1309H64.3659H64.4022C64.4155 12.1309 64.4229 12.1309 64.4339 12.1336C64.444 12.1342 64.454 12.1357 64.4638 12.1381C64.5051 12.146 64.5451 12.159 64.5829 12.1769C64.6521 12.2104 64.7144 12.2558 64.7669 12.3109C64.8077 12.3535 64.8407 12.4026 64.8644 12.4561C64.9057 12.5454 64.9062 12.6213 64.9462 12.6378C64.9674 12.6468 64.9986 12.6343 65.0354 12.59C65.0831 12.5204 65.1063 12.4377 65.1017 12.3542C65.0958 12.2216 65.0496 12.0937 64.9687 11.9867C64.9198 11.9189 64.8606 11.8587 64.7931 11.808C64.7143 11.7472 64.6246 11.7009 64.5287 11.6714C64.324 11.6126 64.1074 11.6045 63.8986 11.6477C63.6869 11.6914 63.4812 11.759 63.2856 11.8491C62.8609 12.0327 62.4562 12.2571 62.0775 12.519L62.0546 12.5351C62.0734 12.582 62.0785 12.6119 62.0656 12.6204C62.0527 12.6289 62.0251 12.6151 61.9851 12.5829C61.6221 12.8433 61.2856 13.1368 60.9803 13.4596C60.732 13.7205 60.509 14.0031 60.3139 14.3037C59.9842 14.8177 59.8784 15.1822 59.9548 15.225C60.1125 15.3144 60.8129 14.3166 62.0532 13.3743C62.0481 13.3569 62.0472 13.3439 62.0532 13.339C62.0591 13.3341 62.0729 13.3368 62.0895 13.3457C62.1507 13.297 62.2155 13.2519 62.2803 13.2046L62.3774 13.1336C62.41 13.1104 62.4441 13.0889 62.4776 13.0648L62.6257 12.9625L62.7742 12.8719C62.8717 12.8062 62.972 12.7486 63.0686 12.6883C63.0571 12.6432 63.0552 12.6155 63.0667 12.6088Z" fill="black"/>
<path d="M71.2454 15.9449C71.2583 15.9449 71.2698 15.969 71.2799 16.0115C72.6278 15.9695 73.628 15.8328 73.6252 15.6756C73.6252 15.4907 72.2456 15.3465 70.5441 15.354H70.5193C70.5087 15.4027 70.4967 15.43 70.4834 15.43C70.4701 15.43 70.4577 15.4032 70.4462 15.3545C68.7906 15.3674 67.4634 15.5211 67.4644 15.7024C67.4644 15.869 68.5855 16.0021 70.0516 16.0217C70.058 16.0048 70.0654 15.9945 70.0732 15.9945C70.081 15.9945 70.0884 16.0048 70.0953 16.0222C70.2429 16.0222 70.3937 16.0222 70.5469 16.0222C70.7768 16.0222 70.9971 16.0177 71.2109 16.0115C71.2215 15.9699 71.233 15.9449 71.2454 15.9449Z" fill="black"/>
<path d="M36 33V26H38V33H36Z" fill="black"/>
<path d="M45.3033 33L43 26H44.4109L46.042 31.1804L47.6197 26H49L46.6925 33H45.3033Z" fill="black"/>
<path d="M54 32.9987V26H59V27.1837H55.4726V28.84H58.5171V30.0257H55.4726V33L54 32.9987Z" fill="black"/>
<path d="M13.563 1.08173C13.5593 1.04868 13.5552 1.01563 13.551 0.983031V0.976777C13.5507 0.97336 13.5507 0.969924 13.551 0.966506C13.5409 0.901748 13.5303 0.836985 13.5175 0.772226C13.4922 0.639688 13.4572 0.509089 13.4126 0.381441C13.4043 0.358217 13.3956 0.334996 13.3864 0.311772C13.3832 0.306413 13.3795 0.299269 13.3749 0.290783C13.3442 0.232919 13.3103 0.176712 13.2733 0.12241C13.2535 0.101866 13.2328 0.0817679 13.213 0.0607771L13.2002 0.0545239L12.892 0.0228163H12.8893C12.8893 0.0228163 12.8557 0.0228137 12.8083 0.020134L12.6359 0.011651L12.4634 0.00316254C12.4174 0.00316254 12.3834 -0.000407953 12.382 3.86581e-05C12.3287 0.335444 12.2933 0.696305 12.2685 1.08262C12.2634 1.17909 12.2528 1.27645 12.2441 1.3756C12.2353 1.47475 12.2271 1.57568 12.2188 1.67751C12.2035 1.88265 12.1881 2.09271 12.1728 2.30768C12.21 2.32956 12.2303 2.35234 12.2271 2.3702C12.2238 2.38807 12.2022 2.40102 12.1659 2.4095C12.0569 3.59972 11.8927 4.95519 11.4867 6.37006C11.5161 6.39328 11.5327 6.41472 11.5258 6.43214C11.5189 6.44955 11.4968 6.46072 11.4586 6.46608C11.3801 6.73405 11.3006 7.00618 11.2199 7.28248C11.1338 7.5567 11.0472 7.8342 10.9601 8.11496C10.875 8.39588 10.7812 8.67814 10.6874 8.96353C10.5936 9.24891 10.5035 9.53698 10.4032 9.82594C10.3158 10.0832 10.2289 10.3386 10.1425 10.5923C10.1774 10.6205 10.1954 10.645 10.1885 10.6647C10.1816 10.6843 10.153 10.6933 10.108 10.6955C9.28021 13.0929 8.4713 15.2956 7.85462 17.1405C7.88911 17.1691 7.90658 17.1941 7.9006 17.2133C7.89463 17.2325 7.86519 17.2419 7.82105 17.2437C7.69274 17.6273 7.57042 17.9936 7.46051 18.3437C7.40532 18.5188 7.35152 18.6889 7.29909 18.8542C7.27288 18.9368 7.24759 19.0181 7.22229 19.0985C7.197 19.1789 7.17309 19.2615 7.15055 19.341C6.97442 19.9832 6.91096 20.5732 6.97994 21.0564C6.99529 21.1709 7.02021 21.284 7.05444 21.3945C7.0838 21.4927 7.12244 21.5881 7.16987 21.6794C7.24266 21.8242 7.34245 21.9546 7.46419 22.064C7.53769 22.131 7.62127 22.1867 7.71205 22.2292C7.7746 22.2551 7.80909 22.2618 7.81599 22.2511C7.82288 22.2404 7.81185 22.2261 7.78932 22.2006C7.77828 22.1881 7.7631 22.1738 7.74655 22.156C7.72999 22.1381 7.71068 22.1176 7.6886 22.0952L7.61962 22.0166C7.59709 21.9858 7.56858 21.9555 7.54466 21.917C7.4857 21.8333 7.43664 21.7435 7.39843 21.6491C7.35066 21.53 7.31673 21.4061 7.29725 21.2797C7.27434 21.1266 7.26572 20.9717 7.2715 20.817C7.2923 20.4294 7.36227 20.0457 7.47982 19.6746C7.51201 19.5701 7.54712 19.4634 7.58513 19.3544C7.6233 19.2472 7.66791 19.1311 7.71068 19.0159L7.97924 18.2897L8.58489 16.6743C9.01487 15.53 9.50003 14.2581 10.0008 12.8915C9.95484 12.8562 9.92955 12.8258 9.93783 12.8021C9.94611 12.7785 9.98382 12.7704 10.0441 12.7718C10.366 11.8911 10.6934 10.9697 11.0148 10.0184C11.1491 9.62362 11.2774 9.23105 11.4117 8.84651C11.4798 8.65447 11.5423 8.46198 11.6067 8.27128L11.7998 7.70453C11.7539 7.67416 11.7332 7.64736 11.7401 7.62548C11.747 7.6036 11.7824 7.59198 11.8394 7.58975C12.3292 6.13916 12.7674 4.76627 13.0985 3.50817C13.1785 3.19554 13.2567 2.88649 13.3285 2.5886C13.3919 2.28847 13.4512 1.99758 13.5064 1.71592C13.5326 1.57479 13.5625 1.43723 13.5828 1.30057V1.29342C13.5786 1.22331 13.5713 1.15229 13.563 1.08173Z" fill="black"/>
<path d="M26.1838 8.24575C26.1441 7.9201 26.0569 7.6016 25.9248 7.29982C25.8148 7.05074 25.6759 6.81461 25.511 6.59596C25.3539 6.381 25.1776 6.17998 24.9839 5.99527C24.6034 5.63583 24.1764 5.32583 23.7138 5.07302C23.4881 4.94707 23.2582 4.8323 23.024 4.72868C22.9081 4.67509 22.7904 4.62775 22.6731 4.57817C22.5558 4.5286 22.4386 4.48439 22.3199 4.44419C22.2611 4.42275 22.2022 4.39953 22.1429 4.38032L21.9649 4.32227L21.6094 4.20659C21.402 4.13379 21.19 4.07975 20.9794 4.02348C20.9311 4.01197 20.8803 4.0154 20.8341 4.0333C20.8015 4.04614 20.7656 4.04849 20.7315 4.04C20.6965 4.03053 20.6653 4.01071 20.6423 3.98328C20.6099 3.94334 20.5651 3.91467 20.5145 3.90156C19.6311 3.69579 18.7337 3.55103 17.8293 3.46835C17.5993 3.45048 17.3694 3.43038 17.1441 3.4143L16.4644 3.38528C16.3517 3.37902 16.2395 3.37858 16.1273 3.37768L15.7921 3.375H15.4577L15.1262 3.38259L14.7964 3.39019L14.6318 3.39421C14.5775 3.39421 14.5228 3.39956 14.4685 3.40224L13.8192 3.43574C13.604 3.44914 13.3911 3.46834 13.1791 3.48398C13.0728 3.49291 12.9671 3.49961 12.8618 3.50988L12.5477 3.54159C11.7112 3.62153 10.9009 3.73319 10.1159 3.85422L9.53368 3.94086L8.96022 4.03822C8.58083 4.10164 8.20787 4.1722 7.83906 4.24187C7.10326 4.38568 6.38449 4.5487 5.69698 4.7461C5.02686 4.93529 4.37268 5.17418 3.74023 5.46068C3.63492 5.50891 3.53145 5.55893 3.42936 5.60984C3.41004 5.61967 3.45097 5.59466 3.20724 5.76392C2.93132 5.95418 2.66919 6.21991 2.59883 6.52316C2.5809 6.60177 2.48524 7.24935 2.66919 7.32706L2.69541 7.35386C2.7302 7.3895 2.77579 7.41344 2.82555 7.42219C2.85262 7.42688 2.88033 7.42688 2.90741 7.42219C2.92304 7.42219 2.93822 7.41683 2.95339 7.41371C2.98142 7.4075 3.00796 7.39613 3.03157 7.38021C3.67504 6.95964 4.36048 6.60309 5.07753 6.31594C5.50215 6.14265 5.95006 5.98128 6.42128 5.83181C6.86827 5.69068 7.33504 5.55893 7.81836 5.43299C7.86096 5.42187 7.89961 5.39962 7.93011 5.36867C7.94983 5.3474 7.97562 5.3323 8.0042 5.3253C8.03278 5.3183 8.06286 5.31972 8.09061 5.32937C8.1316 5.341 8.17516 5.341 8.21615 5.32937C8.54634 5.2472 8.88388 5.16592 9.22787 5.08776C9.41181 5.0431 9.5999 5.00111 9.78799 4.96002L10.3568 4.83676C11.1221 4.67822 11.9107 4.52414 12.7252 4.40668C13.5396 4.28922 14.377 4.18873 15.2365 4.14809C15.3437 4.14273 15.4518 4.13335 15.5584 4.13156L15.8831 4.12352C16.1002 4.1195 16.3191 4.11057 16.538 4.11816C16.7569 4.12575 16.9781 4.12397 17.1993 4.1329L17.787 4.16997C17.8308 4.172 17.8744 4.16292 17.9134 4.14362C17.9373 4.13229 17.9638 4.1275 17.9902 4.12977C18.0189 4.13301 18.0461 4.14383 18.0689 4.16104C18.1045 4.18623 18.1464 4.20166 18.1903 4.2057C18.5002 4.2392 18.8125 4.26733 19.1224 4.32137C19.2921 4.34817 19.4627 4.37095 19.6324 4.40132L20.1411 4.50448C20.2257 4.5219 20.3112 4.53798 20.3963 4.55674L20.6487 4.62149L21.15 4.75012L21.1624 4.75324L21.6582 4.90867L21.9097 4.98771C21.9939 5.01406 22.0753 5.04578 22.1585 5.07481C22.817 5.31553 23.4572 5.61833 24.0187 6.02207C24.2988 6.22202 24.555 6.45182 24.7825 6.70717C24.8372 6.7688 24.8874 6.83445 24.9398 6.89787L24.949 6.90948C24.995 6.97603 25.0456 7.04347 25.0916 7.11001C25.1828 7.24945 25.2626 7.39565 25.3302 7.54725C25.4478 7.81753 25.5221 8.1037 25.5505 8.39581C25.5755 8.66534 25.5663 8.93684 25.5229 9.20417C25.5172 9.24466 25.5241 9.28588 25.5427 9.32252C25.5563 9.34827 25.5602 9.3778 25.5537 9.40604C25.5475 9.4327 25.5333 9.45696 25.5128 9.47571C25.4786 9.50683 25.4539 9.54656 25.4415 9.59049C25.4029 9.73519 25.3569 9.87766 25.3036 10.0188C25.2401 10.1854 25.1684 10.3493 25.0897 10.5101C25.0111 10.6708 24.9228 10.8276 24.8308 10.9817C24.7388 11.1358 24.6377 11.2849 24.5337 11.4319C24.3252 11.7238 24.096 12.0012 23.8476 12.2621C23.6025 12.5234 23.3429 12.7715 23.07 13.0053C22.529 13.4638 21.9534 13.8824 21.3482 14.2576C21.0502 14.4474 20.7444 14.6229 20.4404 14.7962C20.1365 14.9695 19.8283 15.1312 19.5207 15.2875C17.0871 16.5429 14.6415 17.3754 12.3761 17.9627C12.3317 17.9746 12.2916 17.9986 12.2607 18.0319C12.2398 18.0538 12.2128 18.0693 12.183 18.0766C12.1546 18.0834 12.1247 18.0822 12.097 18.073C12.0516 18.0584 12.0028 18.0564 11.9563 18.0672C10.0832 18.5379 8.34215 18.8528 6.79653 19.0971C6.60109 19.1297 6.40748 19.156 6.21755 19.1864C6.02763 19.2168 5.84138 19.2435 5.65789 19.269C5.28999 19.3208 4.93743 19.3667 4.60019 19.4066C3.92142 19.4865 3.29784 19.5374 2.73449 19.5611C2.17115 19.5848 1.66667 19.583 1.23486 19.5611C1.04049 19.5544 0.848122 19.5206 0.663698 19.4606C0.585938 19.4337 0.511696 19.398 0.442499 19.3543C0.380659 19.3166 0.325655 19.2692 0.279706 19.2141C0.237493 19.165 0.20223 19.1106 0.174856 19.0524C0.162979 19.0292 0.152836 19.0051 0.144504 18.9805L0.138065 18.9622C0.130707 18.9385 0.12335 18.9175 0.118752 18.893C0.0990269 18.8066 0.0990269 18.7171 0.118752 18.6308C0.124699 18.6045 0.133008 18.5788 0.143584 18.554L0.156001 18.5267C0.165658 18.508 0.173016 18.4906 0.181293 18.4776C0.202447 18.4455 0.211186 18.4262 0.206587 18.4218C0.201988 18.4173 0.19279 18.4218 0.175315 18.4352C0.166117 18.4414 0.155541 18.4499 0.142664 18.4602C0.129788 18.4705 0.119211 18.4861 0.105415 18.5049C0.0902114 18.5241 0.0766755 18.5446 0.064946 18.566C0.0528666 18.589 0.0424188 18.6127 0.0336752 18.6371L0.0263171 18.6571C0.00629728 18.7256 -0.0023951 18.7968 0.000564454 18.8679C0.00487659 18.9626 0.0265215 19.0558 0.0644857 19.1431C0.109926 19.2508 0.178247 19.3481 0.26499 19.4284C0.366477 19.5191 0.483722 19.5915 0.611272 19.6424C0.752528 19.6977 0.899899 19.737 1.05045 19.7594C1.20726 19.7844 1.37236 19.7987 1.54113 19.8094C1.62621 19.8157 1.71358 19.8215 1.80326 19.8255C1.89293 19.8295 1.98445 19.8353 2.07918 19.8375C2.45443 19.8505 2.86326 19.8509 3.30243 19.8375C4.18125 19.809 5.18147 19.7152 6.28332 19.5745C7.38517 19.4338 8.59692 19.2596 9.89744 19.0176C11.198 18.7755 12.5854 18.4624 14.0363 18.0489C14.2179 17.9993 14.3991 17.943 14.5817 17.8872C14.7642 17.8314 14.9496 17.7769 15.1335 17.717C15.5014 17.5942 15.8748 17.4754 16.2473 17.337L16.5288 17.236L16.67 17.1851L16.8079 17.1306L17.3731 16.9104C17.5626 16.8363 17.7497 16.7532 17.9397 16.6742L18.2248 16.5541L18.5081 16.4254C18.6971 16.3388 18.8884 16.253 19.0778 16.1637C19.2673 16.0744 19.4558 15.9815 19.6453 15.8877C20.0247 15.6992 20.405 15.5018 20.7839 15.2924C21.5346 14.882 22.2535 14.4193 22.9352 13.9079C22.9766 13.8745 23.0056 13.8289 23.0175 13.7779C23.0261 13.7428 23.0463 13.7114 23.075 13.6886C23.1048 13.6661 23.1413 13.6536 23.179 13.6529C23.2324 13.6519 23.284 13.6337 23.3257 13.6011C23.7597 13.2461 24.1646 12.8588 24.5365 12.4426C24.9389 11.9897 25.2876 11.4943 25.5758 10.9656C25.7229 10.6943 25.8484 10.4124 25.9511 10.1224C26.0575 9.82592 26.133 9.51979 26.1764 9.20864C26.221 8.88928 26.2234 8.56571 26.1838 8.24575Z" fill="black"/>
<path d="M88.8417 1.17104C88.838 1.138 88.8338 1.10495 88.8297 1.0719V1.06609C88.8297 1.06297 88.8297 1.05984 88.8297 1.05582C88.8196 0.990615 88.809 0.925852 88.7961 0.86154C88.7708 0.728869 88.7358 0.598129 88.6913 0.470314C88.683 0.44709 88.6743 0.42565 88.6646 0.401087C88.6618 0.395281 88.6582 0.388136 88.6536 0.380097C88.6227 0.322143 88.5888 0.265792 88.5519 0.211277C88.5322 0.190286 88.511 0.170635 88.4917 0.149644L88.4848 0.142944L88.1762 0.111683H88.1735C88.1735 0.111683 88.1403 0.111681 88.093 0.109001L87.9205 0.100518L87.7481 0.0920297C87.7021 0.0920297 87.6681 0.0884592 87.6662 0.0889058C87.6129 0.424311 87.5779 0.785172 87.5531 1.17104C87.548 1.26796 87.5375 1.36532 87.5287 1.46447C87.52 1.56361 87.5117 1.66455 87.503 1.76638C87.4882 1.97092 87.4729 2.18098 87.457 2.39654C87.4942 2.41843 87.5145 2.44121 87.5112 2.45907C87.508 2.47693 87.4864 2.48989 87.4501 2.49837C87.3411 3.68859 87.1769 5.04406 86.7704 6.45893C86.8003 6.48215 86.8164 6.50359 86.8099 6.52101C86.8035 6.53842 86.781 6.54959 86.7423 6.55495C86.6642 6.82292 86.5846 7.09505 86.5037 7.37135L86.2443 8.20339C86.1588 8.48475 86.0654 8.76701 85.9716 9.05195C85.8778 9.33689 85.7876 9.6254 85.6874 9.91436C85.5997 10.1716 85.5128 10.4271 85.4267 10.6807C85.4616 10.7089 85.4795 10.7334 85.4726 10.7526C85.4657 10.7719 85.4368 10.7817 85.3922 10.7835C84.5644 13.1813 83.7555 15.3836 83.1388 17.229C83.1737 17.2575 83.1912 17.2825 83.1848 17.3018C83.1783 17.321 83.1494 17.3303 83.1052 17.3321C82.9769 17.7153 82.8546 18.082 82.7447 18.4321L82.5833 18.9422C82.5571 19.0248 82.5318 19.1065 82.5065 19.1865C82.4812 19.2664 82.4573 19.3495 82.4347 19.4294C82.2586 20.0716 82.1951 20.6616 82.2641 21.1448C82.2795 21.2593 82.3044 21.3724 82.3386 21.4829C82.3678 21.5812 82.4064 21.6766 82.454 21.7679C82.5268 21.9126 82.6266 22.043 82.7484 22.1524C82.8219 22.2194 82.9054 22.2751 82.9962 22.3176C83.0588 22.3431 83.0933 22.3503 83.1002 22.3395C83.1071 22.3288 83.096 22.3145 83.0735 22.2891C83.0625 22.2761 83.0473 22.2623 83.0307 22.2444C83.0142 22.2265 82.9949 22.206 82.9728 22.1837L82.9038 22.1051C82.8813 22.0738 82.8528 22.0434 82.8288 22.0055C82.7696 21.9219 82.7206 21.832 82.6826 21.7375C82.6348 21.6186 82.6009 21.4948 82.5814 21.3686C82.5585 21.2154 82.5499 21.0606 82.5557 20.9059C82.5765 20.5182 82.6464 20.1345 82.764 19.7635C82.7957 19.659 82.8307 19.5518 82.8693 19.4433C82.9079 19.3347 82.9521 19.22 82.9944 19.1047C83.0808 18.8725 83.1705 18.6303 83.2634 18.3781C83.452 17.8757 83.6543 17.3353 83.8691 16.7631C84.299 15.6189 84.7842 14.347 85.285 12.9799C85.239 12.9451 85.2137 12.9147 85.222 12.8906C85.2303 12.8665 85.268 12.8584 85.3282 12.8602C85.6501 11.9795 85.9776 11.0577 86.299 10.1068C86.4333 9.71159 86.5616 9.31902 86.6959 8.93449C86.7639 8.74245 86.8265 8.54996 86.8909 8.3597L87.084 7.79295C87.038 7.76258 87.0173 7.73534 87.0242 7.7139C87.0311 7.69247 87.0665 7.6804 87.1236 7.67817C87.6133 6.22758 88.0516 4.8547 88.3827 3.59659C88.4627 3.28397 88.5409 2.97491 88.6126 2.67657C88.6761 2.37645 88.7354 2.08571 88.7906 1.80434C88.8168 1.66321 88.8467 1.52565 88.8669 1.38899V1.38184C88.8573 1.31307 88.849 1.24206 88.8417 1.17104Z" fill="black"/>
<path d="M101.462 8.33501C101.422 8.00941 101.335 7.69093 101.203 7.38909C101.093 7.14001 100.954 6.90388 100.789 6.68523C100.632 6.46962 100.455 6.26814 100.26 6.08319C99.8795 5.72376 99.4526 5.41375 98.9899 5.16094C98.764 5.0347 98.534 4.91992 98.3001 4.81661C98.1842 4.76257 98.0665 4.71567 97.9497 4.6661C97.8329 4.61652 97.7151 4.57231 97.5965 4.53211C97.5372 4.51112 97.4788 4.48745 97.4195 4.46869L97.241 4.41064L96.886 4.29496C96.6786 4.22216 96.4666 4.16812 96.256 4.11185C96.2077 4.10009 96.1568 4.10354 96.1107 4.12168C96.0781 4.13452 96.0421 4.13686 96.0081 4.12838C95.9729 4.11901 95.9416 4.09899 95.9189 4.07121C95.8864 4.03142 95.8416 4.00289 95.791 3.98993C94.9076 3.78416 94.0103 3.6394 93.1059 3.55672C92.8759 3.53885 92.6483 3.5183 92.4207 3.50267L91.741 3.47365C91.6283 3.46739 91.5161 3.4665 91.4039 3.46605L91.0682 3.46337L90.7343 3.46069L90.4028 3.46873L90.073 3.47632L89.9084 3.47989L89.7451 3.48794L89.0958 3.52188C88.8806 3.53528 88.6677 3.55448 88.4557 3.57011C88.3494 3.5786 88.2437 3.58575 88.1383 3.59557L87.8243 3.62773C86.9873 3.70767 86.1775 3.81932 85.3925 3.94035L84.8089 4.02968L84.2354 4.12748C83.856 4.1909 83.4831 4.26147 83.1143 4.33114C82.3785 4.47495 81.6597 4.63796 80.9722 4.83536C80.3019 5.02464 79.6476 5.26353 79.015 5.54994C78.9101 5.59818 78.8067 5.6482 78.7046 5.69911C78.6848 5.70894 78.7262 5.68392 78.4825 5.85274C78.2065 6.04345 77.9444 6.30918 77.874 6.61198C77.8556 6.69059 77.7605 7.33817 77.9439 7.41588L77.9701 7.44268C78.0052 7.47826 78.0509 7.50217 78.1008 7.51101C78.1278 7.5157 78.1555 7.5157 78.1826 7.51101L78.2286 7.50253C78.2566 7.49613 78.2831 7.48477 78.3068 7.46903C78.9502 7.04846 79.6357 6.69191 80.3527 6.40476C80.777 6.23147 81.225 6.07009 81.6965 5.92063C82.1435 5.7795 82.6102 5.6473 83.0936 5.52181C83.1362 5.51069 83.1748 5.48844 83.2053 5.45749C83.2261 5.43544 83.2531 5.41989 83.283 5.41283C83.3106 5.40688 83.3392 5.40858 83.3658 5.41774C83.4068 5.42937 83.4504 5.42937 83.4914 5.41774C83.8215 5.33557 84.1591 5.25429 84.5031 5.17613C84.687 5.13147 84.8746 5.08681 85.0632 5.04795L85.6321 4.92513C86.3973 4.76659 87.186 4.61251 88.0004 4.49505C88.8325 4.36814 89.6707 4.28183 90.5117 4.23646C90.6189 4.2311 90.727 4.22172 90.8336 4.21949L91.1588 4.21189C91.3758 4.20787 91.5947 4.19894 91.8136 4.20609C92.0325 4.21323 92.2537 4.21234 92.4749 4.22127L93.0626 4.25789C93.1064 4.26008 93.15 4.25116 93.1891 4.23199C93.2129 4.22066 93.2395 4.21587 93.2659 4.21814C93.2946 4.22118 93.3219 4.23202 93.3445 4.24941C93.3802 4.27443 93.4221 4.28984 93.4659 4.29407C93.7759 4.32757 94.0881 4.3557 94.3981 4.4093C94.5678 4.43654 94.7384 4.45887 94.9081 4.48969L95.4167 4.59285C95.5013 4.61027 95.5869 4.62635 95.672 4.64511L95.9244 4.70986L96.4257 4.83804L96.4381 4.84162L96.9338 4.99704L97.1854 5.07609C97.2695 5.10244 97.3509 5.13415 97.4342 5.16318C98.0927 5.4039 98.7324 5.7067 99.2943 6.11044C99.5745 6.31023 99.8307 6.53989 100.058 6.7951C100.113 6.85718 100.163 6.92238 100.215 6.9858L100.225 6.99741C100.271 7.0644 100.321 7.13139 100.367 7.19838C100.458 7.33767 100.538 7.48372 100.606 7.63517C100.723 7.9055 100.798 8.19164 100.826 8.48373C100.851 8.75326 100.842 9.02477 100.799 9.2921C100.793 9.33258 100.8 9.3738 100.818 9.41045C100.832 9.43619 100.836 9.46573 100.829 9.49397C100.823 9.52062 100.809 9.54488 100.788 9.56364C100.754 9.59476 100.73 9.63449 100.717 9.67842C100.679 9.82267 100.633 9.96559 100.579 10.1067C100.516 10.2733 100.444 10.4372 100.366 10.598C100.287 10.7588 100.199 10.9155 100.107 11.0701C100.015 11.2246 99.9138 11.3733 99.8099 11.5202C99.6013 11.8122 99.3721 12.0896 99.1237 12.3505C98.8785 12.6117 98.6189 12.8597 98.3461 13.0937C97.8041 13.554 97.2271 13.9741 96.6202 14.3504C96.3222 14.5402 96.0164 14.7162 95.7124 14.889C95.4084 15.0619 95.0999 15.2244 94.7927 15.3803C92.359 16.6357 89.9134 17.4682 87.6481 18.0555C87.6036 18.0674 87.5635 18.0914 87.5327 18.1247C87.5118 18.1466 87.4848 18.1621 87.455 18.1694C87.4266 18.1763 87.3967 18.175 87.369 18.1658C87.3236 18.1512 87.2748 18.1492 87.2283 18.16C85.3552 18.6307 83.6141 18.9456 82.0685 19.1899C81.8726 19.2225 81.679 19.2489 81.4895 19.2792C81.3001 19.3096 81.1129 19.3364 80.9299 19.3619C80.562 19.4137 80.2094 19.4595 79.8722 19.4994C79.1934 19.5793 78.5698 19.6303 78.0065 19.6539C77.4431 19.6776 76.9387 19.6758 76.5068 19.6539C76.3125 19.6473 76.1201 19.6134 75.9357 19.5534C75.858 19.5264 75.7838 19.4907 75.7145 19.4472C75.6527 19.4093 75.5978 19.3619 75.5517 19.3069C75.5096 19.2577 75.4743 19.2034 75.4468 19.1452C75.435 19.1219 75.4247 19.0979 75.416 19.0733L75.4101 19.055C75.4027 19.0314 75.3953 19.0104 75.3907 18.9858C75.371 18.8995 75.371 18.81 75.3907 18.7236C75.3964 18.6973 75.4047 18.6716 75.4156 18.6468L75.428 18.6196C75.4376 18.6008 75.445 18.5834 75.4533 18.5705C75.474 18.5383 75.4832 18.5191 75.4786 18.5142C75.474 18.5093 75.4648 18.5142 75.4468 18.528C75.4381 18.5343 75.4271 18.5423 75.4147 18.553C75.4022 18.5638 75.3912 18.5789 75.3769 18.5955C75.362 18.6148 75.3486 18.6353 75.3369 18.6567C75.3249 18.6797 75.3143 18.7034 75.3052 18.7277L75.2983 18.7478C75.2782 18.8163 75.2695 18.8874 75.2726 18.9586C75.2769 19.0532 75.2985 19.1464 75.3365 19.2337C75.382 19.3414 75.4503 19.4386 75.537 19.5191C75.6385 19.6097 75.7557 19.6821 75.8833 19.733C76.0245 19.7883 76.1719 19.8276 76.3224 19.85C76.4788 19.875 76.6443 19.8889 76.8131 19.9C76.8982 19.9063 76.9856 19.9121 77.0752 19.9161C77.1649 19.9201 77.256 19.9255 77.3512 19.9282C77.7264 19.9411 78.1352 19.9416 78.5744 19.9282C79.4532 19.8996 80.4534 19.8058 81.5553 19.6651C82.6571 19.5244 83.8689 19.3525 85.169 19.1077C86.469 18.863 87.8574 18.5526 89.3078 18.1395C89.4894 18.0899 89.6706 18.0336 89.8532 17.9778C90.0358 17.922 90.2211 17.8675 90.4051 17.8072C90.7729 17.6848 91.1464 17.566 91.5189 17.4276L91.7998 17.3266L91.9415 17.2757L92.0794 17.2212L92.6446 17.0011C92.8341 16.9269 93.0213 16.8439 93.2112 16.7648L93.4963 16.6447L93.7796 16.516C93.9681 16.4267 94.1599 16.3436 94.3494 16.2543C94.5388 16.165 94.7274 16.0721 94.9168 15.9783C95.2964 15.7899 95.6759 15.5914 96.0555 15.383C96.8062 14.9728 97.5252 14.51 98.2068 13.9985C98.248 13.9652 98.2769 13.9197 98.2891 13.869C98.2976 13.8339 98.3178 13.8025 98.3466 13.7797C98.3763 13.7572 98.4128 13.7447 98.4505 13.7439C98.5039 13.7427 98.5555 13.7245 98.5972 13.6921C99.0313 13.3372 99.4361 12.9498 99.808 12.5336C100.21 12.0808 100.559 11.5853 100.847 11.0567C100.994 10.7853 101.12 10.5034 101.223 10.2135C101.329 9.91683 101.405 9.61055 101.448 9.29924C101.495 8.97973 101.5 8.6557 101.462 8.33501Z" fill="black"/>
</svg>
