<svg width="261" height="237" viewBox="0 0 261 237" fill="none" xmlns="http://www.w3.org/2000/svg">
<path d="M75.1642 201.429C75.2281 201.383 75.3239 201.393 75.4469 201.437L75.5285 201.374L75.5994 201.314L75.7425 201.2C75.8372 201.121 75.927 201.038 76.0181 200.957C76.1979 200.794 76.3729 200.626 76.5361 200.456C76.8556 200.125 77.1564 199.776 77.4373 199.413C77.9425 198.749 78.4073 198.058 78.8293 197.342C79.6572 195.958 80.1303 194.577 80.2639 193.385C80.3975 192.193 80.1989 191.221 79.9529 190.62C79.9186 190.546 79.8855 190.476 79.8559 190.411L79.7577 190.202C79.713 190.149 79.6635 190.1 79.6099 190.056C79.5685 190.021 79.533 189.993 79.4975 189.967C79.3603 189.867 79.2681 189.828 79.2267 189.853C79.1853 189.878 79.1983 190.016 79.2846 190.225C79.2909 190.238 79.2964 190.252 79.3012 190.265L79.3142 190.298C79.3225 190.321 79.3308 190.344 79.3402 190.368C79.3497 190.392 79.3402 190.423 79.3402 190.453V190.497L79.3461 190.553C79.3532 190.631 79.3662 190.712 79.3722 190.8C79.3781 190.888 79.3828 190.982 79.3887 191.081C79.4107 191.555 79.3849 192.031 79.3118 192.501C79.2104 193.119 79.0395 193.725 78.8021 194.308C78.6623 194.649 78.5044 194.982 78.3291 195.308C78.1409 195.661 77.9341 196.005 77.7093 196.338C77.6514 196.425 77.5911 196.512 77.5319 196.601L77.3392 196.874C77.2102 197.056 77.0778 197.241 76.9418 197.424C76.6698 197.792 76.3835 198.159 76.0761 198.514C75.7648 198.875 75.4319 199.217 75.0791 199.539C74.8981 199.699 74.7136 199.86 74.5185 200.01C74.4314 200.08 74.3406 200.147 74.2465 200.208C74.1542 200.269 74.0596 200.323 73.9603 200.38C73.7675 200.487 73.5643 200.576 73.3535 200.644C73.173 200.707 72.9834 200.742 72.7918 200.747C72.7551 200.749 72.7184 200.749 72.6818 200.747C72.6487 200.738 72.6156 200.741 72.5824 200.729C72.5127 200.712 72.4452 200.688 72.3814 200.656C72.2298 200.575 72.096 200.467 71.9876 200.336L71.932 200.27C71.8137 200.312 71.7167 200.313 71.6883 200.27C71.66 200.226 71.6883 200.147 71.7912 200.053C71.7453 199.972 71.7057 199.887 71.673 199.8C71.6588 199.756 71.647 199.717 71.6328 199.667C71.6186 199.618 71.6044 199.561 71.5937 199.506C71.5465 199.288 71.5188 199.067 71.5109 198.845C71.4957 198.393 71.5434 197.941 71.6529 197.501C71.8759 196.579 72.1863 195.68 72.5801 194.814C73.2282 193.351 74.171 192.027 75.3534 190.92C75.6113 190.691 75.862 190.472 76.1056 190.296C76.3279 190.13 76.5654 189.984 76.8152 189.86C77.0237 189.758 77.2441 189.681 77.4716 189.631C77.9402 189.532 78.4292 189.58 78.8672 189.769C79.0529 189.847 79.164 189.903 79.2137 189.864C79.2634 189.825 79.2409 189.72 79.1238 189.552C78.937 189.31 78.6843 189.124 78.3941 189.013C78.1845 188.928 77.9635 188.872 77.7377 188.847C77.4666 188.818 77.1925 188.827 76.924 188.874C76.2962 188.997 75.7002 189.241 75.1713 189.591C74.5489 189.984 73.9716 190.441 73.4493 190.953C72.8478 191.547 72.3119 192.199 71.8504 192.9C71.34 193.679 70.9086 194.504 70.5624 195.364C70.469 195.586 70.3898 195.822 70.3046 196.051C70.2195 196.28 70.1438 196.518 70.0787 196.76L69.9747 197.122C69.9404 197.251 69.9084 197.385 69.8812 197.519C69.8235 197.791 69.784 198.067 69.763 198.345C69.802 198.38 69.8253 198.429 69.828 198.481C69.821 198.534 69.793 198.583 69.7499 198.616C69.7368 199.085 69.7845 199.554 69.8919 200.011C69.9219 200.138 69.9586 200.263 70.0019 200.387C70.0475 200.514 70.1004 200.639 70.1603 200.761C70.2826 201.007 70.4355 201.238 70.6157 201.448C70.7531 201.61 70.9077 201.758 71.0769 201.889C71.1635 201.957 71.2539 202.02 71.3477 202.078C71.4442 202.136 71.5441 202.188 71.647 202.235C71.858 202.332 72.0816 202.401 72.3116 202.44C72.5358 202.477 72.7639 202.486 72.9905 202.467C73.3806 202.432 73.763 202.34 74.1246 202.194C74.4557 202.064 74.7726 201.902 75.0708 201.712C75.0743 201.564 75.098 201.473 75.1642 201.429Z" fill="black"/>
<path d="M86.4346 197.814C86.4867 197.796 86.5529 197.836 86.6392 197.921C87.3311 197.648 87.9816 197.348 88.5907 197.037C89.1997 196.725 89.7733 196.406 90.2913 196.085C91.2046 195.526 92.0822 194.914 92.9192 194.253C94.3207 193.137 95.048 192.351 94.9227 192.191C94.8482 192.095 94.4863 192.222 93.889 192.518C93.2918 192.813 92.4604 193.282 91.435 193.84C90.4096 194.399 89.1879 195.045 87.7935 195.651C86.3025 196.316 84.7445 196.83 83.1444 197.184L83.0475 197.206C83.0309 197.337 82.9966 197.415 82.9422 197.425C82.8878 197.435 82.8239 197.376 82.7565 197.262C81.2171 197.571 79.6402 197.666 78.0731 197.545C77.7183 197.519 77.3636 197.472 77.0312 197.423L76.5357 197.338C76.3784 197.301 76.2199 197.275 76.0685 197.235C75.5045 197.101 74.9551 196.915 74.4282 196.679C73.6663 196.347 72.9823 195.867 72.4176 195.271C72.0179 194.839 71.8263 194.539 71.6997 194.584C71.6477 194.601 71.624 194.686 71.6288 194.838C71.6303 194.931 71.6434 195.025 71.6678 195.115C71.6808 195.168 71.6962 195.23 71.7139 195.287C71.7311 195.353 71.7536 195.417 71.7813 195.479C71.8404 195.629 71.9112 195.775 71.993 195.914C72.0392 195.99 72.0805 196.075 72.1385 196.153C72.1964 196.231 72.2568 196.313 72.3147 196.399C72.6116 196.771 72.9566 197.105 73.3413 197.392C73.8059 197.739 74.3103 198.033 74.8445 198.269C75.1409 198.402 75.4445 198.52 75.7539 198.622C75.9136 198.672 76.078 198.724 76.2436 198.768L76.7474 198.895C78.2495 199.234 79.7983 199.336 81.3338 199.195C81.3598 199.15 81.3894 199.121 81.4237 199.118C81.4449 199.119 81.4656 199.125 81.484 199.135C81.5025 199.146 81.5182 199.16 81.5301 199.177C82.2019 199.11 82.8693 199.006 83.5288 198.866C84.492 198.657 85.4374 198.378 86.3566 198.03C86.359 197.909 86.3826 197.833 86.4346 197.814Z" fill="black"/>
<path d="M101.749 200.843C101.803 200.839 101.857 200.848 101.907 200.869C101.957 200.891 102 200.923 102.034 200.964C104.338 200.518 106.589 199.844 108.751 198.954C108.999 198.856 109.238 198.751 109.472 198.647C109.706 198.542 109.945 198.442 110.165 198.336L110.826 198.017L111.146 197.86L111.457 197.697L112.061 197.379C112.256 197.272 112.444 197.161 112.629 197.056C112.815 196.951 112.997 196.849 113.171 196.742L113.678 196.427C114.71 195.789 115.69 195.076 116.609 194.292C117.242 193.73 117.543 193.376 117.481 193.301C117.443 193.254 117.28 193.301 117.008 193.432C116.871 193.498 116.705 193.584 116.513 193.69C116.322 193.797 116.097 193.912 115.85 194.052C114.86 194.602 113.434 195.394 111.609 196.228C110.692 196.639 109.682 197.07 108.575 197.475C107.468 197.88 106.268 198.263 104.987 198.602C103.65 198.956 102.294 199.241 100.925 199.454C99.5053 199.67 98.0459 199.798 96.6078 199.656L96.4422 199.636C96.3535 199.751 96.2601 199.811 96.1678 199.799C96.0756 199.786 96.0058 199.701 95.9561 199.57C95.7835 199.546 95.6167 199.504 95.4488 199.47C95.2808 199.436 95.1188 199.388 94.9544 199.344C94.6374 199.25 94.3262 199.137 94.0225 199.008C93.7659 198.9 93.5269 198.756 93.3129 198.581C93.2276 198.51 93.1517 198.43 93.087 198.341C93.0258 198.255 92.9765 198.163 92.9403 198.065C92.8554 197.826 92.8118 197.575 92.8114 197.323C92.8043 197.185 92.8209 197.038 92.8244 196.896C92.828 196.754 92.8575 196.612 92.8753 196.47C92.98 195.905 93.168 195.357 93.4335 194.844C93.9598 193.814 94.7179 192.917 95.4937 192.139C96.2695 191.362 97.0572 190.702 97.8413 190.307C98.2036 190.116 98.5941 189.979 98.9992 189.903C99.1775 189.868 99.3588 189.849 99.5408 189.848C99.626 189.848 99.7099 189.858 99.7939 189.86C99.8779 189.863 99.9607 189.887 100.042 189.898C100.35 189.962 100.646 190.075 100.916 190.232C101.149 190.362 101.359 190.526 101.542 190.717C101.799 190.986 101.981 191.313 102.071 191.669C102.084 191.732 102.107 191.789 102.113 191.839C102.119 191.89 102.131 191.933 102.14 191.969C102.16 192.041 102.185 192.083 102.215 192.089C102.244 192.095 102.273 192.07 102.307 192.01C102.329 191.973 102.347 191.935 102.363 191.896C102.372 191.873 102.383 191.846 102.391 191.819C102.399 191.791 102.403 191.76 102.409 191.728C102.48 191.338 102.416 190.935 102.228 190.583C102.198 190.525 102.166 190.469 102.134 190.404C102.102 190.34 102.059 190.29 102.016 190.228C101.929 190.103 101.832 189.984 101.726 189.873C101.481 189.625 101.2 189.413 100.89 189.244C100.525 189.044 100.124 188.911 99.7076 188.853C99.5893 188.838 99.4793 188.832 99.361 188.823C99.2428 188.814 99.134 188.823 99.0169 188.823C98.8998 188.823 98.7804 188.841 98.6621 188.853C98.5438 188.864 98.4255 188.887 98.3073 188.912C97.8187 189.017 97.3464 189.183 96.9023 189.406C96.4368 189.641 95.9935 189.915 95.5777 190.225C95.1439 190.547 94.7278 190.891 94.3311 191.255C93.9031 191.644 93.5002 192.059 93.1248 192.496C92.7178 192.968 92.3563 193.475 92.045 194.011C91.7062 194.592 91.45 195.216 91.2834 195.864C91.2444 196.033 91.1982 196.207 91.1758 196.378L91.1368 196.64C91.1237 196.728 91.1214 196.818 91.1131 196.907C91.0771 197.283 91.089 197.661 91.1486 198.034C91.2146 198.465 91.3733 198.878 91.6145 199.247C91.8635 199.61 92.1852 199.922 92.5607 200.163C92.6319 200.159 92.7029 200.174 92.7653 200.208C92.8252 200.246 92.8717 200.3 92.8989 200.364C93.1717 200.512 93.4556 200.639 93.7481 200.746L93.961 200.828L94.1762 200.898C94.3217 200.945 94.466 200.994 94.6126 201.03C95.2002 201.192 95.8013 201.303 96.4091 201.363C98.2139 201.539 99.9311 201.34 101.517 201.056C101.583 200.938 101.655 200.86 101.749 200.843Z" fill="black"/>
<path d="M130.69 167.697C130.69 167.688 130.69 167.68 130.69 167.672C130.69 167.664 130.69 167.663 130.69 167.659C130.676 167.635 130.662 167.612 130.646 167.589C130.631 167.566 130.62 167.541 130.607 167.516C130.594 167.491 130.567 167.466 130.551 167.444L130.314 167.287L130.15 167.173L130.14 167.162L129.804 166.965C129.718 166.915 129.62 166.887 129.519 166.885C129.419 166.882 129.319 166.906 129.231 166.953C129.157 166.992 129.092 167.046 129.043 167.112C128.225 168.187 127.55 169.376 126.822 170.5C126.721 170.654 126.623 170.809 126.525 170.959L126.505 170.994C126.211 171.537 125.923 172.082 125.618 172.611C124.972 173.731 124.435 174.932 123.76 176.047C123.747 176.067 123.736 176.088 123.728 176.11C123.51 176.621 123.275 177.134 123.031 177.654C122.964 177.777 122.946 177.919 122.981 178.054C122.984 178.06 122.986 178.067 122.986 178.073C122.986 178.08 122.984 178.086 122.981 178.092C122.975 178.104 122.965 178.114 122.952 178.118C122.822 178.181 122.721 178.289 122.669 178.421C121.761 180.346 120.869 182.396 120.021 184.535L119.537 185.785C119.498 185.906 119.508 186.037 119.565 186.151C119.569 186.163 119.569 186.176 119.565 186.188C119.56 186.199 119.55 186.208 119.539 186.213C119.419 186.266 119.325 186.36 119.274 186.477C118.434 188.738 117.667 190.93 117.096 193.059C116.529 195.16 116.173 197.195 116.079 199.072C116.081 199.203 116.131 199.328 116.221 199.424C116.226 199.428 116.23 199.434 116.232 199.439C116.235 199.445 116.236 199.452 116.236 199.458C116.236 199.464 116.235 199.47 116.232 199.476C116.23 199.482 116.226 199.487 116.221 199.492C116.125 199.578 116.066 199.698 116.057 199.825C116.057 200.138 116.057 200.446 116.057 200.747C116.079 201.135 116.089 201.511 116.127 201.881C116.185 202.591 116.322 203.294 116.535 203.976C116.726 204.591 117.021 205.172 117.406 205.694C117.49 205.809 117.59 205.923 117.683 206.027C117.683 206.035 117.696 206.042 117.703 206.05C117.803 206.151 117.898 206.251 118.001 206.338C118.2 206.513 118.415 206.671 118.645 206.807C119.028 207.038 119.45 207.202 119.891 207.292C120.214 207.356 120.546 207.367 120.873 207.326C120.988 207.31 121.102 207.285 121.213 207.25C121.295 207.228 121.374 207.197 121.45 207.159C121.568 207.095 121.623 207.044 121.612 207.017C121.601 206.989 121.565 206.98 121.494 206.973C121.423 206.966 121.329 206.973 121.203 206.964C120.848 206.959 120.497 206.901 120.161 206.79C119.637 206.611 119.161 206.321 118.769 205.941C118.525 205.708 118.316 205.445 118.145 205.157C117.949 204.827 117.793 204.477 117.682 204.111C117.432 203.337 117.327 202.42 117.327 201.406C117.319 200.315 117.392 199.225 117.548 198.145C117.724 196.928 117.973 195.722 118.292 194.533C118.6 193.388 118.967 192.2 119.385 190.983C119.414 190.908 119.424 190.827 119.416 190.748C119.407 190.668 119.38 190.592 119.335 190.525C119.328 190.517 119.323 190.508 119.32 190.498C119.317 190.489 119.317 190.478 119.319 190.468C119.319 190.451 119.341 190.44 119.368 190.432C119.447 190.403 119.517 190.357 119.574 190.298C119.631 190.238 119.673 190.166 119.696 190.088C120.27 188.474 120.893 186.801 121.566 185.105C122.125 183.695 122.735 182.339 123.369 181.04C123.397 180.974 123.411 180.904 123.409 180.833C123.407 180.762 123.39 180.693 123.359 180.629C123.353 180.616 123.353 180.602 123.359 180.589C123.364 180.58 123.371 180.572 123.379 180.567C123.388 180.561 123.398 180.558 123.408 180.557C123.487 180.534 123.559 180.496 123.621 180.443C123.682 180.391 123.731 180.326 123.763 180.253C124.378 179.037 125.023 177.88 125.655 176.776C126.01 176.182 126.344 175.598 126.691 175.038L127.201 174.205C127.319 174.009 127.445 173.817 127.567 173.626L127.588 173.589C128.093 172.616 128.629 171.661 129.199 170.726C129.79 169.791 130.294 168.806 130.703 167.783C130.703 167.762 130.703 167.742 130.703 167.722L130.692 167.674L130.69 167.697Z" fill="black"/>
<path d="M128.858 177.702C128.908 177.692 128.96 177.724 129.014 177.789C134.349 176.795 138.389 176.44 138.374 176.149C138.366 175.999 136.955 175.914 134.679 176.034L133.788 176.09C133.477 176.111 133.155 176.144 132.821 176.174C132.154 176.23 131.445 176.319 130.693 176.411C129.2 176.611 127.564 176.882 125.865 177.24L125.767 177.262C125.742 177.352 125.704 177.41 125.649 177.421C125.593 177.432 125.53 177.398 125.473 177.327C122.662 177.934 119.902 178.747 117.218 179.76L116.844 179.902L116.489 180.046L115.847 180.315C115.446 180.482 115.107 180.642 114.834 180.78C114.287 181.054 114.006 181.238 114.03 181.311C114.148 181.599 118.415 180.102 124.167 178.792C124.174 178.777 124.184 178.763 124.197 178.752C124.21 178.741 124.225 178.732 124.241 178.727C124.258 178.724 124.276 178.725 124.293 178.729C124.31 178.734 124.326 178.741 124.339 178.752C124.916 178.618 125.511 178.495 126.113 178.359L127.443 178.086C127.879 177.997 128.311 177.919 128.734 177.837C128.771 177.757 128.807 177.707 128.858 177.702Z" fill="black"/>
<path d="M136.784 201.032C136.849 200.987 136.945 200.997 137.068 201.041L137.149 200.978L137.22 200.918L137.363 200.803C137.458 200.724 137.547 200.642 137.639 200.562C137.819 200.398 137.994 200.23 138.156 200.06C138.476 199.729 138.777 199.38 139.058 199.017C139.563 198.353 140.028 197.661 140.45 196.945C141.278 195.562 141.751 194.181 141.885 192.989C142.018 191.796 141.82 190.825 141.574 190.224L141.476 190.014L141.379 189.807C141.334 189.754 141.284 189.704 141.231 189.659C141.189 189.625 141.154 189.596 141.118 189.571C140.981 189.47 140.889 189.431 140.846 189.457C140.804 189.482 140.819 189.619 140.905 189.829C140.911 189.841 140.916 189.855 140.922 189.869L140.935 189.903L140.961 189.973C140.961 189.998 140.961 190.027 140.961 190.057C140.961 190.087 140.961 190.085 140.961 190.1C140.961 190.115 140.961 190.138 140.961 190.158C140.961 190.234 140.981 190.316 140.987 190.404C140.993 190.492 140.998 190.586 141.004 190.684C141.026 191.159 141 191.635 140.927 192.104C140.825 192.723 140.654 193.33 140.417 193.913C140.278 194.253 140.12 194.587 139.944 194.911C139.757 195.265 139.55 195.609 139.325 195.942C139.267 196.029 139.207 196.116 139.148 196.204L138.969 196.484C138.841 196.667 138.708 196.85 138.572 197.033C138.3 197.401 138.014 197.769 137.706 198.124C137.395 198.484 137.062 198.827 136.708 199.149C136.528 199.309 136.344 199.469 136.149 199.619C136.047 199.702 135.971 199.754 135.877 199.819C135.782 199.883 135.69 199.933 135.591 199.989C135.398 200.097 135.195 200.185 134.984 200.254C134.803 200.317 134.614 200.352 134.422 200.358C134.385 200.36 134.349 200.36 134.312 200.358C134.279 200.349 134.245 200.351 134.213 200.34C134.143 200.323 134.076 200.299 134.012 200.267C133.86 200.186 133.727 200.077 133.618 199.947L133.562 199.88C133.444 199.923 133.347 199.924 133.317 199.88C133.288 199.837 133.325 199.758 133.422 199.664C133.376 199.583 133.336 199.498 133.303 199.411L133.262 199.278C133.25 199.224 133.235 199.172 133.224 199.117C133.177 198.899 133.149 198.678 133.141 198.456C133.126 198.003 133.174 197.551 133.283 197.111C133.506 196.19 133.817 195.291 134.21 194.425C134.858 192.961 135.801 191.637 136.984 190.531C137.242 190.302 137.491 190.084 137.735 189.907C137.957 189.741 138.195 189.595 138.444 189.47C138.653 189.369 138.873 189.292 139.101 189.241C139.569 189.142 140.058 189.191 140.496 189.38C140.682 189.458 140.793 189.514 140.842 189.475C140.89 189.436 140.87 189.332 140.752 189.162C140.566 188.92 140.313 188.734 140.023 188.624C139.813 188.54 139.593 188.484 139.367 188.458C139.096 188.428 138.822 188.437 138.553 188.484C137.925 188.607 137.329 188.851 136.8 189.201C136.178 189.595 135.601 190.052 135.078 190.564C134.477 191.158 133.941 191.81 133.478 192.511C132.969 193.29 132.538 194.115 132.192 194.974C132.098 195.203 132.019 195.432 131.933 195.661C131.846 195.89 131.773 196.129 131.708 196.37C131.672 196.485 131.638 196.611 131.604 196.732C131.569 196.854 131.538 196.996 131.509 197.13C131.452 197.402 131.412 197.678 131.391 197.955C131.43 197.991 131.453 198.041 131.456 198.093C131.449 198.145 131.421 198.193 131.378 198.227C131.365 198.696 131.412 199.164 131.52 199.622C131.549 199.749 131.586 199.874 131.63 199.997C131.675 200.125 131.728 200.25 131.788 200.372C131.911 200.618 132.063 200.849 132.244 201.059C132.381 201.221 132.536 201.369 132.705 201.5C132.791 201.568 132.882 201.631 132.976 201.689C133.072 201.747 133.172 201.799 133.275 201.846C133.486 201.943 133.709 202.012 133.94 202.051C134.164 202.087 134.392 202.097 134.618 202.079C135.009 202.044 135.391 201.951 135.753 201.804C136.081 201.674 136.396 201.512 136.693 201.322C136.695 201.168 136.722 201.077 136.784 201.032Z" fill="black"/>
<path d="M148.056 197.417C148.108 197.399 148.175 197.44 148.261 197.524C148.953 197.251 149.603 196.951 150.212 196.64C150.821 196.328 151.395 196.008 151.913 195.688C152.827 195.129 153.704 194.517 154.541 193.855C155.942 192.74 156.67 191.953 156.544 191.794C156.47 191.698 156.108 191.825 155.511 192.122C154.913 192.418 154.082 192.884 153.057 193.443C152.031 194.002 150.809 194.648 149.415 195.254C147.924 195.92 146.365 196.435 144.765 196.792L144.668 196.814C144.651 196.944 144.617 197.022 144.563 197.032C144.508 197.043 144.444 196.983 144.377 196.87C142.837 197.178 141.261 197.273 139.694 197.153C139.339 197.126 138.984 197.079 138.652 197.03L138.156 196.945C137.998 196.909 137.84 196.883 137.683 196.842C137.119 196.71 136.569 196.524 136.043 196.287C135.281 195.954 134.596 195.475 134.032 194.878C133.632 194.446 133.441 194.146 133.314 194.191C133.262 194.209 133.239 194.293 133.243 194.445C133.245 194.539 133.258 194.632 133.282 194.722C133.295 194.776 133.31 194.833 133.328 194.894C133.345 194.96 133.368 195.024 133.396 195.087C133.455 195.237 133.526 195.382 133.608 195.522C133.652 195.604 133.7 195.683 133.753 195.76L133.929 196.006C134.226 196.378 134.571 196.712 134.955 197C135.42 197.347 135.925 197.641 136.459 197.877C136.756 198.01 137.059 198.127 137.368 198.229C137.528 198.279 137.692 198.331 137.858 198.376L138.362 198.504C139.864 198.842 141.413 198.943 142.948 198.803C142.974 198.757 143.004 198.728 143.038 198.725C143.06 198.726 143.08 198.733 143.099 198.743C143.117 198.754 143.133 198.768 143.145 198.786C143.816 198.718 144.484 198.614 145.143 198.473C146.107 198.264 147.052 197.985 147.971 197.637C147.981 197.513 148.004 197.435 148.056 197.417Z" fill="black"/>
<path d="M153.933 195.872C153.467 197.872 153.204 199.586 153.161 200.638C153.447 200.71 153.734 200.786 154.02 200.867C154.586 199.659 155.348 197.33 156.081 194.626L156.097 194.568C155.978 194.503 155.919 194.453 155.927 194.422C155.936 194.391 156.013 194.382 156.144 194.394C156.786 191.989 157.254 189.848 157.419 188.506C157.13 188.338 156.842 188.17 156.548 188.011C156.02 189.042 155.341 190.806 154.713 192.93C154.751 192.96 154.772 192.985 154.767 193.003C154.762 193.022 154.731 193.032 154.682 193.035C154.578 193.385 154.477 193.745 154.378 194.112C154.23 194.658 154.094 195.192 153.972 195.708C154.077 195.765 154.133 195.811 154.125 195.842C154.117 195.873 154.048 195.879 153.933 195.872Z" fill="black"/>
<path d="M162.192 191.571C162.222 191.553 162.282 191.593 162.362 191.673L162.954 191.33L163.531 191.018C163.865 190.833 164.212 190.67 164.57 190.533C164.847 190.425 165.14 190.362 165.437 190.346H165.533H165.627C165.661 190.346 165.68 190.346 165.708 190.353C165.734 190.355 165.76 190.358 165.785 190.364C165.891 190.385 165.994 190.418 166.091 190.464C166.269 190.55 166.43 190.666 166.564 190.808C166.67 190.917 166.754 191.043 166.815 191.18C166.922 191.409 166.923 191.604 167.026 191.646C167.08 191.669 167.161 191.637 167.255 191.523C167.378 191.345 167.437 191.133 167.425 190.919C167.41 190.579 167.291 190.251 167.084 189.976C166.958 189.802 166.805 189.648 166.632 189.518C166.429 189.362 166.199 189.243 165.952 189.168C165.425 189.017 164.868 188.996 164.332 189.107C163.787 189.219 163.258 189.392 162.755 189.623C161.663 190.094 160.622 190.67 159.648 191.341L159.589 191.382C159.638 191.503 159.651 191.579 159.617 191.601C159.584 191.623 159.513 191.587 159.41 191.505C158.477 192.173 157.611 192.925 156.826 193.753C156.188 194.422 155.614 195.147 155.113 195.918C154.265 197.236 153.993 198.17 154.189 198.28C154.595 198.509 156.396 195.951 159.585 193.534C159.572 193.49 159.57 193.456 159.585 193.444C159.601 193.431 159.636 193.438 159.679 193.461C159.836 193.336 160.003 193.221 160.17 193.099L160.419 192.917C160.503 192.858 160.591 192.803 160.677 192.741L161.058 192.478L161.44 192.246C161.691 192.078 161.948 191.93 162.197 191.775C162.167 191.66 162.163 191.589 162.192 191.571Z" fill="black"/>
<path d="M183.226 200.126C183.259 200.126 183.289 200.188 183.315 200.296C186.781 200.189 189.354 199.838 189.346 199.435C189.346 198.961 185.798 198.591 181.423 198.611H181.359C181.331 198.735 181.301 198.805 181.266 198.805C181.232 198.805 181.2 198.737 181.171 198.612C176.913 198.645 173.5 199.039 173.502 199.504C173.502 199.931 176.386 200.272 180.156 200.323C180.172 200.279 180.191 200.253 180.211 200.253C180.232 200.253 180.251 200.279 180.268 200.324C180.648 200.324 181.036 200.324 181.43 200.324C182.021 200.324 182.587 200.312 183.137 200.296C183.165 200.19 183.194 200.126 183.226 200.126Z" fill="black"/>
<path d="M105.609 236.497V224.198H108.173V236.497H105.609Z" fill="black"/>
<path d="M122.505 236.521L117.966 224.225H120.746L123.961 233.325L127.07 224.225H129.79L125.243 236.521H122.505Z" fill="black"/>
<path d="M138.866 236.521V224.225H147.572V226.305H141.43V229.215H146.731V231.298H141.43V236.524L138.866 236.521Z" fill="black"/>
<path d="M202.773 65.44C205.214 64.5066 207.741 63.5767 209.762 61.9127C210.282 61.4917 210.737 60.9998 211.112 60.4526C211.505 59.8697 211.899 59.0577 211.704 58.3523C211.63 58.0991 211.492 57.8676 211.303 57.6784C211.114 57.4891 210.88 57.3481 210.622 57.2677C210.12 57.1177 209.544 57.1761 209.034 57.2494C208.118 57.3811 207.243 57.7625 206.464 58.24C204.855 59.2272 203.535 60.6083 202.239 61.9437C200.981 63.2378 199.767 64.5696 198.596 65.9393C191.521 74.203 186.088 83.6645 182.572 93.8448C181.403 97.2152 180.455 100.654 179.734 104.14C179.078 107.321 178.598 110.762 179.592 113.928C180.079 115.482 180.953 116.94 182.223 118.016C183.642 119.222 185.409 119.94 187.213 120.431C191.187 121.514 195.492 122.012 199.599 121.542C203.212 121.128 206.751 119.965 209.685 117.844C211.121 116.819 212.382 115.583 213.422 114.179C214.395 112.853 215.051 111.351 215.92 109.965C216.352 109.278 216.724 108.765 217.339 108.215C217.9 107.71 218.64 107.338 219.424 107.058C220.348 106.73 221.297 106.458 222.171 106.014C222.877 105.651 223.519 105.182 224.072 104.624C226.358 102.327 227.08 98.8975 226.607 95.8226C226.023 92.0319 223.801 88.7119 221.709 85.5477C219.73 82.5553 217.74 79.5674 215.592 76.686C211.399 71.0584 206.498 65.5877 200.245 62.0421C199.005 61.3401 197.735 60.6851 196.543 59.9086C196.403 59.8178 196.265 59.725 196.128 59.6303C196.06 59.5834 195.993 59.5364 195.927 59.4883C195.915 59.4803 195.699 59.3223 195.845 59.4311C195.575 59.2295 195.315 59.0143 195.068 58.7863C194.855 58.5886 194.655 58.3783 194.469 58.1564C194.603 58.3156 194.457 58.1392 194.437 58.1129C194.396 58.0579 194.359 57.9984 194.318 57.9469C194.232 57.8185 194.153 57.6858 194.082 57.5495C194.062 57.5117 193.981 57.3124 194.064 57.522C194.04 57.4624 194.017 57.4075 193.996 57.3433C193.954 57.2288 193.926 57.1017 193.896 56.9791C193.883 56.9276 193.873 56.7261 193.888 56.9585C193.888 56.8955 193.876 56.8326 193.874 56.7684C193.868 56.6155 193.875 56.4623 193.894 56.3103C193.863 56.5737 193.968 56.0916 193.96 56.0664L193.858 56.2462C193.894 56.2073 193.932 56.1695 193.971 56.1317C194.11 55.9828 193.852 56.1695 194.035 56.0859C194.075 56.0676 194.281 55.9954 194.087 56.0527C194.156 56.0321 194.225 56.0149 194.296 55.9977C194.088 56.0458 194.296 55.9977 194.351 55.9977C194.407 55.9977 194.699 56.0424 194.498 55.9977C195.146 56.1294 195.707 56.4741 196.209 56.9139C196.912 57.5254 197.274 58.0923 197.829 58.8607L201.465 63.8367C201.741 64.2158 202.24 64.3944 202.679 64.1448C203.064 63.926 203.27 63.3511 202.997 62.9698L199.286 57.8976C198.744 57.1578 198.229 56.3939 197.536 55.7744C196.933 55.2132 196.221 54.7723 195.442 54.4769C194.705 54.2123 193.828 54.1974 193.139 54.6028C192.754 54.8319 192.379 55.1823 192.249 55.6083C192.157 55.922 192.107 56.2456 192.1 56.5714C192.061 57.8312 192.758 58.9695 193.647 59.8433C195.594 61.7581 198.266 62.7842 200.552 64.2421C203.509 66.1294 206.162 68.4462 208.571 70.9771C211.006 73.5332 213.165 76.2806 215.213 79.1322C217.302 82.041 219.293 85.0232 221.234 88.0271C222.226 89.5651 223.2 91.1466 223.899 92.837C224.265 93.7061 224.55 94.6048 224.752 95.5225C224.824 95.8433 224.879 96.1674 224.916 96.4937C224.958 96.8817 224.979 97.2716 224.977 97.6618C224.985 98.37 224.903 99.0765 224.733 99.7655C224.657 100.086 224.565 100.403 224.458 100.715C224.352 101.04 224.218 101.355 224.058 101.659C223.755 102.276 223.356 102.845 222.875 103.345C222.422 103.834 221.878 104.236 221.271 104.53C220.472 104.936 219.584 105.163 218.736 105.478C217.85 105.785 217.025 106.236 216.297 106.813C215.033 107.844 214.227 109.311 213.466 110.707C212.694 112.124 211.904 113.445 210.808 114.587C209.699 115.743 208.412 116.725 206.992 117.499C203.867 119.234 200.235 119.987 196.584 119.991C194.557 119.987 192.535 119.795 190.546 119.419C188.791 119.093 186.93 118.697 185.351 117.96C183.859 117.263 182.694 116.292 181.929 114.942C181.767 114.664 181.627 114.376 181.51 114.078C181.377 113.736 181.263 113.386 181.171 113.032C180.979 112.32 180.866 111.591 180.834 110.856C180.762 109.317 180.861 107.774 181.127 106.255C181.405 104.582 181.787 102.921 182.2 101.273C185.598 87.7429 192.369 75.2259 201.921 64.817C203.12 63.5149 204.343 62.2093 205.665 61.0218C206.288 60.4417 206.98 59.9351 207.726 59.5124C208.412 59.1239 209.19 58.9162 209.984 58.91C210.135 58.91 210.108 58.91 210.05 58.91L210.01 58.8836C210.102 58.934 210.113 58.9409 210.041 58.9043C210.015 58.8592 209.993 58.8121 209.976 58.7634L209.986 58.713C209.976 58.7554 209.964 58.7977 209.952 58.8401C209.932 58.9054 209.781 59.2604 209.876 59.0692C209.808 59.2113 209.733 59.3501 209.651 59.4849C209.576 59.5994 209.494 59.7139 209.414 59.8284C209.532 59.6635 209.393 59.8536 209.373 59.8765C209.325 59.9315 209.277 59.9911 209.227 60.0392C209.012 60.2702 208.781 60.4871 208.536 60.6885L208.384 60.8122C208.371 60.8213 208.163 60.9817 208.311 60.8706C208.18 60.9679 208.048 61.0607 207.914 61.1512C207.616 61.3527 207.311 61.5405 206.999 61.7238C206.422 62.0536 205.825 62.3502 205.218 62.6262C204.928 62.7575 204.636 62.8846 204.343 63.0076L204.131 63.0957C204.32 63.0167 204.091 63.1118 204.065 63.1221C203.932 63.1759 203.797 63.2286 203.664 63.2813C203.211 63.4588 202.756 63.6248 202.301 63.8035C201.847 63.9821 201.545 64.3761 201.682 64.8594C201.8 65.2705 202.325 65.6313 202.772 65.4595L202.773 65.44Z" fill="url(#paint0_linear_349_1009)"/>
<path d="M202.298 93.2181C202.273 93.2263 202.247 93.2317 202.221 93.2342L202.457 93.2044C202.432 93.2073 202.407 93.2073 202.381 93.2044L202.618 93.2342C202.593 93.2305 202.569 93.224 202.546 93.2147L202.758 93.3017L202.724 93.2857C202.811 93.3357 202.883 93.4068 202.933 93.4919C202.918 93.4543 202.9 93.4182 202.878 93.3842C202.849 93.3239 202.818 93.2632 202.786 93.2021C202.715 93.0693 202.641 92.9399 202.561 92.8127C202.367 92.5089 202.154 92.2171 201.923 91.9389C201.54 91.4722 201.101 91.052 200.615 90.6872C199.56 89.8729 198.326 89.3047 197.009 89.0266C196.344 88.8883 195.664 88.8306 194.984 88.8549C194.244 88.8764 193.513 89.0141 192.82 89.2626C192.42 89.4026 192.043 89.5953 191.698 89.8352C191.319 90.1143 190.985 90.4458 190.705 90.8189C190.259 91.3984 189.955 92.0855 189.709 92.7658C188.763 95.3494 189.036 98.2937 190.108 100.798C190.68 102.141 191.463 103.39 192.429 104.501C193.362 105.556 194.427 106.495 195.598 107.297C196.738 108.086 197.954 108.766 199.23 109.327C199.923 109.632 200.628 109.915 201.344 110.175C202.028 110.42 202.728 110.678 203.446 110.81C204.266 110.982 205.121 110.918 205.903 110.625C206.632 110.325 207.3 109.903 207.877 109.378C208.387 108.913 208.87 108.421 209.325 107.906C209.839 107.344 210.353 106.782 210.862 106.212C211.923 105.034 212.91 103.796 213.819 102.505C214.723 101.186 215.486 99.7829 216.097 98.3155C216.396 97.6066 216.662 96.8828 216.901 96.1522C217.158 95.4003 217.372 94.6358 217.545 93.8618C217.724 93.0888 217.773 92.293 217.691 91.5049C217.592 90.7374 217.368 89.9901 217.025 89.2912C216.395 87.9858 215.324 86.9274 213.989 86.2907C212.593 85.6246 211.001 85.4501 209.486 85.7971C206.411 86.5347 204.546 89.266 203.114 91.7866C202.93 92.1084 202.749 92.4302 202.566 92.752C202.475 92.9124 202.382 93.0723 202.289 93.2319L202.156 93.4609C202.123 93.5029 202.096 93.5482 202.074 93.5961L202.177 93.4644C202.324 93.3659 202.359 93.3361 202.283 93.375L202.495 93.288C202.468 93.2984 202.441 93.3065 202.412 93.312L202.649 93.2811C202.623 93.2834 202.597 93.2834 202.572 93.2811L202.808 93.312C202.795 93.3106 202.782 93.3076 202.769 93.3029L202.981 93.3888L203.137 93.5033L203.365 93.8824V93.8698L203.397 94.0988V94.0839L203.365 94.313L203.373 94.2958L203.284 94.5019L203.298 94.4825C203.501 94.2053 203.427 93.7781 203.228 93.5285C203.03 93.2788 202.629 93.1048 202.296 93.2204C202.076 93.285 201.887 93.4255 201.765 93.6155C201.647 93.8163 201.615 94.0541 201.677 94.2775C201.815 94.692 202.3 95.039 202.767 94.8764L201.765 93.6167C201.476 94.0129 201.647 94.6359 202.075 94.8661C202.207 94.9355 202.351 94.9789 202.5 94.9938C202.649 95.0087 202.8 94.9949 202.943 94.9531C203.237 94.867 203.485 94.6746 203.636 94.416C203.743 94.2443 203.843 94.0725 203.944 93.8927C204.327 93.2296 204.694 92.5574 205.085 91.8989C205.461 91.2487 205.878 90.6215 206.333 90.0207L206.404 89.9302C206.474 89.8397 206.259 90.1077 206.366 89.9783C206.414 89.9188 206.463 89.8638 206.513 89.8008C206.628 89.6641 206.746 89.5313 206.867 89.4023C207.094 89.1614 207.334 88.932 207.585 88.7151C207.656 88.6556 207.727 88.6006 207.799 88.5376C207.871 88.4747 208.122 88.3086 207.876 88.4735C208.029 88.3693 208.177 88.2594 208.333 88.1609C208.657 87.9563 208.999 87.7796 209.356 87.6329L209.144 87.72C209.588 87.5407 210.054 87.4172 210.53 87.3523L210.294 87.3833C210.785 87.3221 211.282 87.3221 211.773 87.3833L211.537 87.3523C212.059 87.4213 212.57 87.5561 213.056 87.7532L212.843 87.6661C213.179 87.8037 213.5 87.9713 213.803 88.1666C213.881 88.217 213.956 88.2685 214.031 88.3223C214.149 88.4059 214.025 88.312 213.98 88.2845C214.018 88.3102 214.054 88.3385 214.088 88.3693C214.231 88.4846 214.368 88.6064 214.497 88.7346C214.626 88.8629 214.744 88.9915 214.852 89.1206C214.873 89.1458 214.982 89.2797 214.882 89.1561C214.783 89.0324 214.882 89.1492 214.897 89.1767C214.951 89.25 215.004 89.3233 215.055 89.3977C215.259 89.6985 215.436 90.0162 215.582 90.3471L215.493 90.1421C215.71 90.6397 215.858 91.1631 215.934 91.6984L215.903 91.4694C215.97 91.9935 215.968 92.5238 215.897 93.0475L215.929 92.8185C215.799 93.7472 215.517 94.6508 215.231 95.5487C214.945 96.4465 214.63 97.2871 214.263 98.1323L214.352 97.9273C213.535 99.7598 212.485 101.487 211.227 103.068L211.108 103.211L211.06 103.273C211.2 103.093 211.132 103.183 211.1 103.222C211.019 103.324 210.936 103.425 210.853 103.526C210.693 103.722 210.53 103.917 210.367 104.109C210.045 104.489 209.716 104.865 209.385 105.237C208.737 105.964 208.084 106.693 207.41 107.398C207.069 107.762 206.703 108.103 206.315 108.42C206.284 108.444 206.114 108.573 206.242 108.478C206.369 108.383 206.194 108.511 206.167 108.531C206.068 108.6 205.967 108.666 205.866 108.729C205.657 108.856 205.439 108.967 205.213 109.06L205.425 108.973C205.151 109.084 204.865 109.161 204.572 109.202L204.808 109.172C204.503 109.208 204.195 109.205 203.891 109.164L204.127 109.194C203.493 109.103 202.883 108.894 202.281 108.69C201.729 108.502 201.186 108.299 200.651 108.081L200.863 108.168C199.296 107.537 197.809 106.736 196.429 105.78C196.345 105.72 196.262 105.665 196.181 105.603L196.062 105.519C196.039 105.502 195.969 105.448 196.078 105.529L196.055 105.512C195.893 105.389 195.735 105.264 195.582 105.135C195.264 104.874 194.954 104.602 194.656 104.318C194.358 104.034 194.065 103.727 193.783 103.414C193.65 103.263 193.519 103.109 193.392 102.956C193.352 102.908 193.236 102.753 193.399 102.966L193.314 102.859C193.249 102.774 193.185 102.689 193.122 102.603C192.581 101.862 192.124 101.066 191.758 100.23L191.847 100.435C191.415 99.4467 191.12 98.4069 190.97 97.3432L191.002 97.5723C190.875 96.6569 190.872 95.7294 190.995 94.8134L190.963 95.0425C191.075 94.2465 191.293 93.468 191.613 92.7268L191.523 92.9318C191.627 92.6932 191.743 92.46 191.872 92.2332C191.94 92.1187 192.012 92.0042 192.089 91.8897C192.125 91.837 192.162 91.7855 192.2 91.7351C192.217 91.7083 192.237 91.683 192.259 91.6595C192.216 91.6996 192.135 91.8095 192.226 91.7042C192.309 91.6072 192.397 91.5147 192.49 91.427C192.536 91.3835 192.584 91.3411 192.633 91.2999C192.662 91.2726 192.693 91.2473 192.726 91.2243C192.701 91.2392 192.569 91.3388 192.666 91.2713C192.897 91.1149 193.144 90.9821 193.404 90.875L193.192 90.9621C193.653 90.7828 194.135 90.6612 194.628 90.6002L194.391 90.6311C195.001 90.5544 195.618 90.5544 196.228 90.6311L195.992 90.6002C196.671 90.6903 197.335 90.8662 197.968 91.1235L197.756 91.0376C198.124 91.1887 198.48 91.3659 198.82 91.5679C198.993 91.6698 199.162 91.7797 199.327 91.8954C199.367 91.9229 199.406 91.9515 199.445 91.9802C199.592 92.0867 199.308 91.8737 199.415 91.9573C199.491 92.0168 199.568 92.0718 199.642 92.1382C199.951 92.3934 200.237 92.6722 200.499 92.9719C200.561 93.0429 200.617 93.1219 200.683 93.1918C200.695 93.2044 200.553 93.0257 200.609 93.0979C200.62 93.1151 200.634 93.1311 200.645 93.1471L200.744 93.2777C200.86 93.438 200.97 93.6029 201.072 93.7724C201.191 93.9602 201.275 94.1572 201.381 94.345C201.517 94.57 201.726 94.7446 201.976 94.8415C202.225 94.9384 202.501 94.9519 202.76 94.8799C203.206 94.7562 203.529 94.2694 203.38 93.824C203.315 93.6071 203.166 93.4228 202.965 93.3099C202.763 93.1969 202.524 93.164 202.298 93.2181Z" fill="url(#paint1_linear_349_1009)"/>
<path d="M47.8619 0.616014C46.9004 0.666403 46.5255 1.30314 46.2547 2.11968C45.813 3.50559 45.4673 4.91849 45.2198 6.34896C44.734 9.034 44.484 11.7541 44.4724 14.48C44.4286 20.0538 45.2317 25.6069 46.2358 31.0856C48.1103 41.3067 50.1303 51.7052 53.9586 61.4384C55.8166 66.1636 58.1264 70.7433 61.1043 74.9061C63.7641 78.6258 67.1253 82.1554 71.3936 84.1469C74.4153 85.5566 81.755 87.4772 82.7661 82.6489C83.2037 80.5612 81.6876 78.5262 80.2565 77.1267C78.3784 75.2944 76.1172 73.7403 74.0085 72.1622C64.2137 64.8245 53.673 58.4713 42.5494 53.2009C41.893 52.8894 41.0036 53.4082 41.2484 54.1709C46.2913 69.9932 52.8859 86.3594 67.0035 96.6584C70.1296 98.9522 73.5687 100.816 77.223 102.195C79.0587 102.885 80.9504 103.425 82.8785 103.81C84.824 104.197 87.0723 104.594 88.9101 103.616C90.3837 102.83 91.4103 101.108 90.8781 99.4825C90.3175 97.7646 88.1781 96.8153 86.6571 96.0548C83.0666 94.2614 79.1484 93.2078 75.1852 92.5459C65.9048 90.9999 56.2861 91.4007 47.2434 88.5869C46.4522 88.3418 45.9247 89.2179 46.2417 89.8466C51.5519 100.452 62.3934 106.917 73.481 110.804C77.0704 112.064 80.7379 113.094 84.4254 114.037V112.381C72.913 116.59 60.9447 119.52 48.7501 121.117C47.804 121.24 48.0133 122.531 48.7501 122.774C55.1058 124.853 61.906 125.319 68.5007 124.128L67.8172 122.557C60.7661 127.171 53.7095 131.776 46.6473 136.373C43.1143 138.675 39.5817 140.978 36.0494 143.281L30.7581 146.735L28.116 148.462C27.3733 148.948 26.5786 149.658 25.7507 149.996L26.646 151.484C42.0791 144.115 57.5153 136.748 72.9547 129.385C80.1986 125.939 87.595 122.73 95.8039 122.576C103.859 122.423 111.824 124.045 119.826 122.443C126.88 121.015 133.388 117.725 138.631 112.938C143.778 108.235 147.606 102.402 151.671 96.8508C155.78 91.2392 160.344 86.0457 166.1 81.9458C171.54 78.0727 177.645 75.2028 183.938 72.8871C196.856 68.1333 210.481 65.7456 223.712 62.0076C224.981 61.6491 226.246 61.2712 227.497 60.8624C228.592 60.5051 228.143 59.0186 227.024 59.2064C216.573 60.9574 206.107 62.626 195.664 64.424C191.269 65.181 186.873 65.9345 182.47 66.6457C180.235 67.0064 177.907 67.5756 175.635 67.539C173.315 67.5012 171.063 66.8518 168.869 66.1773C166.986 65.5994 165.074 65.114 163.141 64.7229C161.504 64.3873 159.829 64.0083 158.153 64.1938C154.766 64.5671 151.69 66.6652 149.954 69.4755C147.791 72.9765 147.659 77.2699 146.614 81.1292C145.723 84.4206 144.012 87.3134 141.427 89.6222C136.578 93.9625 129.579 95.8063 123.078 95.2223C115.545 94.5454 108.628 90.559 103.112 85.7422C96.853 80.2784 91.8869 73.5136 87.6861 66.4785C79.4074 52.6031 72.918 35.4787 79.5386 19.7194C80.2948 17.9364 81.2205 16.2253 82.3037 14.6083L80.648 14.1754C81.2653 25.9768 84.086 37.6053 88.8332 48.486C93.5831 59.3828 100.21 69.4191 108.431 78.1666C113.045 83.0589 118.15 87.4948 123.671 91.4087L124.355 89.8386C109.363 87.0901 96.1233 78.911 85.5904 68.4231C73.9789 56.8564 65.8705 42.5824 59.3492 27.8584C55.4902 19.1456 52.1539 10.2221 48.7986 1.32261C48.4095 0.291916 46.6946 0.737405 47.0873 1.7807C53.1343 17.8172 59.1647 34.0254 68.1507 48.7952C76.1727 61.9812 86.7328 73.9373 100.154 82.2057C107.398 86.6721 115.433 89.9417 123.882 91.4923C124.895 91.6778 125.38 90.5005 124.565 89.9222C114.91 83.0681 106.571 74.5179 99.9409 64.8672C93.3288 55.2649 88.4335 44.6531 85.4603 33.4768C83.7837 27.1564 82.7658 20.6891 82.422 14.1719C82.4169 13.9855 82.3498 13.8056 82.2307 13.659C82.1116 13.5124 81.9469 13.4069 81.761 13.3581C81.575 13.3094 81.3778 13.32 81.1986 13.3884C81.0194 13.4568 80.8678 13.5794 80.7662 13.7379C76.3182 20.4328 74.6436 28.5444 75.1237 36.4292C75.6358 44.8431 78.5334 52.934 82.338 60.4512C86.2408 68.1482 90.9952 75.5807 96.8518 82.0328C101.95 87.6512 108.145 92.5825 115.45 95.2154C121.993 97.5734 129.22 97.6811 135.71 95.0791C138.744 93.8629 141.567 92.0913 143.799 89.7413C146.233 87.1771 147.726 84.0988 148.53 80.7227C149.476 76.7877 149.625 72.0752 152.551 68.9201C153.734 67.6386 155.271 66.6297 156.991 66.1555C158.765 65.6597 160.43 65.9345 162.194 66.2838C164.223 66.6778 166.23 67.1747 168.205 67.7726C170.324 68.4231 172.462 69.0323 174.687 69.2064C176.947 69.3862 179.181 68.8949 181.4 68.541C183.713 68.173 186.024 67.794 188.334 67.4038C200.97 65.2806 213.607 63.1673 226.246 61.0639L227.479 60.8566L227.006 59.2007C221.075 61.1338 214.95 62.5 208.886 63.9762C201.929 65.67 194.956 67.3729 188.152 69.5878C181.71 71.6858 175.346 74.211 169.526 77.6398C163.729 81.0604 158.59 85.4289 154.336 90.5509C149.841 95.9529 146.188 101.968 141.61 107.309C136.896 112.806 131.095 117.184 124.066 119.535C120.518 120.724 116.804 121.387 113.051 121.5C108.953 121.623 104.867 121.192 100.779 120.975C96.659 120.755 92.5516 120.824 88.5045 121.678C84.7199 122.48 81.0879 123.843 77.5612 125.376C69.8514 128.728 62.3355 132.544 54.7534 136.159L31.4677 147.268L25.7353 149.988C24.691 150.486 25.6076 151.89 26.6306 151.476C27.4585 151.14 28.2532 150.429 28.9959 149.943L31.638 148.216C33.4018 147.064 35.1659 145.913 36.9305 144.762C40.462 142.458 43.9942 140.155 47.5272 137.854C54.5878 133.253 61.6444 128.648 68.6971 124.039C69.5474 123.483 69.0081 122.292 68.0147 122.469C61.7299 123.581 55.2558 123.115 49.2102 121.114V122.772C61.4052 121.175 73.3739 118.244 84.8867 114.035C85.6613 113.752 85.7926 112.611 84.8867 112.379C73.2823 109.401 61.342 105.344 53.0468 96.5187C50.921 94.2645 49.1414 91.7259 47.7626 88.9809L46.7609 90.2406C54.0934 92.5184 61.8435 92.72 69.4374 93.509C73.222 93.9018 77.0006 94.4561 80.6432 95.5418C82.405 96.0581 84.116 96.725 85.7559 97.5345C87.1018 98.2067 90.1685 99.4275 88.9326 101.314C87.7842 103.065 85.07 102.496 83.3468 102.152C81.5202 101.786 79.726 101.282 77.981 100.644C74.6081 99.4138 71.4373 97.673 68.5256 95.6231C62.3674 91.2885 57.4629 85.4971 53.6523 79.1537C48.8743 71.2037 45.7449 62.4691 42.955 53.7139L41.6541 54.6839C50.758 58.9925 59.4739 64.0307 67.7107 69.7458C69.8041 71.1964 71.8651 72.694 73.8937 74.2385C75.7292 75.6368 77.7374 77.0019 79.3246 78.6693C80.5392 79.9474 82.2493 82.6375 79.7976 83.6911C77.9054 84.5065 75.294 83.8136 73.4621 83.1528C69.3109 81.6561 65.9379 78.4139 63.3549 75.0218C60.5094 71.2873 58.2411 67.1198 56.4209 62.8379C52.77 54.2487 50.8068 45.087 48.9819 35.9975C47.843 30.3241 46.7419 24.6197 46.3706 18.841C46.1786 16.0663 46.1972 13.2816 46.4262 10.5095C46.5541 9.02808 46.7665 7.55462 47.0625 6.09587C47.2075 5.38584 47.3727 4.68 47.558 3.97837C47.6195 3.7436 47.6845 3.50997 47.7508 3.27635C47.8099 3.0725 48.2025 2.31666 47.856 2.33384C48.9914 2.27543 48.9985 0.556463 47.856 0.616014H47.8619Z" fill="url(#paint2_linear_349_1009)"/>
<path d="M34.8803 162.013C34.8708 161.928 34.8602 161.843 34.8496 161.759V161.743C34.8488 161.735 34.8488 161.726 34.8496 161.717C34.8235 161.551 34.7963 161.385 34.7632 161.219C34.6983 160.879 34.6082 160.544 34.4936 160.217C34.4723 160.157 34.4498 160.098 34.4262 160.038C34.4179 160.024 34.4084 160.006 34.3966 159.984C34.3176 159.836 34.2303 159.692 34.1352 159.553C34.0844 159.5 34.0312 159.448 33.9803 159.395L33.9472 159.379L33.1548 159.297H33.1477C33.1477 159.297 33.0614 159.297 32.9395 159.29L32.496 159.269L32.0525 159.247C31.9343 159.247 31.8468 159.238 31.8432 159.239C31.706 160.099 31.6149 161.024 31.5511 162.015C31.5381 162.262 31.5109 162.512 31.4884 162.766C31.4659 163.02 31.4446 163.279 31.4234 163.54C31.3839 164.066 31.3445 164.605 31.3051 165.156C31.4009 165.212 31.4529 165.271 31.4446 165.317C31.4364 165.362 31.3808 165.396 31.2873 165.417C31.0071 168.469 30.5848 171.945 29.5405 175.573C29.6162 175.633 29.6588 175.688 29.6411 175.732C29.6233 175.777 29.5666 175.806 29.4684 175.819C29.2666 176.506 29.062 177.204 28.8546 177.913C28.633 178.616 28.4103 179.327 28.1864 180.047C27.9676 180.768 27.7263 181.492 27.4851 182.223C27.2438 182.955 27.012 183.694 26.7542 184.435C26.5295 185.094 26.3059 185.749 26.0836 186.4C26.1735 186.472 26.2196 186.535 26.2019 186.585C26.1841 186.636 26.1108 186.659 25.9949 186.664C23.8661 192.812 21.7858 198.46 20.1998 203.191C20.2885 203.264 20.3334 203.329 20.3181 203.378C20.3027 203.427 20.227 203.451 20.1135 203.456C19.7835 204.439 19.4689 205.378 19.1862 206.276C19.0443 206.725 18.9059 207.162 18.7711 207.585C18.7037 207.797 18.6387 208.006 18.5736 208.212C18.5086 208.418 18.4471 208.63 18.3891 208.834C17.9362 210.48 17.7729 211.993 17.9503 213.232C17.9898 213.526 18.0539 213.816 18.1419 214.099C18.2175 214.351 18.3168 214.596 18.4388 214.83C18.626 215.201 18.8826 215.535 19.1957 215.816C19.3847 215.988 19.5997 216.131 19.8332 216.24C19.994 216.306 20.0827 216.323 20.1004 216.296C20.1182 216.268 20.0898 216.232 20.0319 216.166C20.0035 216.134 19.9644 216.098 19.9219 216.052C19.8793 216.006 19.8296 215.953 19.7729 215.896L19.5955 215.695C19.5375 215.616 19.4642 215.538 19.4027 215.439C19.251 215.225 19.1249 214.994 19.0266 214.752C18.9038 214.447 18.8165 214.129 18.7664 213.805C18.7075 213.412 18.6853 213.015 18.7002 212.618C18.7537 211.624 18.9336 210.64 19.2359 209.689C19.3187 209.421 19.409 209.147 19.5068 208.868C19.6049 208.593 19.7196 208.295 19.8296 208L20.5203 206.138L22.0779 201.995C23.1837 199.061 24.4314 195.8 25.7193 192.295C25.6011 192.205 25.536 192.127 25.5573 192.066C25.5786 192.006 25.6756 191.985 25.8305 191.989C26.6584 189.73 27.5004 187.368 28.3271 184.928C28.6725 183.916 29.0024 182.909 29.3478 181.923C29.5228 181.431 29.6836 180.937 29.8492 180.448L30.3459 178.995C30.2277 178.917 30.1745 178.848 30.1922 178.792C30.2099 178.736 30.301 178.706 30.4476 178.701C31.7072 174.981 32.8343 171.461 33.6858 168.235C33.8916 167.433 34.0926 166.64 34.2771 165.877C34.4404 165.107 34.5929 164.361 34.7348 163.639C34.8022 163.277 34.8791 162.924 34.9312 162.574V162.555C34.9205 162.376 34.9016 162.194 34.8803 162.013Z" fill="black"/>
<path d="M67.3381 180.381C67.2361 179.546 67.0119 178.729 66.6722 177.956C66.3891 177.317 66.0321 176.711 65.6078 176.151C65.204 175.599 64.7504 175.084 64.2525 174.61C63.2738 173.689 62.1758 172.894 60.986 172.245C60.4057 171.923 59.8143 171.628 59.2119 171.363C58.9139 171.225 58.6111 171.104 58.3096 170.977C58.008 170.849 57.7064 170.736 57.4013 170.633C57.2499 170.578 57.0985 170.518 56.9459 170.469L56.4883 170.32L55.574 170.024C55.0407 169.837 54.4954 169.699 53.9538 169.554C53.8295 169.525 53.6989 169.533 53.5801 169.579C53.4963 169.612 53.4039 169.618 53.3163 169.597C53.2261 169.572 53.146 169.521 53.0869 169.451C53.0036 169.349 52.8882 169.275 52.7581 169.242C50.4862 168.714 48.1785 168.343 45.8525 168.131C45.2611 168.085 44.6698 168.033 44.0903 167.992L42.3423 167.918C42.0526 167.902 41.764 167.901 41.4754 167.898L40.6132 167.891H39.7534L38.9007 167.911L38.0528 167.93L37.6294 167.941C37.4898 167.941 37.3491 167.954 37.2095 167.961L35.5396 168.047C34.9861 168.081 34.4385 168.131 33.8933 168.171C33.6201 168.194 33.3481 168.211 33.0773 168.237L32.2695 168.319C30.1182 168.524 28.0343 168.81 26.0155 169.12L24.5183 169.342L23.0435 169.592C22.0678 169.755 21.1086 169.936 20.1601 170.114C18.2678 170.483 16.4193 170.901 14.6512 171.407C12.9278 171.892 11.2454 172.505 9.61895 173.24C9.34811 173.363 9.08201 173.491 8.81946 173.622C8.76978 173.647 8.87504 173.583 8.24823 174.017C7.53862 174.505 6.8645 175.186 6.68355 175.964C6.63743 176.166 6.39143 177.826 6.8645 178.025L6.93191 178.094C7.0214 178.185 7.13864 178.247 7.26661 178.269C7.33623 178.281 7.4075 178.281 7.47712 178.269C7.51733 178.269 7.55636 178.256 7.59539 178.248C7.66746 178.232 7.73571 178.202 7.79645 178.162C9.45128 177.083 11.2141 176.169 13.0582 175.433C14.1502 174.988 15.3021 174.574 16.5139 174.191C17.6635 173.829 18.8639 173.491 20.1069 173.169C20.2164 173.14 20.3158 173.083 20.3943 173.004C20.445 172.949 20.5113 172.91 20.5848 172.892C20.6583 172.874 20.7357 172.878 20.807 172.903C20.9124 172.933 21.0245 172.933 21.1299 172.903C21.9791 172.692 22.8471 172.484 23.7318 172.283C24.2048 172.169 24.6886 172.061 25.1723 171.956L26.6352 171.64C28.6032 171.233 30.6315 170.838 32.726 170.537C34.8205 170.236 36.9742 169.978 39.1846 169.874C39.4601 169.86 39.7381 169.836 40.0124 169.831L40.8474 169.811C41.4056 169.8 41.9686 169.778 42.5315 169.797C43.0945 169.816 43.6634 169.812 44.2322 169.835L45.7437 169.93C45.8563 169.935 45.9684 169.912 46.0689 169.862C46.1302 169.833 46.1985 169.821 46.2664 169.827C46.3401 169.835 46.4101 169.863 46.4687 169.907C46.5602 169.972 46.6681 170.011 46.7809 170.021C47.578 170.107 48.381 170.18 49.1782 170.318C49.6146 170.387 50.0533 170.445 50.4897 170.523L51.7978 170.788C52.0154 170.832 52.2354 170.874 52.4542 170.922L53.1034 171.088L54.3926 171.417L54.4245 171.425L55.6994 171.824L56.3463 172.027C56.5628 172.094 56.7721 172.176 56.9862 172.25C58.6797 172.867 60.326 173.644 61.7701 174.679C62.4906 175.192 63.1495 175.781 63.7345 176.436C63.8752 176.594 64.0041 176.762 64.139 176.925L64.1626 176.955C64.2809 177.125 64.411 177.298 64.5293 177.469C64.7639 177.826 64.9691 178.201 65.1431 178.59C65.4454 179.283 65.6364 180.017 65.7096 180.766C65.7739 181.457 65.7501 182.153 65.6386 182.839C65.6239 182.943 65.6416 183.048 65.6895 183.142C65.7244 183.208 65.7344 183.284 65.7178 183.356C65.7019 183.425 65.6652 183.487 65.6126 183.535C65.5245 183.615 65.4611 183.717 65.4293 183.829C65.3299 184.2 65.2116 184.566 65.0745 184.928C64.9112 185.355 64.7268 185.775 64.5245 186.187C64.3223 186.6 64.0952 187.002 63.8587 187.397C63.6221 187.792 63.3619 188.174 63.0947 188.551C62.5584 189.3 61.9688 190.011 61.3301 190.68C60.6998 191.35 60.0322 191.986 59.3302 192.586C57.9389 193.761 56.4588 194.835 54.9023 195.797C54.1359 196.284 53.3494 196.734 52.5677 197.178C51.7859 197.622 50.9936 198.037 50.2024 198.438C43.9436 201.657 37.6542 203.792 31.8284 205.298C31.714 205.328 31.611 205.39 31.5315 205.475C31.4777 205.531 31.4083 205.571 31.3316 205.59C31.2585 205.607 31.1817 205.604 31.1105 205.58C30.9936 205.543 30.8683 205.538 30.7486 205.566C25.9315 206.773 21.4539 207.58 17.479 208.206C16.9763 208.29 16.4784 208.358 15.99 208.435C15.5016 208.513 15.0226 208.582 14.5507 208.647C13.6045 208.78 12.6978 208.898 11.8305 209C10.0849 209.205 8.48121 209.336 7.03244 209.396C5.58367 209.457 4.28627 209.452 3.17574 209.396C2.67587 209.379 2.18116 209.292 1.70687 209.139C1.50689 209.07 1.31595 208.978 1.138 208.866C0.978959 208.769 0.837505 208.648 0.719335 208.506C0.610772 208.38 0.520086 208.241 0.449686 208.092C0.419142 208.032 0.393056 207.971 0.371629 207.907L0.35507 207.861C0.336147 207.8 0.317226 207.746 0.305399 207.683C0.254673 207.462 0.254673 207.232 0.305399 207.011C0.320695 206.943 0.342063 206.878 0.369261 206.814L0.401195 206.744C0.426032 206.696 0.444953 206.651 0.466241 206.618C0.520644 206.536 0.543117 206.486 0.53129 206.475C0.519463 206.463 0.495807 206.475 0.450866 206.509C0.427212 206.525 0.400012 206.547 0.366897 206.573C0.333782 206.6 0.306581 206.64 0.271101 206.688C0.232001 206.737 0.19719 206.79 0.167025 206.845C0.13596 206.904 0.109091 206.964 0.0866042 207.027L0.067681 207.078C0.016195 207.254 -0.0061596 207.436 0.00145164 207.619C0.0125414 207.862 0.0682066 208.101 0.165841 208.324C0.282704 208.601 0.458407 208.85 0.681488 209.056C0.942487 209.289 1.24401 209.474 1.57204 209.605C1.93531 209.747 2.31432 209.847 2.70149 209.905C3.10478 209.969 3.52936 210.006 3.9634 210.033C4.1822 210.049 4.40691 210.064 4.63753 210.074C4.86815 210.085 5.1035 210.099 5.34713 210.105C6.31219 210.138 7.36359 210.14 8.49304 210.105C10.7531 210.032 13.3254 209.791 16.1591 209.431C18.9928 209.07 22.1091 208.623 25.4537 208.003C28.7983 207.382 32.3665 206.579 36.0978 205.519C36.565 205.391 37.0309 205.247 37.5004 205.104C37.97 204.961 38.4466 204.821 38.9197 204.668C39.8658 204.353 40.8261 204.048 41.7841 203.693L42.5079 203.434L42.871 203.304L43.2258 203.164L44.6793 202.599C45.1665 202.409 45.6479 202.196 46.1363 201.994L46.8696 201.686L47.5981 201.356C48.0842 201.134 48.5762 200.914 49.0634 200.685C49.5507 200.456 50.0356 200.217 50.5229 199.977C51.4986 199.494 52.4766 198.987 53.4511 198.45C55.3815 197.398 57.2306 196.211 58.9837 194.9C59.0902 194.815 59.1646 194.697 59.1954 194.567C59.2174 194.477 59.2693 194.396 59.3432 194.338C59.4198 194.28 59.5136 194.248 59.6105 194.246C59.748 194.244 59.8807 194.197 59.9878 194.113C61.1041 193.203 62.1453 192.21 63.1018 191.143C64.1368 189.981 65.0334 188.711 65.7746 187.355C66.153 186.66 66.4757 185.937 66.7397 185.193C67.0134 184.433 67.2076 183.648 67.3192 182.85C67.4338 182.031 67.4401 181.202 67.3381 180.381Z" fill="black"/>
<path d="M228.479 162.242C228.469 162.157 228.459 162.072 228.448 161.988V161.973C228.448 161.965 228.448 161.957 228.448 161.946C228.422 161.779 228.395 161.613 228.362 161.448C228.297 161.108 228.207 160.773 228.092 160.445C228.071 160.385 228.048 160.33 228.024 160.267C228.016 160.253 228.007 160.234 227.995 160.214C227.916 160.065 227.829 159.92 227.734 159.781C227.683 159.727 227.629 159.676 227.579 159.623L227.561 159.605L226.768 159.525H226.76C226.76 159.525 226.675 159.525 226.554 159.518L226.11 159.497L225.667 159.475C225.548 159.475 225.461 159.466 225.456 159.467C225.319 160.327 225.229 161.252 225.165 162.242C225.152 162.49 225.125 162.74 225.102 162.994C225.08 163.248 225.059 163.507 225.036 163.768C224.998 164.293 224.959 164.831 224.918 165.384C225.014 165.44 225.066 165.499 225.057 165.545C225.049 165.59 224.994 165.624 224.9 165.645C224.62 168.697 224.198 172.173 223.152 175.801C223.229 175.861 223.27 175.916 223.254 175.96C223.237 176.005 223.179 176.034 223.08 176.047C222.879 176.734 222.674 177.432 222.466 178.141L221.799 180.274C221.579 180.996 221.339 181.72 221.098 182.45C220.857 183.181 220.625 183.921 220.367 184.662C220.141 185.321 219.918 185.976 219.696 186.627C219.786 186.699 219.832 186.762 219.815 186.811C219.797 186.86 219.722 186.886 219.608 186.89C217.479 193.039 215.399 198.686 213.813 203.418C213.902 203.491 213.947 203.555 213.931 203.605C213.914 203.654 213.84 203.678 213.726 203.683C213.396 204.665 213.082 205.605 212.799 206.503L212.384 207.811C212.316 208.023 212.251 208.232 212.186 208.437C212.121 208.642 212.06 208.855 212.002 209.06C211.549 210.707 211.386 212.22 211.563 213.459C211.603 213.753 211.667 214.043 211.755 214.326C211.83 214.578 211.929 214.823 212.052 215.057C212.239 215.428 212.495 215.762 212.809 216.043C212.998 216.215 213.212 216.357 213.446 216.467C213.607 216.532 213.695 216.55 213.713 216.523C213.731 216.495 213.703 216.459 213.645 216.393C213.616 216.36 213.577 216.325 213.535 216.279C213.492 216.233 213.442 216.18 213.386 216.123L213.208 215.921C213.15 215.841 213.077 215.763 213.015 215.666C212.863 215.452 212.737 215.221 212.639 214.979C212.517 214.674 212.429 214.357 212.379 214.033C212.32 213.64 212.298 213.243 212.313 212.847C212.366 211.852 212.546 210.869 212.849 209.917C212.93 209.649 213.02 209.374 213.12 209.096C213.219 208.818 213.332 208.523 213.441 208.228C213.664 207.632 213.894 207.011 214.133 206.365C214.618 205.076 215.138 203.691 215.691 202.224C216.796 199.289 218.044 196.028 219.332 192.522C219.214 192.433 219.149 192.355 219.17 192.293C219.191 192.231 219.288 192.211 219.443 192.215C220.271 189.957 221.113 187.593 221.94 185.155C222.285 184.142 222.615 183.135 222.961 182.149C223.136 181.657 223.296 181.163 223.462 180.675L223.959 179.222C223.84 179.144 223.787 179.074 223.805 179.019C223.823 178.964 223.914 178.933 224.06 178.928C225.32 175.208 226.447 171.687 227.299 168.461C227.504 167.66 227.705 166.867 227.89 166.102C228.053 165.333 228.206 164.587 228.348 163.866C228.415 163.504 228.492 163.151 228.544 162.801V162.782C228.519 162.606 228.498 162.424 228.479 162.242Z" fill="black"/>
<path d="M260.936 180.611C260.833 179.777 260.609 178.96 260.27 178.186C259.987 177.547 259.63 176.942 259.205 176.381C258.8 175.828 258.345 175.311 257.844 174.837C256.866 173.916 255.768 173.121 254.578 172.472C253.997 172.149 253.405 171.854 252.804 171.589C252.506 171.451 252.203 171.331 251.902 171.203C251.602 171.076 251.299 170.963 250.994 170.86C250.842 170.806 250.691 170.745 250.539 170.697L250.08 170.548L249.167 170.252C248.634 170.065 248.088 169.927 247.547 169.782C247.423 169.752 247.292 169.761 247.173 169.807C247.089 169.84 246.997 169.846 246.909 169.825C246.819 169.801 246.738 169.749 246.68 169.678C246.596 169.576 246.481 169.503 246.351 169.47C244.079 168.942 241.771 168.571 239.445 168.359C238.854 168.313 238.269 168.26 237.683 168.22L235.935 168.146C235.645 168.13 235.357 168.127 235.068 168.126L234.205 168.119L233.346 168.113L232.494 168.133L231.646 168.153L231.222 168.162L230.802 168.182L229.133 168.269C228.579 168.304 228.031 168.353 227.486 168.393C227.213 168.415 226.941 168.433 226.67 168.458L225.862 168.541C223.71 168.746 221.627 169.032 219.608 169.343L218.108 169.572L216.633 169.822C215.657 169.985 214.698 170.166 213.749 170.345C211.857 170.713 210.009 171.131 208.241 171.638C206.517 172.123 204.834 172.735 203.207 173.47C202.937 173.594 202.671 173.722 202.409 173.852C202.358 173.878 202.464 173.813 201.838 174.246C201.128 174.735 200.454 175.417 200.273 176.193C200.226 176.395 199.981 178.055 200.453 178.255L200.52 178.323C200.61 178.415 200.728 178.476 200.856 178.499C200.926 178.511 200.997 178.511 201.067 178.499L201.185 178.477C201.257 178.46 201.325 178.431 201.386 178.391C203.041 177.312 204.803 176.398 206.648 175.662C207.739 175.217 208.891 174.804 210.103 174.42C211.253 174.059 212.453 173.72 213.696 173.398C213.806 173.369 213.905 173.312 213.984 173.233C214.037 173.176 214.107 173.136 214.184 173.118C214.254 173.103 214.328 173.107 214.396 173.131C214.502 173.161 214.614 173.161 214.719 173.131C215.568 172.92 216.437 172.712 217.321 172.511C217.794 172.397 218.277 172.282 218.762 172.183L220.225 171.868C222.193 171.461 224.221 171.066 226.315 170.765C228.455 170.439 230.611 170.218 232.774 170.102C233.049 170.088 233.327 170.064 233.602 170.058L234.438 170.039C234.996 170.028 235.559 170.006 236.122 170.024C236.685 170.042 237.254 170.04 237.823 170.063L239.334 170.157C239.447 170.162 239.559 170.139 239.659 170.09C239.721 170.061 239.789 170.049 239.857 170.055C239.931 170.063 240.001 170.09 240.059 170.135C240.151 170.199 240.259 170.239 240.371 170.25C241.169 170.335 241.972 170.408 242.769 170.545C243.205 170.615 243.644 170.672 244.08 170.751L245.388 171.016C245.606 171.06 245.826 171.102 246.045 171.15L246.694 171.316L247.983 171.644L248.015 171.654L249.29 172.052L249.937 172.255C250.153 172.322 250.363 172.404 250.577 172.478C252.27 173.095 253.915 173.872 255.361 174.907C256.081 175.419 256.74 176.008 257.325 176.663C257.466 176.822 257.595 176.989 257.73 177.152L257.753 177.182C257.871 177.353 258.002 177.525 258.12 177.697C258.354 178.054 258.56 178.429 258.734 178.817C259.036 179.51 259.227 180.244 259.3 180.993C259.364 181.684 259.341 182.38 259.229 183.066C259.214 183.169 259.232 183.275 259.28 183.369C259.315 183.435 259.325 183.511 259.308 183.583C259.292 183.652 259.256 183.714 259.203 183.762C259.115 183.842 259.052 183.944 259.02 184.056C258.92 184.426 258.802 184.793 258.665 185.154C258.503 185.582 258.318 186.002 258.116 186.414C257.914 186.827 257.687 187.228 257.45 187.625C257.214 188.021 256.954 188.402 256.686 188.779C256.15 189.528 255.561 190.239 254.922 190.908C254.291 191.578 253.624 192.214 252.922 192.814C251.528 193.994 250.044 195.071 248.483 196.036C247.717 196.523 246.931 196.974 246.149 197.417C245.367 197.861 244.573 198.278 243.783 198.677C237.525 201.896 231.235 204.031 225.409 205.537C225.295 205.567 225.192 205.629 225.113 205.715C225.059 205.771 224.989 205.81 224.913 205.829C224.84 205.847 224.763 205.844 224.692 205.82C224.575 205.782 224.449 205.777 224.33 205.805C219.513 207.012 215.035 207.819 211.06 208.446C210.556 208.529 210.058 208.597 209.571 208.675C209.084 208.753 208.602 208.822 208.132 208.887C207.186 209.02 206.279 209.137 205.412 209.24C203.666 209.445 202.062 209.575 200.614 209.636C199.165 209.696 197.867 209.692 196.757 209.636C196.257 209.619 195.762 209.532 195.288 209.378C195.088 209.309 194.897 209.217 194.719 209.106C194.56 209.008 194.419 208.887 194.3 208.746C194.192 208.62 194.101 208.48 194.031 208.331C194 208.272 193.974 208.21 193.952 208.147L193.936 208.1C193.917 208.039 193.898 207.986 193.887 207.923C193.836 207.701 193.836 207.472 193.887 207.25C193.901 207.183 193.922 207.117 193.95 207.053L193.982 206.983C194.007 206.935 194.026 206.891 194.047 206.857C194.101 206.775 194.124 206.726 194.112 206.713C194.101 206.701 194.077 206.713 194.031 206.749C194.008 206.765 193.98 206.785 193.948 206.813C193.916 206.84 193.888 206.879 193.851 206.922C193.812 206.971 193.778 207.024 193.748 207.079C193.717 207.138 193.69 207.198 193.667 207.261L193.649 207.312C193.597 207.488 193.575 207.67 193.583 207.853C193.594 208.095 193.649 208.334 193.747 208.558C193.864 208.834 194.04 209.084 194.263 209.29C194.524 209.522 194.825 209.708 195.153 209.838C195.516 209.98 195.895 210.081 196.283 210.139C196.685 210.203 197.11 210.238 197.545 210.267C197.763 210.283 197.988 210.298 198.219 210.308C198.449 210.318 198.683 210.332 198.928 210.339C199.893 210.372 200.945 210.373 202.074 210.339C204.334 210.266 206.907 210.025 209.74 209.664C212.574 209.304 215.69 208.863 219.034 208.235C222.377 207.608 225.948 206.812 229.678 205.752C230.145 205.625 230.611 205.481 231.08 205.338C231.55 205.195 232.027 205.055 232.5 204.9C233.446 204.587 234.406 204.282 235.364 203.927L236.087 203.668L236.451 203.538L236.806 203.398L238.259 202.833C238.746 202.643 239.228 202.43 239.716 202.227L240.449 201.919L241.178 201.59C241.663 201.36 242.156 201.147 242.643 200.918C243.131 200.689 243.615 200.451 244.103 200.211C245.079 199.727 246.055 199.219 247.031 198.684C248.962 197.632 250.811 196.446 252.564 195.134C252.67 195.049 252.744 194.932 252.775 194.802C252.797 194.712 252.849 194.631 252.923 194.573C253 194.515 253.093 194.483 253.19 194.481C253.328 194.478 253.46 194.431 253.568 194.348C254.684 193.438 255.725 192.445 256.682 191.378C257.717 190.216 258.613 188.946 259.354 187.59C259.732 186.894 260.055 186.172 260.32 185.428C260.593 184.668 260.788 183.882 260.899 183.084C261.02 182.265 261.032 181.434 260.936 180.611Z" fill="black"/>
<defs>
<linearGradient id="paint0_linear_349_1009" x1="179.627" y1="88.0053" x2="226.159" y2="88.0053" gradientUnits="userSpaceOnUse">
<stop stop-color="#027AC9"/>
<stop offset="1" stop-color="#08A0DB"/>
</linearGradient>
<linearGradient id="paint1_linear_349_1009" x1="189.726" y1="98.2571" x2="217.139" y2="98.2571" gradientUnits="userSpaceOnUse">
<stop stop-color="#027AC9"/>
<stop offset="1" stop-color="#08A0DB"/>
</linearGradient>
<linearGradient id="paint2_linear_349_1009" x1="26.0523" y1="76.0834" x2="227.35" y2="76.0834" gradientUnits="userSpaceOnUse">
<stop stop-color="#027AC9"/>
<stop offset="1" stop-color="#08A0DB"/>
</linearGradient>
</defs>
</svg>
