<svg xmlns="http://www.w3.org/2000/svg" xmlns:xlink="http://www.w3.org/1999/xlink" width="26" height="448"><symbol id="ic-arrow-circle-right" viewBox="0 0 24 24"><path fill-rule="evenodd" clip-rule="evenodd" d="M12 3a9 9 0 1 0 0 18 9 9 0 0 0 0-18ZM1 12C1 5.925 5.925 1 12 1s11 4.925 11 11-4.925 11-11 11S1 18.075 1 12Z"/><path fill-rule="evenodd" clip-rule="evenodd" d="M10.034 7.762a1 1 0 0 1 1.414.002l3.52 3.53a1 1 0 0 1 0 1.412l-3.52 3.53a1 1 0 1 1-1.416-1.412L12.848 12l-2.816-2.824a1 1 0 0 1 .002-1.414Z"/></symbol><use xlink:href="#ic-arrow-circle-right" width="24" height="24"/><symbol id="ic-arrow-left" viewBox="0 0 24 24"><path fill-rule="evenodd" clip-rule="evenodd" d="M10.707 5.293a1 1 0 0 1 0 1.414L6.414 11H20a1 1 0 1 1 0 2H6.414l4.293 4.293a1 1 0 0 1-1.414 1.414l-6-6a1 1 0 0 1 0-1.414l6-6a1 1 0 0 1 1.414 0Z"/></symbol><use xlink:href="#ic-arrow-left" y="24" width="24" height="24"/><symbol id="ic-arrow-right" viewBox="0 0 24 24"><path fill-rule="evenodd" clip-rule="evenodd" d="M11.293 4.293a1 1 0 0 1 1.414 0l7 7a1 1 0 0 1 0 1.414l-7 7a1 1 0 0 1-1.414-1.414L16.586 13H5a1 1 0 1 1 0-2h11.586l-5.293-5.293a1 1 0 0 1 0-1.414Z"/></symbol><use xlink:href="#ic-arrow-right" y="48" width="24" height="24"/><symbol id="ic-chevron-down" viewBox="0 0 8 6"><path d="m7.88 1.105-.29-.29a.41.41 0 0 0-.578 0L4.004 3.787.988.771a.41.41 0 0 0-.579 0l-.29.289a.41.41 0 0 0 0 .578L3.712 5.23c.16.16.418.16.578 0l3.59-3.546a.408.408 0 0 0 0-.578Z"/></symbol><use xlink:href="#ic-chevron-down" y="72" width="8" height="6"/><symbol id="ic-chevron-left" viewBox="0 0 24 24"><path fill-rule="evenodd" clip-rule="evenodd" d="M15.707 5.293a1 1 0 0 1 0 1.414L10.414 12l5.293 5.293a1 1 0 0 1-1.414 1.414l-6-6a1 1 0 0 1 0-1.414l6-6a1 1 0 0 1 1.414 0Z"/></symbol><use xlink:href="#ic-chevron-left" y="78" width="24" height="24"/><symbol id="ic-chevron-right" viewBox="0 0 24 24"><path fill-rule="evenodd" clip-rule="evenodd" d="M8.293 5.293a1 1 0 0 1 1.414 0l6 6a1 1 0 0 1 0 1.414l-6 6a1 1 0 0 1-1.414-1.414L13.586 12 8.293 6.707a1 1 0 0 1 0-1.414Z"/></symbol><use xlink:href="#ic-chevron-right" y="102" width="24" height="24"/><symbol id="ic-chevron-up" viewBox="0 0 24 24"><path fill-rule="evenodd" clip-rule="evenodd" d="M11.293 8.293a1 1 0 0 1 1.414 0l6 6a1 1 0 0 1-1.414 1.414L12 10.414l-5.293 5.293a1 1 0 0 1-1.414-1.414l6-6Z"/></symbol><use xlink:href="#ic-chevron-up" y="126" width="24" height="24"/><symbol id="ic-clock" viewBox="0 0 24 24"><path fill-rule="evenodd" clip-rule="evenodd" d="M12 2.182c-5.422 0-9.818 4.396-9.818 9.818S6.578 21.818 12 21.818s9.818-4.396 9.818-9.818S17.422 2.182 12 2.182ZM0 12C0 5.373 5.373 0 12 0s12 5.373 12 12-5.373 12-12 12S0 18.627 0 12Zm12-7.636c.602 0 1.09.488 1.09 1.09v5.872l3.762 1.88a1.09 1.09 0 0 1-.976 1.952l-4.364-2.182A1.09 1.09 0 0 1 10.91 12V5.455c0-.603.489-1.091 1.091-1.091Z"/></symbol><use xlink:href="#ic-clock" y="150" width="24" height="24"/><symbol id="ic-close" viewBox="0 0 24 24"><path fill-rule="evenodd" clip-rule="evenodd" d="M6.293 6.293a1 1 0 0 1 1.414 0L12 10.586l4.293-4.293a1 1 0 1 1 1.414 1.414L13.414 12l4.293 4.293a1 1 0 0 1-1.414 1.414L12 13.414l-4.293 4.293a1 1 0 0 1-1.414-1.414L10.586 12 6.293 7.707a1 1 0 0 1 0-1.414Z"/></symbol><use xlink:href="#ic-close" y="174" width="24" height="24"/><symbol id="ic-d-med" viewBox="0 0 18 22"><path d="M17.053 11.087c0 2.412-.44 4.429-1.319 6.05-.879 1.611-2.153 2.827-3.823 3.647-1.66.81-3.677 1.216-6.05 1.216H.046V.584h6.46c2.178 0 4.053.4 5.625 1.201 1.572.791 2.783 1.968 3.633 3.53.859 1.553 1.289 3.477 1.289 5.772Zm-2.622.088c0-1.924-.323-3.51-.967-4.76-.635-1.25-1.572-2.179-2.813-2.784-1.23-.615-2.739-.923-4.526-.923H2.536v17.153h3.032c2.95 0 5.162-.727 6.636-2.182 1.484-1.455 2.227-3.623 2.227-6.504Z"/></symbol><use xlink:href="#ic-d-med" y="198" width="18" height="22"/><symbol id="ic-flip-backward" viewBox="0 0 24 24"><path fill-rule="evenodd" clip-rule="evenodd" d="M7.707 4.293a1 1 0 0 1 0 1.414L5.414 8H16.5a5.5 5.5 0 1 1 0 11H12a1 1 0 1 1 0-2h4.5a3.5 3.5 0 1 0 0-7H5.414l2.293 2.293a1 1 0 1 1-1.414 1.414l-4-4a1 1 0 0 1 0-1.414l4-4a1 1 0 0 1 1.414 0Z"/></symbol><use xlink:href="#ic-flip-backward" y="220" width="24" height="24"/><symbol id="ic-gallery" viewBox="0 0 15 15"><path fill-rule="evenodd" clip-rule="evenodd" d="M4.319 0h6.362c.604 0 1.102 0 1.508.032.421.033.809.105 1.173.285a2.954 2.954 0 0 1 1.311 1.27c.185.352.26.727.294 1.136.033.393.033.875.033 1.46v6.162c0 .585 0 1.067-.033 1.46-.035.409-.109.784-.294 1.137a2.955 2.955 0 0 1-1.311 1.27c-.364.18-.752.25-1.173.284-.406.032-.904.032-1.508.032h-7.01c-.203 0-.402 0-.563-.013l-.019-.002a8.014 8.014 0 0 1-.278-.017c-.421-.033-.809-.105-1.173-.284a2.955 2.955 0 0 1-1.311-1.27c-.185-.353-.26-.728-.294-1.136C0 11.412 0 10.93 0 10.346V4.182c0-.585 0-1.067.033-1.46.035-.409.109-.784.294-1.136A2.955 2.955 0 0 1 1.638.317c.364-.18.752-.252 1.173-.285C3.217 0 3.715 0 4.32 0Zm.031 13.075h-.29l6.122-5.928a6.07 6.07 0 0 1 .31-.29l.008-.007.008.007c.067.055.153.137.31.29L13.5 9.744v.571c0 .622 0 1.045-.028 1.372-.027.319-.076.482-.136.595a1.477 1.477 0 0 1-.655.635c-.117.058-.285.105-.614.131-.338.027-.775.027-1.417.027h-6.3ZM13.5 7.69l-1.638-1.587a6.466 6.466 0 0 0-.384-.354 1.528 1.528 0 0 0-.514-.292 1.546 1.546 0 0 0-.928 0 1.527 1.527 0 0 0-.514.292c-.12.098-.25.224-.384.354l-6.414 6.212a6.724 6.724 0 0 0-.388.395 1.665 1.665 0 0 0-.118.152 1.471 1.471 0 0 1-.555-.58c-.06-.113-.108-.276-.135-.595-.027-.327-.028-.75-.028-1.372V4.213c0-.622 0-1.045.028-1.372.027-.318.076-.481.135-.595.144-.273.374-.496.656-.635.117-.058.285-.105.614-.13.338-.028.775-.028 1.417-.028h6.3c.642 0 1.08 0 1.417.027.329.026.497.073.614.131.282.14.512.362.655.635.06.114.109.277.136.595.027.327.028.75.028 1.372V7.69ZM4.875 3.995a.738.738 0 0 0-.75.727c0 .4.336.726.75.726s.75-.325.75-.726a.738.738 0 0 0-.75-.727Zm-2.25.727c0-1.204 1.007-2.18 2.25-2.18s2.25.976 2.25 2.18c0 1.203-1.007 2.179-2.25 2.179s-2.25-.976-2.25-2.18Z"/></symbol><use xlink:href="#ic-gallery" y="244" width="15" height="15"/><symbol id="ic-house" viewBox="0 0 19 19"><path fill-rule="evenodd" clip-rule="evenodd" d="M9.06.057c.289-.076.591-.076.88 0 .334.09.618.306.844.48l.063.047.524.397.201.152.102.077.002.002 5.251 3.977 1.727 1.308a.878.878 0 0 1 .173 1.22.858.858 0 0 1-1.209.175l-.345-.261v6.835c0 .46 0 .857-.027 1.183-.028.345-.09.688-.256 1.018a2.604 2.604 0 0 1-1.132 1.143c-.327.168-.666.23-1.008.259-.323.026-.716.026-1.171.026H5.32c-.455 0-.848 0-1.171-.026-.342-.029-.681-.09-1.008-.259a2.604 2.604 0 0 1-1.132-1.143c-.167-.33-.228-.673-.256-1.018a15.759 15.759 0 0 1-.027-1.183V7.631l-.345.261a.858.858 0 0 1-1.21-.174.878.878 0 0 1 .174-1.221l6.978-5.285.004-.003.1-.076.2-.152.525-.397.063-.048c.226-.173.51-.39.844-.479ZM3.455 6.322v8.11c0 .503 0 .828.02 1.075.02.237.052.325.074.368a.868.868 0 0 0 .377.381c.043.022.13.055.364.074.245.02.567.021 1.065.021h.69v-5.609c0-.22 0-.434.015-.616.016-.2.054-.434.174-.671.165-.328.43-.595.755-.762.234-.12.467-.16.664-.176a7.85 7.85 0 0 1 .61-.014h2.474c.218 0 .43 0 .61.014.197.017.43.055.664.176.325.167.59.434.755.762.12.237.158.472.174.671.015.182.015.396.014.616v5.61h.691c.498 0 .82-.002 1.065-.022.234-.02.321-.052.364-.074a.868.868 0 0 0 .377-.381c.022-.043.055-.131.074-.368.02-.247.02-.572.02-1.074v-8.11L10.64 2.606c-.656-.496-.797-.583-.92-.616a.856.856 0 0 0-.44 0c-.123.033-.264.12-.92.616L3.455 6.322Zm7.772 10.03V10.77c0-.259 0-.4-.009-.502v-.011l-.012-.001a6.4 6.4 0 0 0-.497-.01H8.291a7.005 7.005 0 0 0-.508.01l-.001.012a7.206 7.206 0 0 0-.01.502v5.581h3.455Z"/></symbol><use xlink:href="#ic-house" y="259" width="19" height="19"/><symbol id="ic-instagram" viewBox="0 0 26 26"><g clip-path="url(#a)"><path d="M25.645 13.053c0 1.768-.036 3.54.01 5.307.076 3.128-1.89 5.546-4.393 6.622a7.943 7.943 0 0 1-3.153.66c-3.418.005-6.84.051-10.258-.015-2.575-.05-4.692-1.127-6.21-3.25C.842 21.26.461 19.99.461 18.614V7.696c0-2.97 1.447-5.048 4.017-6.398C5.596.714 6.809.465 8.074.46c3.316 0 6.637-.02 9.953.01 2.575.02 4.723 1.005 6.307 3.077.884 1.158 1.31 2.489 1.31 3.951v5.555Zm-23.309 0v5.586c0 .833.193 1.615.625 2.321 1.132 1.854 2.843 2.758 4.966 2.793 3.407.05 6.82.02 10.232.01.838 0 1.65-.172 2.408-.533 2.061-.985 3.214-2.554 3.204-4.91-.02-3.606-.005-7.211-.005-10.817 0-1.02-.29-1.955-.894-2.778-1.168-1.579-2.783-2.356-4.713-2.376-3.402-.04-6.804-.015-10.207-.01a6.01 6.01 0 0 0-2.107.4c-1.869.697-3.605 2.459-3.524 5.054.06 1.757.015 3.509.015 5.26Z"/><path d="M13.081 18.438c-3.275 0-5.916-2.61-5.92-5.86-.006-3.2 2.655-5.82 5.91-5.82 3.265-.005 5.916 2.61 5.921 5.835 0 3.22-2.646 5.84-5.91 5.845Zm0-1.88c2.23 0 4.037-1.782 4.032-3.976-.005-2.173-1.813-3.95-4.032-3.95-2.229 0-4.047 1.772-4.047 3.96.005 2.194 1.818 3.972 4.047 3.967Zm6.597-11.574c.685 0 1.244.584 1.244 1.3-.005.716-.569 1.295-1.254 1.29-.676-.005-1.23-.584-1.23-1.285-.004-.716.554-1.305 1.24-1.305Z"/></g><defs><clipPath id="a"><path fill="#fff" d="M0 0h26v26H0z"/></clipPath></defs></symbol><use xlink:href="#ic-instagram" y="278" width="26" height="26"/><symbol id="ic-location" viewBox="0 0 14 16"><path fill-rule="evenodd" clip-rule="evenodd" d="M7 1.455c-2.792 0-5.056 2.279-5.056 5.09 0 1.377.617 2.675 1.656 4.034.878 1.148 2 2.27 3.207 3.474l.193.193.193-.193C8.4 12.85 9.523 11.727 10.4 10.58c1.04-1.359 1.656-2.657 1.656-4.034 0-2.811-2.264-5.09-5.056-5.09ZM.5 6.545C.5 2.93 3.41 0 7 0s6.5 2.93 6.5 6.545c0 1.838-.828 3.448-1.956 4.922-.942 1.232-2.147 2.435-3.352 3.638-.228.227-.455.454-.681.682a.719.719 0 0 1-1.022 0c-.226-.228-.453-.455-.681-.682-1.205-1.203-2.41-2.406-3.352-3.638C1.328 9.993.5 8.383.5 6.545ZM7 5.091a1.45 1.45 0 0 0-1.444 1.454A1.45 1.45 0 0 0 7 8a1.45 1.45 0 0 0 1.444-1.455A1.45 1.45 0 0 0 7 5.091ZM4.111 6.545A2.899 2.899 0 0 1 7 3.636a2.899 2.899 0 0 1 2.889 2.91A2.899 2.899 0 0 1 7 9.454a2.899 2.899 0 0 1-2.889-2.91Z"/></symbol><use xlink:href="#ic-location" y="304" width="14" height="16"/><symbol id="ic-loop" viewBox="0 0 15 15"><path d="M6.246 0A6.256 6.256 0 0 0 0 6.246a6.256 6.256 0 0 0 6.246 6.246 6.213 6.213 0 0 0 3.95-1.414l3.729 3.73a.624.624 0 1 0 .883-.883l-3.73-3.73a6.213 6.213 0 0 0 1.415-3.949A6.256 6.256 0 0 0 6.245 0Zm0 1.25a4.988 4.988 0 0 1 4.997 4.996 4.988 4.988 0 0 1-4.997 4.997A4.988 4.988 0 0 1 1.25 6.246 4.988 4.988 0 0 1 6.246 1.25Z"/></symbol><use xlink:href="#ic-loop" y="320" width="15" height="15"/><symbol id="ic-mail" viewBox="0 0 17 13"><path fill-rule="evenodd" clip-rule="evenodd" d="M4.58 0h7.424c.57 0 1.041 0 1.424.031.399.033.765.103 1.108.278a2.83 2.83 0 0 1 1.239 1.238c.169.332.24.684.274 1.066a.708.708 0 0 1 .021.355c.013.318.013.687.013 1.111v4.592c0 .57 0 1.04-.03 1.424-.033.398-.103.764-.278 1.108a2.834 2.834 0 0 1-1.239 1.238c-.343.175-.71.245-1.108.278-.383.031-.854.031-1.424.031H4.58c-.57 0-1.04 0-1.424-.031-.398-.033-.764-.103-1.108-.278A2.834 2.834 0 0 1 .81 11.203c-.175-.344-.245-.71-.278-1.108a18.913 18.913 0 0 1-.03-1.424V4.079c0-.424-.001-.793.012-1.111a.708.708 0 0 1 .022-.355c.034-.382.105-.734.274-1.066A2.833 2.833 0 0 1 2.047.309c.344-.175.71-.245 1.108-.278C3.538 0 4.009 0 4.579 0ZM1.916 4.194v4.448c0 .606 0 1.019.026 1.338.026.31.072.469.128.58.136.266.353.483.62.619.11.056.269.102.58.128.318.026.73.026 1.337.026h7.367c.607 0 1.02 0 1.338-.026.31-.026.47-.072.58-.128.267-.136.483-.353.62-.62.056-.11.102-.269.127-.58.026-.318.027-.73.027-1.337V4.194l-4.67 3.268-.08.057c-.387.271-.725.51-1.111.605-.338.084-.69.084-1.028 0-.386-.096-.725-.334-1.11-.605l-.082-.057-4.67-3.268Zm12.691-1.688L9.185 6.3c-.516.362-.625.425-.722.449a.708.708 0 0 1-.343 0c-.096-.024-.206-.087-.722-.449L1.975 2.506a1.08 1.08 0 0 1 .096-.316 1.42 1.42 0 0 1 .62-.619c.11-.056.269-.102.58-.128.318-.026.73-.026 1.337-.026h7.367c.607 0 1.02 0 1.338.026.31.026.47.072.58.128.267.136.483.353.62.62.037.073.07.168.095.315Z"/></symbol><use xlink:href="#ic-mail" y="335" width="17" height="13"/><symbol id="ic-narrow-left" viewBox="0 0 18 14"><path fill-rule="evenodd" clip-rule="evenodd" d="M7.707.293a1 1 0 0 1 0 1.414L3.414 6H17a1 1 0 1 1 0 2H3.414l4.293 4.293a1 1 0 1 1-1.414 1.414l-6-6a1 1 0 0 1 0-1.414l6-6a1 1 0 0 1 1.414 0Z"/></symbol><use xlink:href="#ic-narrow-left" y="348" width="18" height="14"/><symbol id="ic-narrow-right" viewBox="0 0 18 14"><path fill-rule="evenodd" clip-rule="evenodd" d="M10.293.293a1 1 0 0 1 1.414 0l6 6a1 1 0 0 1 0 1.414l-6 6a1 1 0 0 1-1.414-1.414L14.586 8H1a1 1 0 0 1 0-2h13.586l-4.293-4.293a1 1 0 0 1 0-1.414Z"/></symbol><use xlink:href="#ic-narrow-right" y="362" width="18" height="14"/><symbol id="ic-person" viewBox="0 0 14 16"><path fill-rule="evenodd" clip-rule="evenodd" d="M7 1.507c-1.503 0-2.722 1.18-2.722 2.636C4.278 5.6 5.497 6.78 7 6.78S9.722 5.6 9.722 4.143c0-1.456-1.219-2.636-2.722-2.636ZM2.722 4.143C2.722 1.855 4.637 0 7 0c2.363 0 4.278 1.855 4.278 4.143S9.363 8.286 7 8.286c-2.363 0-4.278-1.855-4.278-4.143ZM4.92 9.416h4.16c.954 0 1.606 0 2.16.163 1.243.365 2.216 1.307 2.592 2.51.169.537.168 1.168.168 2.093v.13a.766.766 0 0 1-.778.754.766.766 0 0 1-.778-.753c0-1.106-.008-1.492-.1-1.786a2.298 2.298 0 0 0-1.556-1.507c-.303-.089-.702-.097-1.844-.097H5.056c-1.142 0-1.541.008-1.844.097a2.3 2.3 0 0 0-1.556 1.507c-.092.294-.1.68-.1 1.786a.766.766 0 0 1-.778.753.766.766 0 0 1-.778-.753v-.131c0-.925 0-1.556.168-2.092.377-1.204 1.35-2.146 2.592-2.511.554-.163 1.206-.163 2.16-.163Z"/></symbol><use xlink:href="#ic-person" y="376" width="14" height="16"/><symbol id="ic-phone" viewBox="0 0 14 15"><path fill-rule="evenodd" clip-rule="evenodd" d="M3.38 2.099a.68.68 0 0 0-.613 0c-.072.036-.163.114-.562.513l-.107.107c-.38.381-.483.491-.565.637-.095.17-.175.476-.174.67 0 .172.026.276.138.672a12.256 12.256 0 0 0 3.138 5.333 12.256 12.256 0 0 0 5.333 3.138c.396.113.5.138.673.139.194 0 .5-.08.67-.175.145-.081.255-.184.636-.565l.107-.107c.399-.399.477-.49.514-.562a.68.68 0 0 0 0-.613c-.037-.072-.115-.163-.514-.562l.48-.48-.48.48-.132-.132c-.262-.262-.321-.316-.366-.345a.68.68 0 0 0-.74 0c-.045.03-.104.083-.366.345l-.016.016c-.061.061-.138.139-.231.205l-.396-.553.396.553a1.39 1.39 0 0 1-1.171.2c-.11-.032-.2-.075-.269-.109A10.603 10.603 0 0 1 5.836 8.83 10.6 10.6 0 0 1 3.77 5.92l-.008-.017a1.689 1.689 0 0 1-.108-.268l.652-.19-.652.19a1.39 1.39 0 0 1 .2-1.171c.066-.093.143-.17.205-.231l.016-.016c.262-.262.315-.321.344-.366a.68.68 0 0 0 0-.74c-.029-.045-.082-.104-.344-.366l-.133-.133c-.399-.399-.49-.477-.562-.513ZM2.154.886a2.038 2.038 0 0 1 1.84 0c.294.149.549.404.844.7l.065.065.132.133.043.043c.195.194.363.362.48.543l-.57.37.57-.37c.44.675.44 1.546 0 2.222-.117.18-.285.348-.48.543a85.518 85.518 0 0 0-.116.117.056.056 0 0 0 0 .007 1.395 1.395 0 0 0 .033.072A9.242 9.242 0 0 0 6.797 7.87a9.242 9.242 0 0 0 2.538 1.802l-.294.613.294-.613.052.025a1.44 1.44 0 0 0 .024.009h.004a4.313 4.313 0 0 0 .117-.117c.194-.195.362-.362.543-.48a2.038 2.038 0 0 1 2.222 0c.18.118.348.285.543.48l.043.043-.48.48.48-.48.132.133.065.065c.296.295.552.55.7.844a2.039 2.039 0 0 1 0 1.84c-.148.294-.404.549-.7.844l-.065.065-.107.107-.046.046c-.316.317-.559.56-.886.743-.374.21-.91.35-1.34.348-.374 0-.648-.078-1-.179a13.615 13.615 0 0 1-5.961-3.495A13.614 13.614 0 0 1 .178 5.031C.08 4.678.001 4.405 0 4.03a2.966 2.966 0 0 1 .348-1.34c.184-.327.427-.57.743-.885l.046-.046.107-.108.066-.065c.295-.296.55-.551.844-.7l.303.6-.303-.6Z"/></symbol><use xlink:href="#ic-phone" y="392" width="14" height="15"/><symbol id="ic-plus" viewBox="0 0 17 16"><path d="M17 9.461h-6.906V16H6.906V9.461H0V6.575h6.906V0h3.188v6.575H17v2.886Z"/></symbol><use xlink:href="#ic-plus" y="407" width="17" height="16"/><symbol id="ic-telegram" viewBox="0 0 25 25"><path fill-rule="evenodd" clip-rule="evenodd" d="m21.144 5.521-9.026 9.027 2.747 7.064 6.279-16.09Zm-10.692 7.362 9.027-9.027-16.09 6.28 7.063 2.747ZM22.69.098c.216-.062.65-.175 1.116-.02.526.177.94.59 1.115 1.116.156.466.043.9-.02 1.116a9.961 9.961 0 0 1-.287.796l-7.791 19.967c-.123.314-.242.618-.358.853-.1.203-.324.634-.787.875a1.766 1.766 0 0 1-1.63 0c-.464-.242-.686-.674-.787-.877-.115-.235-.234-.54-.356-.854l-3.073-7.902-7.86-3.057a11.449 11.449 0 0 1-.895-.373c-.204-.1-.636-.322-.877-.786a1.766 1.766 0 0 1-.001-1.63c.24-.463.672-.687.875-.787.235-.116.54-.235.853-.357l.042-.017L21.894.386c.28-.11.561-.22.796-.288Z"/></symbol><use xlink:href="#ic-telegram" y="423" width="25" height="25"/></svg>